<?xml version="1.0" encoding="UTF-8" standalone="no"?>
<!-- Created with matplotlib (http://matplotlib.org/) -->

<svg
   xmlns:dc="http://purl.org/dc/elements/1.1/"
   xmlns:cc="http://creativecommons.org/ns#"
   xmlns:rdf="http://www.w3.org/1999/02/22-rdf-syntax-ns#"
   xmlns:svg="http://www.w3.org/2000/svg"
   xmlns="http://www.w3.org/2000/svg"
   xmlns:xlink="http://www.w3.org/1999/xlink"
   xmlns:sodipodi="http://sodipodi.sourceforge.net/DTD/sodipodi-0.dtd"
   xmlns:inkscape="http://www.inkscape.org/namespaces/inkscape"
   height="231.25"
   version="1.1"
   viewBox="0 0 356 185"
   width="445"
   id="svg6535"
   inkscape:version="0.91 r13725"
   sodipodi:docname="hs-metric.svg">
  <metadata
     id="metadata6765">
    <rdf:RDF>
      <cc:Work
         rdf:about="">
        <dc:format>image/svg+xml</dc:format>
        <dc:type
           rdf:resource="http://purl.org/dc/dcmitype/StillImage" />
        <dc:title></dc:title>
      </cc:Work>
    </rdf:RDF>
  </metadata>
  <sodipodi:namedview
     pagecolor="#808080"
     bordercolor="#666666"
     borderopacity="1"
     objecttolerance="10"
     gridtolerance="10"
     guidetolerance="10"
     inkscape:pageopacity="0"
     inkscape:pageshadow="2"
     inkscape:window-width="1918"
     inkscape:window-height="1078"
     id="namedview6763"
     showgrid="false"
     inkscape:zoom="2.1165533"
     inkscape:cx="210.81285"
     inkscape:cy="19.835462"
     inkscape:window-x="0"
     inkscape:window-y="0"
     inkscape:window-maximized="0"
     inkscape:current-layer="figure_1"
     fit-margin-top="8"
     fit-margin-left="8"
     fit-margin-right="8"
     fit-margin-bottom="8"
     units="px" />
  <defs
     id="defs6537"
     style="stroke-linecap:butt;stroke-linejoin:round">
    <style
       type="text/css"
       id="style6539">
*{stroke-linecap:butt;stroke-linejoin:round;}
  </style>
  </defs>
  <g
     id="figure_1"
     style="stroke-linecap:butt;stroke-linejoin:round">
    <g
       id="patch_1"
       style="stroke-linecap:butt;stroke-linejoin:round">
      <path
         d="m 0,185.02744 356.2,0 L 356.2,0 0,0 Z"
         style="fill:none;stroke-linecap:butt;stroke-linejoin:round"
         id="path6543"
         inkscape:connector-curvature="0" />
    </g>
    <g
       id="axes_1"
       style="stroke-linecap:butt;stroke-linejoin:round">
      <g
         id="matplotlib.axis_1"
         style="stroke-linecap:butt;stroke-linejoin:round" />
      <g
         id="matplotlib.axis_2"
         style="stroke-linecap:butt;stroke-linejoin:round" />
      <g
         id="LineCollection_1"
         style="stroke-linecap:butt;stroke-linejoin:round">
        <path
           clip-path="url(#p46eca1ea74)"
           d="m 25.918182,159.10926 121.745458,0"
           style="fill:none;stroke:#b3cde3;stroke-width:0.40000001;stroke-linecap:butt;stroke-linejoin:round;stroke-miterlimit:4;stroke-dasharray:none"
           id="path6549"
           inkscape:connector-curvature="0" />
        <path
           clip-path="url(#p46eca1ea74)"
           d="m 25.918182,148.96381 121.745458,0"
           style="fill:none;stroke:#b3cde3;stroke-width:0.40000001;stroke-linecap:butt;stroke-linejoin:round;stroke-miterlimit:4;stroke-dasharray:none"
           id="path6551"
           inkscape:connector-curvature="0" />
        <path
           clip-path="url(#p46eca1ea74)"
           d="m 25.918182,138.81835 121.745458,0"
           style="fill:none;stroke:#b3cde3;stroke-width:0.40000001;stroke-linecap:butt;stroke-linejoin:round;stroke-miterlimit:4;stroke-dasharray:none"
           id="path6553"
           inkscape:connector-curvature="0" />
        <path
           clip-path="url(#p46eca1ea74)"
           d="m 25.918182,128.6729 121.745458,0"
           style="fill:none;stroke:#b3cde3;stroke-width:0.40000001;stroke-linecap:butt;stroke-linejoin:round;stroke-miterlimit:4;stroke-dasharray:none"
           id="path6555"
           inkscape:connector-curvature="0" />
        <path
           clip-path="url(#p46eca1ea74)"
           d="m 25.918182,118.52744 121.745458,0"
           style="fill:none;stroke:#b3cde3;stroke-width:0.40000001;stroke-linecap:butt;stroke-linejoin:round;stroke-miterlimit:4;stroke-dasharray:none"
           id="path6557"
           inkscape:connector-curvature="0" />
        <path
           clip-path="url(#p46eca1ea74)"
           d="m 25.918182,108.38199 121.745458,0"
           style="fill:none;stroke:#b3cde3;stroke-width:0.40000001;stroke-linecap:butt;stroke-linejoin:round;stroke-miterlimit:4;stroke-dasharray:none"
           id="path6559"
           inkscape:connector-curvature="0" />
        <path
           clip-path="url(#p46eca1ea74)"
           d="m 25.918182,98.236534 121.745458,0"
           style="fill:none;stroke:#b3cde3;stroke-width:0.40000001;stroke-linecap:butt;stroke-linejoin:round;stroke-miterlimit:4;stroke-dasharray:none"
           id="path6561"
           inkscape:connector-curvature="0" />
        <path
           clip-path="url(#p46eca1ea74)"
           d="m 25.918182,88.09108 121.745458,0"
           style="fill:none;stroke:#b3cde3;stroke-width:0.40000001;stroke-linecap:butt;stroke-linejoin:round;stroke-miterlimit:4;stroke-dasharray:none"
           id="path6563"
           inkscape:connector-curvature="0" />
        <path
           clip-path="url(#p46eca1ea74)"
           d="m 25.918182,77.945625 121.745458,0"
           style="fill:none;stroke:#b3cde3;stroke-width:0.40000001;stroke-linecap:butt;stroke-linejoin:round;stroke-miterlimit:4;stroke-dasharray:none"
           id="path6565"
           inkscape:connector-curvature="0" />
        <path
           clip-path="url(#p46eca1ea74)"
           d="m 25.918182,67.80017 121.745458,0"
           style="fill:none;stroke:#b3cde3;stroke-width:0.40000001;stroke-linecap:butt;stroke-linejoin:round;stroke-miterlimit:4;stroke-dasharray:none"
           id="path6567"
           inkscape:connector-curvature="0" />
        <path
           clip-path="url(#p46eca1ea74)"
           d="m 25.918182,57.654716 121.745458,0"
           style="fill:none;stroke:#b3cde3;stroke-width:0.40000001;stroke-linecap:butt;stroke-linejoin:round;stroke-miterlimit:4;stroke-dasharray:none"
           id="path6569"
           inkscape:connector-curvature="0" />
        <path
           clip-path="url(#p46eca1ea74)"
           d="m 25.918182,47.509261 121.745458,0"
           style="fill:none;stroke:#b3cde3;stroke-width:0.40000001;stroke-linecap:butt;stroke-linejoin:round;stroke-miterlimit:4;stroke-dasharray:none"
           id="path6571"
           inkscape:connector-curvature="0" />
        <path
           clip-path="url(#p46eca1ea74)"
           d="m 25.918182,37.363807 121.745458,0"
           style="fill:none;stroke:#b3cde3;stroke-width:0.40000001;stroke-linecap:butt;stroke-linejoin:round;stroke-miterlimit:4;stroke-dasharray:none"
           id="path6573"
           inkscape:connector-curvature="0" />
      </g>
      <g
         id="LineCollection_2"
         style="stroke-linecap:butt;stroke-linejoin:round">
        <path
           clip-path="url(#p46eca1ea74)"
           d="m 25.918182,159.10926 0,-121.745453"
           style="fill:none;stroke:#b3cde3;stroke-width:0.40000001;stroke-linecap:butt;stroke-linejoin:round;stroke-miterlimit:4;stroke-dasharray:none"
           id="path6576"
           inkscape:connector-curvature="0" />
        <path
           clip-path="url(#p46eca1ea74)"
           d="m 36.063636,159.10926 0,-121.745453"
           style="fill:none;stroke:#b3cde3;stroke-width:0.40000001;stroke-linecap:butt;stroke-linejoin:round;stroke-miterlimit:4;stroke-dasharray:none"
           id="path6578"
           inkscape:connector-curvature="0" />
        <path
           clip-path="url(#p46eca1ea74)"
           d="m 46.209091,159.10926 0,-121.745453"
           style="fill:none;stroke:#b3cde3;stroke-width:0.40000001;stroke-linecap:butt;stroke-linejoin:round;stroke-miterlimit:4;stroke-dasharray:none"
           id="path6580"
           inkscape:connector-curvature="0" />
        <path
           clip-path="url(#p46eca1ea74)"
           d="m 56.354545,159.10926 0,-121.745453"
           style="fill:none;stroke:#b3cde3;stroke-width:0.40000001;stroke-linecap:butt;stroke-linejoin:round;stroke-miterlimit:4;stroke-dasharray:none"
           id="path6582"
           inkscape:connector-curvature="0" />
        <path
           clip-path="url(#p46eca1ea74)"
           d="m 66.5,159.10926 0,-121.745453"
           style="fill:none;stroke:#b3cde3;stroke-width:0.40000001;stroke-linecap:butt;stroke-linejoin:round;stroke-miterlimit:4;stroke-dasharray:none"
           id="path6584"
           inkscape:connector-curvature="0" />
        <path
           clip-path="url(#p46eca1ea74)"
           d="m 76.645455,159.10926 0,-121.745453"
           style="fill:none;stroke:#b3cde3;stroke-width:0.40000001;stroke-linecap:butt;stroke-linejoin:round;stroke-miterlimit:4;stroke-dasharray:none"
           id="path6586"
           inkscape:connector-curvature="0" />
        <path
           clip-path="url(#p46eca1ea74)"
           d="m 86.790909,159.10926 0,-121.745453"
           style="fill:none;stroke:#b3cde3;stroke-width:0.40000001;stroke-linecap:butt;stroke-linejoin:round;stroke-miterlimit:4;stroke-dasharray:none"
           id="path6588"
           inkscape:connector-curvature="0" />
        <path
           clip-path="url(#p46eca1ea74)"
           d="m 96.936364,159.10926 0,-121.745453"
           style="fill:none;stroke:#b3cde3;stroke-width:0.40000001;stroke-linecap:butt;stroke-linejoin:round;stroke-miterlimit:4;stroke-dasharray:none"
           id="path6590"
           inkscape:connector-curvature="0" />
        <path
           clip-path="url(#p46eca1ea74)"
           d="m 107.08182,159.10926 0,-121.745453"
           style="fill:none;stroke:#b3cde3;stroke-width:0.40000001;stroke-linecap:butt;stroke-linejoin:round;stroke-miterlimit:4;stroke-dasharray:none"
           id="path6592"
           inkscape:connector-curvature="0" />
        <path
           clip-path="url(#p46eca1ea74)"
           d="m 117.22727,159.10926 0,-121.745453"
           style="fill:none;stroke:#b3cde3;stroke-width:0.40000001;stroke-linecap:butt;stroke-linejoin:round;stroke-miterlimit:4;stroke-dasharray:none"
           id="path6594"
           inkscape:connector-curvature="0" />
        <path
           clip-path="url(#p46eca1ea74)"
           d="m 127.37273,159.10926 0,-121.745453"
           style="fill:none;stroke:#b3cde3;stroke-width:0.40000001;stroke-linecap:butt;stroke-linejoin:round;stroke-miterlimit:4;stroke-dasharray:none"
           id="path6596"
           inkscape:connector-curvature="0" />
        <path
           clip-path="url(#p46eca1ea74)"
           d="m 137.51818,159.10926 0,-121.745453"
           style="fill:none;stroke:#b3cde3;stroke-width:0.40000001;stroke-linecap:butt;stroke-linejoin:round;stroke-miterlimit:4;stroke-dasharray:none"
           id="path6598"
           inkscape:connector-curvature="0" />
        <path
           clip-path="url(#p46eca1ea74)"
           d="m 147.66364,159.10926 0,-121.745453"
           style="fill:none;stroke:#b3cde3;stroke-width:0.40000001;stroke-linecap:butt;stroke-linejoin:round;stroke-miterlimit:4;stroke-dasharray:none"
           id="path6600"
           inkscape:connector-curvature="0" />
      </g>
      <g
         id="line2d_1"
         style="stroke-linecap:butt;stroke-linejoin:round">
        <path
           clip-path="url(#p46eca1ea74)"
           d="m 147.66364,98.236534 -0.13034,-3.981267 -0.39044,-3.964218 -0.64888,-3.930195 -0.90453,-3.879341 -1.15632,-3.811876 -1.40315,-3.728087 -1.64398,-3.628335 -1.87776,-3.513045 -2.10351,-3.382711 -2.32024,-3.237893 -2.52704,-3.07921 -2.72302,-2.90734 -2.90734,-2.723021 -3.07921,-2.527042 -3.2379,-2.320242 -3.38271,-2.103505 -3.51304,-1.877762 -3.62834,-1.643977 -3.72808,-1.403152 -3.81188,-1.15632 -3.879341,-0.904536 -3.930195,-0.648878 -3.964218,-0.390441 -3.981267,-0.130333 -3.981267,0.130333 -3.964218,0.390441 -3.930195,0.648878 -3.879341,0.904536 -3.811876,1.15632 -3.728087,1.403152 -3.628335,1.643977 -3.513045,1.877762 -3.382711,2.103505 -3.237893,2.320242 -3.07921,2.527042 -2.90734,2.723021 -2.723021,2.90734 -2.527042,3.07921 -2.320242,3.237893 -2.103505,3.382711 -1.877762,3.513045 -1.643977,3.628335 -1.403152,3.728087 -1.15632,3.811876 -0.904536,3.879341 -0.648878,3.930195 -0.390441,3.964218 -0.130333,3.981267 0.130333,3.981266 0.390441,3.96422 0.648878,3.93019 0.904536,3.87935 1.15632,3.81187 1.403152,3.72809 1.643977,3.62833 1.877762,3.51305 2.103505,3.38271 2.320242,3.23789 2.527042,3.07921 2.723021,2.90734 2.90734,2.72302 3.07921,2.52705 3.237893,2.32024 3.382711,2.1035 3.513045,1.87776 3.628335,1.64398 3.728087,1.40315 3.811876,1.15632 3.879341,0.90454 3.930195,0.64888 3.964218,0.39044 3.981267,0.13033 3.981267,-0.13033 3.964218,-0.39044 3.930195,-0.64888 3.879341,-0.90454 3.81188,-1.15632 3.72808,-1.40315 3.62834,-1.64398 3.51304,-1.87776 3.38271,-2.1035 3.2379,-2.32024 3.07921,-2.52705 2.90734,-2.72302 2.72302,-2.90734 2.52704,-3.07921 2.32024,-3.23789 2.10351,-3.38271 1.87776,-3.51305 1.64398,-3.62833 1.40315,-3.72809 1.15632,-3.81187 0.90453,-3.87935 0.64888,-3.93019 0.39044,-3.96422 0.13034,-3.981266 0,0"
           style="fill:none;stroke:#ffffff;stroke-width:0.80000001;stroke-linecap:square;stroke-linejoin:round;stroke-miterlimit:4;stroke-dasharray:none"
           id="path6603"
           inkscape:connector-curvature="0" />
      </g>
      <g
         id="text_1"
         style="stroke-linecap:butt;stroke-linejoin:round">
        <!-- Hilbert–Schmidt -->
        <defs
           id="defs6606">
          <path
             d="m 69.75,0 -15.09375,0 0,31.25 -31.953125,0 0,-31.25 -15.109375,0 0,72.546875 15.109375,0 0,-30.796875 31.953125,0 0,30.796875 15.09375,0 z"
             id="Lato-Heavy-48"
             inkscape:connector-curvature="0"
             style="stroke-linecap:butt;stroke-linejoin:round" />
          <path
             d="M 19.90625,51.546875 19.90625,0 6.09375,0 l 0,51.546875 z m 1.640625,14.65625 q 0,-1.75 -0.703125,-3.25 -0.6875,-1.5 -1.875,-2.65625 -1.171875,-1.140625 -2.75,-1.796875 -1.5625,-0.65625 -3.375,-0.65625 -1.6875,0 -3.21875,0.65625 -1.53125,0.65625 -2.6875,1.796875 -1.140625,1.15625 -1.8125,2.65625 -0.671875,1.5 -0.671875,3.25 0,1.75 0.671875,3.265625 0.671875,1.53125 1.8125,2.671875 1.15625,1.15625 2.6875,1.796875 1.53125,0.65625 3.21875,0.65625 1.8125,0 3.375,-0.65625 1.578125,-0.640625 2.75,-1.796875 1.1875,-1.140625 1.875,-2.671875 0.703125,-1.515625 0.703125,-3.265625"
             id="Lato-Heavy-69"
             inkscape:connector-curvature="0"
             style="stroke-linecap:butt;stroke-linejoin:round" />
          <path
             d="M 19.59375,74.546875 19.59375,0 5.796875,0 l 0,74.546875 z"
             id="Lato-Heavy-6c"
             inkscape:connector-curvature="0"
             style="stroke-linecap:butt;stroke-linejoin:round" />
          <path
             d="m 5.703125,0 0,74.546875 13.796875,0 0,-28.953125 q 3.046875,3.0625 6.71875,4.90625 3.6875,1.84375 8.328125,1.84375 4.453125,0 8.03125,-1.78125 3.578125,-1.765625 6.09375,-5.0625 2.53125,-3.296875 3.90625,-7.984375 1.375,-4.671875 1.375,-10.46875 0,-6.25 -1.578125,-11.375 -1.578125,-5.125 -4.484375,-8.78125 Q 45,3.25 40.96875,1.25 q -4.015625,-2 -8.96875,-2 -2.40625,0 -4.3125,0.484375 -1.890625,0.46875 -3.5,1.3125 Q 22.59375,1.90625 21.25,3.078125 19.90625,4.25 18.703125,5.703125 L 18.15625,2.59375 Q 17.796875,1.15625 17,0.578125 16.203125,0 14.84375,0 Z M 29.75,41.796875 q -3.25,0 -5.625,-1.453125 -2.375,-1.4375 -4.625,-4.140625 l 0,-22.609375 q 1.953125,-2.25 4.21875,-3.15625 Q 26,9.546875 28.453125,9.546875 q 2.546875,0 4.625,0.921875 2.078125,0.9375 3.578125,2.953125 1.5,2.03125 2.296875,5.28125 0.796875,3.25 0.796875,7.84375 0,4.109375 -0.65625,6.984375 -0.640625,2.875 -1.921875,4.71875 -1.265625,1.84375 -3.125,2.6875 -1.84375,0.859375 -4.296875,0.859375"
             id="Lato-Heavy-62"
             inkscape:connector-curvature="0"
             style="stroke-linecap:butt;stroke-linejoin:round" />
          <path
             d="m 28.046875,52.34375 q 4.953125,0 9.125,-1.578125 4.171875,-1.5625 7.203125,-4.5625 3.03125,-3 4.703125,-7.375 1.671875,-4.375 1.671875,-9.984375 0,-1.546875 -0.15625,-2.546875 -0.140625,-1 -0.5,-1.609375 Q 49.75,24.09375 49.140625,23.875 48.546875,23.65625 47.59375,23.65625 l -30.9375,0 q 0.640625,-7.25 4.109375,-10.609375 3.484375,-3.34375 9.140625,-3.34375 2.84375,0 4.921875,0.671875 2.078125,0.671875 3.640625,1.5 1.578125,0.828125 2.84375,1.5 1.28125,0.671875 2.53125,0.671875 1.609375,0 2.5,-1.203125 l 4,-5 Q 48.15625,5.296875 45.5,3.625 42.84375,1.953125 40,0.96875 37.15625,0 34.25,-0.375 31.34375,-0.75 28.65625,-0.75 q -5.40625,0 -10.078125,1.765625 -4.671875,1.78125 -8.15625,5.25 -3.46875,3.484375 -5.46875,8.625 -2,5.15625 -2,11.953125 0,5.25 1.71875,9.90625 1.734375,4.65625 4.984375,8.09375 3.25,3.453125 7.890625,5.46875 4.65625,2.03125 10.5,2.03125 m 0.25,-9.6875 q -4.953125,0 -7.75,-2.828125 Q 17.75,37 16.90625,31.84375 l 21.5,0 q 0,2.15625 -0.578125,4.109375 Q 37.25,37.90625 36,39.40625 q -1.25,1.5 -3.15625,2.375 -1.890625,0.875 -4.546875,0.875"
             id="Lato-Heavy-65"
             inkscape:connector-curvature="0"
             style="stroke-linecap:butt;stroke-linejoin:round" />
          <path
             d="m 5.703125,0 0,51.546875 8.140625,0 q 2.109375,0 2.90625,-0.75 0.796875,-0.75 1.15625,-2.59375 l 0.6875,-5.15625 q 2.453125,4.40625 5.671875,6.953125 3.234375,2.546875 7.53125,2.546875 3.5,0 5.703125,-1.640625 L 36.59375,40.703125 q -0.25,-1 -0.78125,-1.375 -0.515625,-0.375 -1.40625,-0.375 -0.8125,0 -2.3125,0.21875 -1.5,0.234375 -2.796875,0.234375 -3.796875,0 -6.03125,-2.078125 Q 21.046875,35.25 19.5,31.546875 L 19.5,0 Z"
             id="Lato-Heavy-72"
             inkscape:connector-curvature="0"
             style="stroke-linecap:butt;stroke-linejoin:round" />
          <path
             d="m 23.5,-0.796875 q -3.5,0 -6.203125,1.015625 Q 14.59375,1.25 12.75,3.140625 10.90625,5.046875 9.953125,7.75 9,10.453125 9,13.84375 l 0,27.8125 -4.84375,0 q -1.109375,0 -1.890625,0.6875 Q 1.5,43.046875 1.5,44.453125 l 0,5.390625 8.25,1.5 2.796875,13.359375 q 0.546875,2.25 3.046875,2.25 l 7.203125,0 0,-15.703125 13.296875,0 0,-9.59375 -13.296875,0 0,-26.90625 q 0,-2.15625 1.015625,-3.40625 1.03125,-1.25 2.9375,-1.25 1,0 1.703125,0.21875 0.703125,0.234375 1.203125,0.5 0.5,0.28125 0.921875,0.5 0.421875,0.234375 0.875,0.234375 0.59375,0 0.984375,-0.28125 Q 32.84375,11 33.25,10.34375 L 37.40625,3.75 Q 34.546875,1.5 30.9375,0.34375 27.34375,-0.796875 23.5,-0.796875"
             id="Lato-Heavy-74"
             inkscape:connector-curvature="0"
             style="stroke-linecap:butt;stroke-linejoin:round" />
          <path
             d="m 8.65625,34.953125 40.6875,0 0,-9.609375 -40.6875,0 z"
             id="Lato-Heavy-2013"
             inkscape:connector-curvature="0"
             style="stroke-linecap:butt;stroke-linejoin:round" />
          <path
             d="M 46.90625,58.65625 Q 46.203125,57.5 45.46875,56.96875 44.75,56.453125 43.59375,56.453125 q -1.09375,0 -2.375,0.765625 Q 39.953125,58 38.25,58.890625 q -1.703125,0.90625 -3.90625,1.671875 -2.1875,0.78125 -5.140625,0.78125 -5.203125,0 -7.8125,-2.328125 -2.59375,-2.3125 -2.59375,-6.0625 0,-2.40625 1.421875,-3.984375 1.4375,-1.5625 3.75,-2.71875 2.328125,-1.15625 5.28125,-2.0625 2.953125,-0.890625 6.046875,-1.96875 3.109375,-1.0625 6.046875,-2.515625 2.953125,-1.453125 5.28125,-3.65625 2.328125,-2.203125 3.75,-5.375 Q 51.796875,27.5 51.796875,22.953125 51.796875,18 50.0625,13.671875 48.34375,9.34375 45.09375,6.125 41.84375,2.90625 37.0625,1.046875 32.296875,-0.796875 26.25,-0.796875 q -3.453125,0 -6.875,0.703125 -3.421875,0.6875 -6.609375,1.9375 -3.171875,1.25 -5.96875,3 Q 4,6.59375 1.90625,8.75 l 4.390625,7.09375 q 0.546875,0.8125 1.453125,1.328125 0.90625,0.53125 1.90625,0.53125 1.34375,0 2.84375,-1 1.5,-1 3.453125,-2.203125 1.953125,-1.203125 4.515625,-2.203125 2.578125,-1 6.1875,-1 5.25,0 8.125,2.390625 2.875,2.40625 2.875,7.15625 0,2.75 -1.4375,4.453125 Q 34.796875,27 32.5,28.140625 q -2.296875,1.15625 -5.25,1.984375 -2.953125,0.828125 -6.0625,1.828125 -3.09375,1 -6.046875,2.390625 -2.9375,1.40625 -5.25,3.703125 Q 7.59375,40.34375 6.171875,43.75 4.75,47.15625 4.75,52.203125 q 0,4.046875 1.59375,7.84375 1.609375,3.796875 4.703125,6.75 3.109375,2.953125 7.625,4.75 4.53125,1.796875 10.375,1.796875 6.546875,0 12.125,-2.03125 Q 46.75,69.296875 50.59375,65.703125 Z"
             id="Lato-Heavy-53"
             inkscape:connector-curvature="0"
             style="stroke-linecap:butt;stroke-linejoin:round" />
          <path
             d="M 43.09375,40.046875 Q 42.5,39.25 41.890625,38.828125 q -0.59375,-0.421875 -1.6875,-0.421875 -1,0 -1.9375,0.5625 -0.921875,0.578125 -2.125,1.25 -1.1875,0.6875 -2.84375,1.25 -1.640625,0.578125 -4.09375,0.578125 -3.109375,0 -5.390625,-1.125 -2.265625,-1.125 -3.765625,-3.234375 -1.5,-2.09375 -2.234375,-5.09375 -0.71875,-3 -0.71875,-6.75 0,-7.890625 3.171875,-12.09375 3.1875,-4.203125 8.6875,-4.203125 1.890625,0 3.265625,0.328125 1.375,0.328125 2.40625,0.828125 1.03125,0.5 1.78125,1.09375 0.75,0.609375 1.421875,1.109375 0.671875,0.5 1.34375,0.8125 0.671875,0.328125 1.53125,0.328125 1.59375,0 2.5,-1.203125 l 3.953125,-5 Q 44.953125,5.296875 42.453125,3.625 q -2.5,-1.671875 -5.1875,-2.65625 Q 34.59375,0 31.84375,-0.375 q -2.75,-0.375 -5.4375,-0.375 -4.75,0 -9,1.765625 -4.25,1.78125 -7.453125,5.171875 Q 6.75,9.59375 4.875,14.546875 3,19.5 3,25.84375 3,31.5 4.640625,36.34375 6.296875,41.203125 9.5,44.75 q 3.203125,3.546875 7.921875,5.5625 4.734375,2.03125 10.921875,2.03125 5.90625,0 10.359375,-1.90625 4.453125,-1.890625 8,-5.484375 z"
             id="Lato-Heavy-63"
             inkscape:connector-curvature="0"
             style="stroke-linecap:butt;stroke-linejoin:round" />
          <path
             d="m 5.703125,0 0,74.546875 13.796875,0 0,-28.09375 q 2.90625,2.640625 6.34375,4.265625 3.453125,1.625 8.203125,1.625 4.203125,0 7.453125,-1.453125 3.25,-1.4375 5.46875,-4.046875 2.234375,-2.59375 3.359375,-6.203125 1.125,-3.59375 1.125,-7.890625 l 0,-32.75 -13.75,0 0,32.75 q 0,4.296875 -2,6.671875 -2,2.375 -5.90625,2.375 -2.953125,0 -5.484375,-1.28125 Q 21.796875,39.25 19.5,37.046875 L 19.5,0 Z"
             id="Lato-Heavy-68"
             inkscape:connector-curvature="0"
             style="stroke-linecap:butt;stroke-linejoin:round" />
          <path
             d="m 5.703125,0 0,51.546875 8.5,0 q 2.59375,0 3.453125,-2.390625 l 0.796875,-3.359375 q 1.34375,1.40625 2.765625,2.59375 1.4375,1.203125 3.078125,2.078125 1.65625,0.875 3.578125,1.375 1.921875,0.5 4.171875,0.5 4.75,0 7.84375,-2.53125 Q 43,47.296875 44.59375,43.09375 q 1.25,2.453125 3.078125,4.21875 1.828125,1.78125 4,2.875 2.171875,1.109375 4.59375,1.625 2.4375,0.53125 4.890625,0.53125 4.34375,0 7.6875,-1.296875 Q 72.203125,49.75 74.46875,47.21875 76.75,44.703125 77.953125,41.046875 79.15625,37.40625 79.15625,32.75 l 0,-32.75 -13.8125,0 0,32.75 q 0,9.046875 -7.75,9.046875 -1.75,0 -3.21875,-0.578125 -1.46875,-0.5625 -2.59375,-1.71875 -1.125,-1.15625 -1.75,-2.859375 -0.625,-1.6875 -0.625,-3.890625 l 0,-32.75 -13.8125,0 0,32.75 q 0,4.90625 -1.921875,6.96875 Q 31.75,41.796875 28,41.796875 q -2.40625,0 -4.53125,-1.125 -2.125,-1.125 -3.96875,-3.125 L 19.5,0 Z"
             id="Lato-Heavy-6d"
             inkscape:connector-curvature="0"
             style="stroke-linecap:butt;stroke-linejoin:round" />
          <path
             d="m 42.84375,0 q -2.640625,0 -3.390625,2.40625 l -1.15625,4.5 Q 35.203125,3.5 31.265625,1.375 27.34375,-0.75 22,-0.75 17.84375,-0.75 14.390625,1 10.953125,2.75 8.421875,6.125 5.90625,9.5 4.5,14.390625 3.09375,19.296875 3.09375,25.59375 q 0,5.75 1.578125,10.703125 Q 6.25,41.25 9.140625,44.84375 q 2.90625,3.609375 7,5.65625 4.109375,2.046875 9.109375,2.046875 4.203125,0 7.078125,-1.25 2.875,-1.25 5.21875,-3.390625 l 0,26.640625 13.796875,0 L 51.34375,0 Z M 26.75,9.953125 q 3.65625,0 6.125,1.421875 2.46875,1.421875 4.671875,4.125 l 0,22.65625 q -1.953125,2.25 -4.234375,3.140625 -2.265625,0.90625 -4.8125,0.90625 -2.5,0 -4.546875,-0.953125 -2.046875,-0.953125 -3.53125,-2.984375 -1.46875,-2.015625 -2.28125,-5.171875 -0.796875,-3.140625 -0.796875,-7.5 0,-4.296875 0.65625,-7.296875 0.65625,-3 1.875,-4.859375 1.21875,-1.84375 2.96875,-2.671875 1.75,-0.8125 3.90625,-0.8125"
             id="Lato-Heavy-64"
             inkscape:connector-curvature="0"
             style="stroke-linecap:butt;stroke-linejoin:round" />
        </defs>
        <g
           style="fill:#ffffff;stroke-linecap:butt;stroke-linejoin:round"
           transform="matrix(0.12,0,0,-0.12,42.494034,16.145625)"
           id="g6621">
          <use
             xlink:href="#Lato-Heavy-48"
             id="use6623"
             style="stroke-linecap:butt;stroke-linejoin:round"
             x="0"
             y="0"
             width="100%"
             height="100%" />
          <use
             x="77.350006"
             xlink:href="#Lato-Heavy-69"
             id="use6625"
             style="stroke-linecap:butt;stroke-linejoin:round"
             y="0"
             width="100%"
             height="100%" />
          <use
             x="103.35001"
             xlink:href="#Lato-Heavy-6c"
             id="use6627"
             style="stroke-linecap:butt;stroke-linejoin:round"
             y="0"
             width="100%"
             height="100%" />
          <use
             x="128.75"
             xlink:href="#Lato-Heavy-62"
             id="use6629"
             style="stroke-linecap:butt;stroke-linejoin:round"
             y="0"
             width="100%"
             height="100%" />
          <use
             x="185.85001"
             xlink:href="#Lato-Heavy-65"
             id="use6631"
             style="stroke-linecap:butt;stroke-linejoin:round"
             y="0"
             width="100%"
             height="100%" />
          <use
             x="239.45001"
             xlink:href="#Lato-Heavy-72"
             id="use6633"
             style="stroke-linecap:butt;stroke-linejoin:round"
             y="0"
             width="100%"
             height="100%" />
          <use
             x="277.14999"
             xlink:href="#Lato-Heavy-74"
             id="use6635"
             style="stroke-linecap:butt;stroke-linejoin:round"
             y="0"
             width="100%"
             height="100%" />
          <use
             x="314.89999"
             xlink:href="#Lato-Heavy-2013"
             id="use6637"
             style="stroke-linecap:butt;stroke-linejoin:round"
             y="0"
             width="100%"
             height="100%" />
          <use
             x="372.89999"
             xlink:href="#Lato-Heavy-53"
             id="use6639"
             style="stroke-linecap:butt;stroke-linejoin:round"
             y="0"
             width="100%"
             height="100%" />
          <use
             x="428"
             xlink:href="#Lato-Heavy-63"
             id="use6641"
             style="stroke-linecap:butt;stroke-linejoin:round"
             y="0"
             width="100%"
             height="100%" />
          <use
             x="476.40002"
             xlink:href="#Lato-Heavy-68"
             id="use6643"
             style="stroke-linecap:butt;stroke-linejoin:round"
             y="0"
             width="100%"
             height="100%" />
          <use
             x="533.10004"
             xlink:href="#Lato-Heavy-6d"
             id="use6645"
             style="stroke-linecap:butt;stroke-linejoin:round"
             y="0"
             width="100%"
             height="100%" />
          <use
             x="617.45007"
             xlink:href="#Lato-Heavy-69"
             id="use6647"
             style="stroke-linecap:butt;stroke-linejoin:round"
             y="0"
             width="100%"
             height="100%" />
          <use
             x="643.45007"
             xlink:href="#Lato-Heavy-64"
             id="use6649"
             style="stroke-linecap:butt;stroke-linejoin:round"
             y="0"
             width="100%"
             height="100%" />
          <use
             x="700.55005"
             xlink:href="#Lato-Heavy-74"
             id="use6651"
             style="stroke-linecap:butt;stroke-linejoin:round"
             y="0"
             width="100%"
             height="100%" />
        </g>
      </g>
    </g>
  </g>
  <defs
     id="defs6755">
    <clipPath
       id="p46eca1ea74"
       style="stroke-linecap:butt;stroke-linejoin:round">
      <rect
         height="152.18182"
         width="152.18182"
         x="10.7"
         y="22.145624"
         id="rect6758"
         style="stroke-linecap:butt;stroke-linejoin:round" />
    </clipPath>
    <clipPath
       id="p81a6b5b000"
       style="stroke-linecap:butt;stroke-linejoin:round">
      <rect
         height="152.18182"
         width="152.18182"
         x="193.31818"
         y="22.145624"
         id="rect6761"
         style="stroke-linecap:butt;stroke-linejoin:round" />
    </clipPath>
  </defs>
</svg>
