<?xml version="1.0" encoding="UTF-8" standalone="no"?>
<!-- Created with Inkscape (http://www.inkscape.org/) -->

<svg
   xmlns:dc="http://purl.org/dc/elements/1.1/"
   xmlns:cc="http://creativecommons.org/ns#"
   xmlns:rdf="http://www.w3.org/1999/02/22-rdf-syntax-ns#"
   xmlns:svg="http://www.w3.org/2000/svg"
   xmlns="http://www.w3.org/2000/svg"
   xmlns:sodipodi="http://sodipodi.sourceforge.net/DTD/sodipodi-0.dtd"
   xmlns:inkscape="http://www.inkscape.org/namespaces/inkscape"
   width="569.99994"
   height="340.15997"
   viewBox="0 0 569.99992 340.15999"
   id="svg2"
   version="1.1"
   inkscape:version="0.91 r13725"
   sodipodi:docname="sharp-tensor-diagram.svg">
  <defs
     id="defs4">
    <marker
       inkscape:stockid="Arrow1Mend"
       orient="auto"
       refY="0"
       refX="0"
       id="Arrow1Mend"
       style="overflow:visible"
       inkscape:isstock="true">
      <path
         id="path4301"
         d="M 0,0 5,-5 -12.5,0 5,5 0,0 Z"
         style="fill:#ffffff;fill-opacity:1;fill-rule:evenodd;stroke:#ffffff;stroke-width:1pt;stroke-opacity:1"
         transform="matrix(-0.4,0,0,-0.4,-4,0)"
         inkscape:connector-curvature="0" />
    </marker>
    <marker
       inkscape:stockid="Arrow1Mstart"
       orient="auto"
       refY="0"
       refX="0"
       id="Arrow1Mstart"
       style="overflow:visible"
       inkscape:isstock="true">
      <path
         id="path4298"
         d="M 0,0 5,-5 -12.5,0 5,5 0,0 Z"
         style="fill:#ffffff;fill-opacity:1;fill-rule:evenodd;stroke:#ffffff;stroke-width:1pt;stroke-opacity:1"
         transform="matrix(0.4,0,0,0.4,4,0)"
         inkscape:connector-curvature="0" />
    </marker>
  </defs>
  <sodipodi:namedview
     id="base"
     pagecolor="#7b7b7b"
     bordercolor="#666666"
     borderopacity="1.0"
     inkscape:pageopacity="0"
     inkscape:pageshadow="2"
     inkscape:zoom="1.4"
     inkscape:cx="166.94529"
     inkscape:cy="132.69325"
     inkscape:document-units="px"
     inkscape:current-layer="layer1"
     showgrid="true"
     units="px"
     fit-margin-top="9"
     fit-margin-right="9"
     fit-margin-bottom="9"
     fit-margin-left="9"
     inkscape:window-width="1918"
     inkscape:window-height="1078"
     inkscape:window-x="1920"
     inkscape:window-y="0"
     inkscape:window-maximized="0"
     borderlayer="false">
    <inkscape:grid
       type="xygrid"
       id="grid4136"
       originx="-7.260224e-06"
       originy="-59.840011" />
  </sodipodi:namedview>
  <metadata
     id="metadata7">
    <rdf:RDF>
      <cc:Work
         rdf:about="">
        <dc:format>image/svg+xml</dc:format>
        <dc:type
           rdf:resource="http://purl.org/dc/dcmitype/StillImage" />
        <dc:title></dc:title>
      </cc:Work>
    </rdf:RDF>
  </metadata>
  <g
     inkscape:label="Layer 1"
     inkscape:groupmode="layer"
     id="layer1"
     transform="translate(1.2021744e-5,-652.36206)">
    <rect
       style="color:#000000;clip-rule:nonzero;display:inline;overflow:visible;visibility:visible;opacity:1;isolation:auto;mix-blend-mode:normal;color-interpolation:sRGB;color-interpolation-filters:linearRGB;solid-color:#000000;solid-opacity:1;fill:none;fill-opacity:1;fill-rule:nonzero;stroke:#ffffff;stroke-width:2;stroke-linecap:butt;stroke-linejoin:miter;stroke-miterlimit:4;stroke-dasharray:none;stroke-dashoffset:0;stroke-opacity:1;color-rendering:auto;image-rendering:auto;shape-rendering:auto;text-rendering:auto;enable-background:accumulate"
       id="rect4142"
       width="60"
       height="60.000019"
       x="59.999985"
       y="692.36206" />
    <rect
       style="color:#000000;clip-rule:nonzero;display:inline;overflow:visible;visibility:visible;opacity:1;isolation:auto;mix-blend-mode:normal;color-interpolation:sRGB;color-interpolation-filters:linearRGB;solid-color:#000000;solid-opacity:1;fill:none;fill-opacity:1;fill-rule:nonzero;stroke:#ffffff;stroke-width:2;stroke-linecap:butt;stroke-linejoin:miter;stroke-miterlimit:4;stroke-dasharray:none;stroke-dashoffset:0;stroke-opacity:1;color-rendering:auto;image-rendering:auto;shape-rendering:auto;text-rendering:auto;enable-background:accumulate"
       id="rect4144"
       width="60"
       height="60.000019"
       x="59.999985"
       y="802.36206" />
    <rect
       style="color:#000000;clip-rule:nonzero;display:inline;overflow:visible;visibility:visible;opacity:1;isolation:auto;mix-blend-mode:normal;color-interpolation:sRGB;color-interpolation-filters:linearRGB;solid-color:#000000;solid-opacity:1;fill:none;fill-opacity:1;fill-rule:nonzero;stroke:#ffffff;stroke-width:2;stroke-linecap:butt;stroke-linejoin:miter;stroke-miterlimit:4;stroke-dasharray:6, 2;stroke-dashoffset:0;stroke-opacity:1;color-rendering:auto;image-rendering:auto;shape-rendering:auto;text-rendering:auto;enable-background:accumulate"
       id="rect4150"
       width="120"
       height="230.00002"
       x="29.999985"
       y="662.36206"
       ry="1.9453124e-05" />
    <path
       style="fill:none;fill-rule:evenodd;stroke:#ffffff;stroke-width:2;stroke-linecap:butt;stroke-linejoin:miter;stroke-miterlimit:4;stroke-dasharray:none;stroke-opacity:1"
       d="m 59.999985,722.36208 -50.0000003,0"
       id="path4152"
       inkscape:connector-curvature="0" />
    <path
       style="fill:none;fill-rule:evenodd;stroke:#ffffff;stroke-width:2;stroke-linecap:butt;stroke-linejoin:miter;stroke-miterlimit:4;stroke-dasharray:none;stroke-opacity:1"
       d="m 89.999985,752.36208 0,50"
       id="path4156"
       inkscape:connector-curvature="0" />
    <rect
       style="color:#000000;clip-rule:nonzero;display:inline;overflow:visible;visibility:visible;opacity:1;isolation:auto;mix-blend-mode:normal;color-interpolation:sRGB;color-interpolation-filters:linearRGB;solid-color:#000000;solid-opacity:1;fill:none;fill-opacity:1;fill-rule:nonzero;stroke:#ffffff;stroke-width:2;stroke-linecap:butt;stroke-linejoin:miter;stroke-miterlimit:4;stroke-dasharray:none;stroke-dashoffset:0;stroke-opacity:1;color-rendering:auto;image-rendering:auto;shape-rendering:auto;text-rendering:auto;enable-background:accumulate"
       id="rect4160"
       width="60"
       height="60"
       x="179.99998"
       y="802.36206" />
    <path
       style="fill:none;fill-rule:evenodd;stroke:#ffffff;stroke-width:2;stroke-linecap:butt;stroke-linejoin:miter;stroke-miterlimit:4;stroke-dasharray:none;stroke-opacity:1"
       d="m 119.99998,832.36208 60,0"
       id="path4162"
       inkscape:connector-curvature="0" />
    <path
       style="fill:none;fill-rule:evenodd;stroke:#ffffff;stroke-width:2;stroke-linecap:butt;stroke-linejoin:miter;stroke-miterlimit:4;stroke-dasharray:none;stroke-opacity:1"
       d="m 239.99998,832.36208 20,0 0,80 -249.9999953,0 0,-80 50.0000003,0"
       id="path4164"
       inkscape:connector-curvature="0" />
    <g
       style="font-style:normal;font-weight:normal;font-size:45px;line-height:125%;font-family:sans-serif;text-align:center;letter-spacing:0px;word-spacing:0px;text-anchor:middle;fill:#ffffff;fill-opacity:1;stroke:none;stroke-width:1px;stroke-linecap:butt;stroke-linejoin:miter;stroke-opacity:1"
       id="text4166">
      <path
         d="m 199.57159,852.36206 0,-32.2425 10.2825,0 q 2.97,0 5.1075,0.585 2.16,0.585 3.5325,1.665 1.395,1.08 2.0475,2.655 0.6525,1.5525 0.6525,3.51 0,1.1925 -0.3825,2.295 -0.36,1.1025 -1.1025,2.0475 -0.7425,0.945 -1.89,1.6875 -1.125,0.7425 -2.655,1.215 3.5325,0.6975 5.3325,2.5425 1.8,1.845 1.8,4.86 0,2.0475 -0.765,3.735 -0.7425,1.6875 -2.205,2.9025 -1.44,1.215 -3.555,1.89 -2.115,0.6525 -4.815,0.6525 l -11.385,0 z m 4.3425,-14.6925 0,11.2275 6.975,0 q 1.8675,0 3.2175,-0.4275 1.35,-0.4275 2.205,-1.1925 0.8775,-0.7875 1.2825,-1.845 0.405,-1.08 0.405,-2.3625 0,-2.4975 -1.7775,-3.9375 -1.7775,-1.4625 -5.3325,-1.4625 l -6.975,0 z m 0,-3.105 5.76,0 q 1.845,0 3.195,-0.405 1.3725,-0.405 2.25,-1.125 0.9,-0.72 1.3275,-1.7325 0.4275,-1.035 0.4275,-2.25 0,-2.8575 -1.71,-4.1625 -1.71,-1.3275 -5.31,-1.3275 l -5.94,0 0,11.0025 z"
         style="font-style:normal;font-variant:normal;font-weight:normal;font-stretch:normal;font-family:Lato;-inkscape-font-specification:Lato;fill:#ffffff;fill-opacity:1"
         id="path4772" />
    </g>
    <g
       style="font-style:normal;font-weight:normal;font-size:45px;line-height:125%;font-family:sans-serif;text-align:center;letter-spacing:0px;word-spacing:0px;text-anchor:middle;fill:#ffffff;fill-opacity:1;stroke:none;stroke-width:1px;stroke-linecap:butt;stroke-linejoin:miter;stroke-opacity:1"
       id="text4170">
      <path
         d="m 78.58352,838.90706 0,13.455 -4.3425,0 0,-32.2425 9.1125,0 q 3.06,0 5.2875,0.63 2.2275,0.6075 3.6675,1.7775 1.4625,1.17 2.16,2.835 0.6975,1.6425 0.6975,3.69 0,1.71 -0.54,3.195 -0.54,1.485 -1.575,2.6775 -1.0125,1.17 -2.4975,2.025 -1.4625,0.8325 -3.33,1.2375 0.855,0.54 1.44,1.3725 l 9.405,12.8025 -3.87,0 q -1.1925,0 -1.755,-0.9225 l -8.37,-11.52 q -0.3825,-0.54 -0.8325,-0.765 -0.4275,-0.2475 -1.35,-0.2475 l -3.3075,0 z m 0,-3.1725 4.59,0 q 1.89,0 3.33,-0.45 1.4625,-0.4725 2.43,-1.305 0.99,-0.855 1.485,-2.025 0.495,-1.17 0.495,-2.5875 0,-2.88 -1.89,-4.3425 -1.89,-1.4625 -5.67,-1.4625 l -4.77,0 0,12.1725 z"
         style="font-style:normal;font-variant:normal;font-weight:normal;font-stretch:normal;font-family:Lato;-inkscape-font-specification:Lato;fill:#ffffff;fill-opacity:1"
         id="path4762" />
      <path
         d="m 109.55379,814.50131 q 0,0.468 -0.32175,0.74588 -0.32175,0.27787 -0.702,0.27787 l -1.287,0 q -0.9945,0 -1.8135,0.30713 -0.80438,0.2925 -1.38938,0.80437 -0.57037,0.51188 -0.89212,1.21388 -0.32175,0.702 -0.32175,1.50637 0,1.37475 1.06762,2.12063 1.08225,0.74587 3.12975,0.74587 l 1.287,0 0,2.07675 -1.91587,0 q -1.09688,0 -1.90125,0.26325 -0.80438,0.26325 -1.33088,0.73125 -0.5265,0.468 -0.78975,1.12613 -0.24862,0.65812 -0.24862,1.4625 0,0.819 0.2925,1.41862 0.2925,0.59963 0.8775,1.06763 0.585,0.45337 1.43325,0.84825 0.86287,0.38025 2.00362,0.77512 0.95063,0.33638 1.56488,0.702 0.62887,0.351 0.97987,0.7605 0.36563,0.4095 0.51188,0.89213 0.14625,0.468 0.14625,1.02375 0,1.053 -0.33638,1.97437 -0.32175,0.936 -0.8775,1.85738 l -2.03287,-0.819 q 0.2925,-0.468 0.55575,-1.09688 0.26325,-0.61425 0.26325,-1.24312 0,-0.30713 -0.0878,-0.585 -0.0731,-0.27788 -0.32175,-0.5265 -0.234,-0.234 -0.67275,-0.45338 -0.42413,-0.21937 -1.1115,-0.42412 -1.12613,-0.32175 -2.17913,-0.78975 -1.03837,-0.468 -1.84275,-1.15538 -0.80437,-0.68737 -1.287,-1.65262 -0.467999,-0.97988 -0.467999,-2.34 0,-0.702 0.1755,-1.43325 0.1755,-0.73125 0.584999,-1.404 0.4095,-0.67275 1.06763,-1.2285 0.65812,-0.57038 1.60875,-0.936 -1.27238,-0.51188 -1.91588,-1.41863 -0.6435,-0.92137 -0.6435,-2.1645 0,-0.702 0.234,-1.31625 0.24863,-0.62887 0.65813,-1.14075 0.42412,-0.5265 0.97987,-0.936 0.57038,-0.42412 1.2285,-0.74587 -0.20475,0.0146 -0.42412,0.0146 -0.21938,0 -0.45338,0 l -1.90125,0 q -0.57037,0 -0.818999,-0.26325 -0.248625,-0.27787 -0.248625,-0.74587 l 0,-0.9945 9.886504,0 0,1.09687 z"
         style="font-style:normal;font-variant:normal;font-weight:normal;font-stretch:normal;font-size:64.99999762%;font-family:Lato;-inkscape-font-specification:Lato;baseline-shift:super;fill:#ffffff;fill-opacity:1"
         id="path4764" />
    </g>
    <g
       style="font-style:normal;font-weight:normal;font-size:45px;line-height:125%;font-family:sans-serif;text-align:center;letter-spacing:0px;word-spacing:0px;text-anchor:middle;fill:#ffffff;fill-opacity:1;stroke:none;stroke-width:1px;stroke-linecap:butt;stroke-linejoin:miter;stroke-opacity:1"
       id="text4176">
      <path
         d="m 81.132348,738.69456 13.95,0 0,3.6675 -18.2925,0 0,-32.2425 4.3425,0 0,28.575 z"
         style="font-style:normal;font-variant:normal;font-weight:normal;font-stretch:normal;font-family:Lato;-inkscape-font-specification:Lato;fill:#ffffff;fill-opacity:1"
         id="path4767" />
      <path
         d="m 107.00496,704.50131 q 0,0.468 -0.32175,0.74588 -0.32175,0.27787 -0.702,0.27787 l -1.287,0 q -0.9945,0 -1.8135,0.30713 -0.80438,0.2925 -1.38938,0.80437 -0.57037,0.51188 -0.89212,1.21388 -0.32175,0.702 -0.32175,1.50637 0,1.37475 1.06762,2.12063 1.08225,0.74587 3.12975,0.74587 l 1.287,0 0,2.07675 -1.91587,0 q -1.09688,0 -1.90125,0.26325 -0.80438,0.26325 -1.33088,0.73125 -0.5265,0.468 -0.789747,1.12613 -0.248625,0.65812 -0.248625,1.4625 0,0.819 0.2925,1.41862 0.292502,0.59963 0.877502,1.06763 0.585,0.45337 1.43325,0.84825 0.86287,0.38025 2.00362,0.77512 0.95063,0.33638 1.56488,0.702 0.62887,0.351 0.97987,0.7605 0.36563,0.4095 0.51188,0.89213 0.14625,0.468 0.14625,1.02375 0,1.053 -0.33638,1.97437 -0.32175,0.936 -0.8775,1.85738 l -2.03287,-0.819 q 0.2925,-0.468 0.55575,-1.09688 0.26325,-0.61425 0.26325,-1.24312 0,-0.30713 -0.0877,-0.585 -0.0731,-0.27788 -0.32175,-0.5265 -0.234,-0.234 -0.67275,-0.45338 -0.42413,-0.21937 -1.1115,-0.42412 -1.12613,-0.32175 -2.17913,-0.78975 -1.038372,-0.468 -1.842747,-1.15538 -0.804375,-0.68737 -1.287,-1.65262 -0.468,-0.97988 -0.468,-2.34 0,-0.702 0.1755,-1.43325 0.1755,-0.73125 0.585,-1.404 0.4095,-0.67275 1.067625,-1.2285 0.658125,-0.57038 1.608752,-0.936 -1.272377,-0.51188 -1.915877,-1.41863 -0.6435,-0.92137 -0.6435,-2.1645 0,-0.702 0.234,-1.31625 0.248625,-0.62887 0.658125,-1.14075 0.424125,-0.5265 0.979875,-0.936 0.570377,-0.42412 1.228497,-0.74587 -0.20475,0.0146 -0.42412,0.0146 -0.21938,0 -0.45338,0 l -1.901247,0 q -0.570375,0 -0.819,-0.26325 -0.248625,-0.27787 -0.248625,-0.74587 l 0,-0.9945 9.886502,0 0,1.09687 z"
         style="font-style:normal;font-variant:normal;font-weight:normal;font-stretch:normal;font-size:64.99999762%;font-family:Lato;-inkscape-font-specification:Lato;baseline-shift:super;fill:#ffffff;fill-opacity:1"
         id="path4769" />
    </g>
    <rect
       style="color:#000000;clip-rule:nonzero;display:inline;overflow:visible;visibility:visible;opacity:1;isolation:auto;mix-blend-mode:normal;color-interpolation:sRGB;color-interpolation-filters:linearRGB;solid-color:#000000;solid-opacity:1;fill:none;fill-opacity:1;fill-rule:nonzero;stroke:#ffffff;stroke-width:2;stroke-linecap:butt;stroke-linejoin:miter;stroke-miterlimit:4;stroke-dasharray:none;stroke-dashoffset:0;stroke-opacity:1;color-rendering:auto;image-rendering:auto;shape-rendering:auto;text-rendering:auto;enable-background:accumulate"
       id="rect4142-3"
       width="60"
       height="60.000019"
       x="360"
       y="692.36206" />
    <rect
       style="color:#000000;clip-rule:nonzero;display:inline;overflow:visible;visibility:visible;opacity:1;isolation:auto;mix-blend-mode:normal;color-interpolation:sRGB;color-interpolation-filters:linearRGB;solid-color:#000000;solid-opacity:1;fill:none;fill-opacity:1;fill-rule:nonzero;stroke:#ffffff;stroke-width:2;stroke-linecap:butt;stroke-linejoin:miter;stroke-miterlimit:4;stroke-dasharray:none;stroke-dashoffset:0;stroke-opacity:1;color-rendering:auto;image-rendering:auto;shape-rendering:auto;text-rendering:auto;enable-background:accumulate"
       id="rect4144-6"
       width="60"
       height="60.000019"
       x="360"
       y="802.36206" />
    <rect
       style="color:#000000;clip-rule:nonzero;display:inline;overflow:visible;visibility:visible;opacity:1;isolation:auto;mix-blend-mode:normal;color-interpolation:sRGB;color-interpolation-filters:linearRGB;solid-color:#000000;solid-opacity:1;fill:none;fill-opacity:1;fill-rule:nonzero;stroke:#ffffff;stroke-width:2;stroke-linecap:butt;stroke-linejoin:miter;stroke-miterlimit:4;stroke-dasharray:6, 2;stroke-dashoffset:0;stroke-opacity:1;color-rendering:auto;image-rendering:auto;shape-rendering:auto;text-rendering:auto;enable-background:accumulate"
       id="rect4150-7"
       width="120"
       height="230.00002"
       x="330"
       y="662.36206"
       ry="1.9453124e-05" />
    <path
       style="fill:none;fill-rule:evenodd;stroke:#ffffff;stroke-width:2;stroke-linecap:butt;stroke-linejoin:miter;stroke-miterlimit:4;stroke-dasharray:none;stroke-opacity:1"
       d="m 359.99999,722.3621 -50.00001,0"
       id="path4152-5"
       inkscape:connector-curvature="0" />
    <path
       style="fill:none;fill-rule:evenodd;stroke:#ffffff;stroke-width:2;stroke-linecap:butt;stroke-linejoin:miter;stroke-miterlimit:4;stroke-dasharray:none;stroke-opacity:1"
       d="m 389.99999,752.3621 0,50"
       id="path4156-3"
       inkscape:connector-curvature="0" />
    <rect
       style="color:#000000;clip-rule:nonzero;display:inline;overflow:visible;visibility:visible;opacity:1;isolation:auto;mix-blend-mode:normal;color-interpolation:sRGB;color-interpolation-filters:linearRGB;solid-color:#000000;solid-opacity:1;fill:none;fill-opacity:1;fill-rule:nonzero;stroke:#ffffff;stroke-width:2;stroke-linecap:butt;stroke-linejoin:miter;stroke-miterlimit:4;stroke-dasharray:none;stroke-dashoffset:0;stroke-opacity:1;color-rendering:auto;image-rendering:auto;shape-rendering:auto;text-rendering:auto;enable-background:accumulate"
       id="rect4160-5"
       width="60"
       height="60"
       x="480"
       y="802.36206" />
    <path
       style="fill:none;fill-rule:evenodd;stroke:#ffffff;stroke-width:2;stroke-linecap:butt;stroke-linejoin:miter;stroke-miterlimit:4;stroke-dasharray:none;stroke-opacity:1"
       d="m 539.99998,832.3621 20,0 0,80 -250,0 0,-80 50.00001,0"
       id="path4164-2"
       inkscape:connector-curvature="0" />
    <g
       style="font-style:normal;font-weight:normal;font-size:45px;line-height:125%;font-family:sans-serif;text-align:center;letter-spacing:0px;word-spacing:0px;text-anchor:middle;fill:#ffffff;fill-opacity:1;stroke:none;stroke-width:1px;stroke-linecap:butt;stroke-linejoin:miter;stroke-opacity:1"
       id="text4166-9">
      <path
         d="m 499.5716,852.36206 0,-32.2425 10.2825,0 q 2.97,0 5.1075,0.585 2.16,0.585 3.5325,1.665 1.395,1.08 2.0475,2.655 0.6525,1.5525 0.6525,3.51 0,1.1925 -0.3825,2.295 -0.36,1.1025 -1.1025,2.0475 -0.7425,0.945 -1.89,1.6875 -1.125,0.7425 -2.655,1.215 3.5325,0.6975 5.3325,2.5425 1.8,1.845 1.8,4.86 0,2.0475 -0.765,3.735 -0.7425,1.6875 -2.205,2.9025 -1.44,1.215 -3.555,1.89 -2.115,0.6525 -4.815,0.6525 l -11.385,0 z m 4.3425,-14.6925 0,11.2275 6.975,0 q 1.8675,0 3.2175,-0.4275 1.35,-0.4275 2.205,-1.1925 0.8775,-0.7875 1.2825,-1.845 0.405,-1.08 0.405,-2.3625 0,-2.4975 -1.7775,-3.9375 -1.7775,-1.4625 -5.3325,-1.4625 l -6.975,0 z m 0,-3.105 5.76,0 q 1.845,0 3.195,-0.405 1.3725,-0.405 2.25,-1.125 0.9,-0.72 1.3275,-1.7325 0.4275,-1.035 0.4275,-2.25 0,-2.8575 -1.71,-4.1625 -1.71,-1.3275 -5.31,-1.3275 l -5.94,0 0,11.0025 z"
         style="font-style:normal;font-variant:normal;font-weight:normal;font-stretch:normal;font-family:Lato;-inkscape-font-specification:Lato;fill:#ffffff;fill-opacity:1"
         id="path4797" />
    </g>
    <g
       style="font-style:normal;font-weight:normal;font-size:45px;line-height:125%;font-family:sans-serif;text-align:center;letter-spacing:0px;word-spacing:0px;text-anchor:middle;fill:#ffffff;fill-opacity:1;stroke:none;stroke-width:1px;stroke-linecap:butt;stroke-linejoin:miter;stroke-opacity:1"
       id="text4170-2">
      <path
         d="m 378.58354,838.90706 0,13.455 -4.3425,0 0,-32.2425 9.1125,0 q 3.06,0 5.2875,0.63 2.2275,0.6075 3.6675,1.7775 1.4625,1.17 2.16,2.835 0.6975,1.6425 0.6975,3.69 0,1.71 -0.54,3.195 -0.54,1.485 -1.575,2.6775 -1.0125,1.17 -2.4975,2.025 -1.4625,0.8325 -3.33,1.2375 0.855,0.54 1.44,1.3725 l 9.405,12.8025 -3.87,0 q -1.1925,0 -1.755,-0.9225 l -8.37,-11.52 q -0.3825,-0.54 -0.8325,-0.765 -0.4275,-0.2475 -1.35,-0.2475 l -3.3075,0 z m 0,-3.1725 4.59,0 q 1.89,0 3.33,-0.45 1.4625,-0.4725 2.43,-1.305 0.99,-0.855 1.485,-2.025 0.495,-1.17 0.495,-2.5875 0,-2.88 -1.89,-4.3425 -1.89,-1.4625 -5.67,-1.4625 l -4.77,0 0,12.1725 z"
         style="font-style:normal;font-variant:normal;font-weight:normal;font-stretch:normal;font-family:Lato;-inkscape-font-specification:Lato;fill:#ffffff;fill-opacity:1"
         id="path4783" />
      <path
         d="m 409.5538,814.50131 q 0,0.468 -0.32175,0.74588 -0.32175,0.27787 -0.702,0.27787 l -1.287,0 q -0.9945,0 -1.8135,0.30713 -0.80437,0.2925 -1.38937,0.80437 -0.57038,0.51188 -0.89213,1.21388 -0.32175,0.702 -0.32175,1.50637 0,1.37475 1.06763,2.12063 1.08225,0.74587 3.12975,0.74587 l 1.287,0 0,2.07675 -1.91588,0 q -1.09687,0 -1.90125,0.26325 -0.80437,0.26325 -1.33087,0.73125 -0.5265,0.468 -0.78975,1.12613 -0.24863,0.65812 -0.24863,1.4625 0,0.819 0.2925,1.41862 0.2925,0.59963 0.8775,1.06763 0.585,0.45337 1.43325,0.84825 0.86288,0.38025 2.00363,0.77512 0.95062,0.33638 1.56487,0.702 0.62888,0.351 0.97988,0.7605 0.36562,0.4095 0.51187,0.89213 0.14625,0.468 0.14625,1.02375 0,1.053 -0.33637,1.97437 -0.32175,0.936 -0.8775,1.85738 l -2.03288,-0.819 q 0.2925,-0.468 0.55575,-1.09688 0.26325,-0.61425 0.26325,-1.24312 0,-0.30713 -0.0878,-0.585 -0.0731,-0.27788 -0.32175,-0.5265 -0.234,-0.234 -0.67275,-0.45338 -0.42412,-0.21937 -1.1115,-0.42412 -1.12612,-0.32175 -2.17912,-0.78975 -1.03838,-0.468 -1.84275,-1.15538 -0.80438,-0.68737 -1.287,-1.65262 -0.468,-0.97988 -0.468,-2.34 0,-0.702 0.1755,-1.43325 0.1755,-0.73125 0.585,-1.404 0.4095,-0.67275 1.06762,-1.2285 0.65813,-0.57038 1.60875,-0.936 -1.27237,-0.51188 -1.91587,-1.41863 -0.6435,-0.92137 -0.6435,-2.1645 0,-0.702 0.234,-1.31625 0.24862,-0.62887 0.65812,-1.14075 0.42413,-0.5265 0.97988,-0.936 0.57037,-0.42412 1.2285,-0.74587 -0.20475,0.0146 -0.42413,0.0146 -0.21937,0 -0.45337,0 l -1.90125,0 q -0.57038,0 -0.819,-0.26325 -0.24863,-0.27787 -0.24863,-0.74587 l 0,-0.9945 9.8865,0 0,1.09687 z"
         style="font-style:normal;font-variant:normal;font-weight:normal;font-stretch:normal;font-size:64.99999762%;font-family:Lato;-inkscape-font-specification:Lato;baseline-shift:super;fill:#ffffff;fill-opacity:1"
         id="path4785" />
    </g>
    <g
       style="font-style:normal;font-weight:normal;font-size:45px;line-height:125%;font-family:sans-serif;text-align:center;letter-spacing:0px;word-spacing:0px;text-anchor:middle;fill:#ffffff;fill-opacity:1;stroke:none;stroke-width:1px;stroke-linecap:butt;stroke-linejoin:miter;stroke-opacity:1"
       id="text4176-9">
      <path
         d="m 381.13236,738.69456 13.95,0 0,3.6675 -18.2925,0 0,-32.2425 4.3425,0 0,28.575 z"
         style="font-style:normal;font-variant:normal;font-weight:normal;font-stretch:normal;font-family:Lato;-inkscape-font-specification:Lato;fill:#ffffff;fill-opacity:1"
         id="path4778" />
      <path
         d="m 407.00497,704.50131 q 0,0.468 -0.32175,0.74588 -0.32175,0.27787 -0.702,0.27787 l -1.287,0 q -0.9945,0 -1.8135,0.30713 -0.80437,0.2925 -1.38937,0.80437 -0.57038,0.51188 -0.89213,1.21388 -0.32175,0.702 -0.32175,1.50637 0,1.37475 1.06763,2.12063 1.08225,0.74587 3.12975,0.74587 l 1.287,0 0,2.07675 -1.91588,0 q -1.09687,0 -1.90125,0.26325 -0.80437,0.26325 -1.33087,0.73125 -0.5265,0.468 -0.78975,1.12613 -0.24863,0.65812 -0.24863,1.4625 0,0.819 0.2925,1.41862 0.2925,0.59963 0.8775,1.06763 0.585,0.45337 1.43325,0.84825 0.86288,0.38025 2.00363,0.77512 0.95062,0.33638 1.56487,0.702 0.62888,0.351 0.97988,0.7605 0.36562,0.4095 0.51187,0.89213 0.14625,0.468 0.14625,1.02375 0,1.053 -0.33637,1.97437 -0.32175,0.936 -0.8775,1.85738 l -2.03288,-0.819 q 0.2925,-0.468 0.55575,-1.09688 0.26325,-0.61425 0.26325,-1.24312 0,-0.30713 -0.0878,-0.585 -0.0731,-0.27788 -0.32175,-0.5265 -0.234,-0.234 -0.67275,-0.45338 -0.42412,-0.21937 -1.1115,-0.42412 -1.12612,-0.32175 -2.17912,-0.78975 -1.03838,-0.468 -1.84275,-1.15538 -0.80438,-0.68737 -1.287,-1.65262 -0.468,-0.97988 -0.468,-2.34 0,-0.702 0.1755,-1.43325 0.1755,-0.73125 0.585,-1.404 0.4095,-0.67275 1.06762,-1.2285 0.65813,-0.57038 1.60875,-0.936 -1.27237,-0.51188 -1.91587,-1.41863 -0.6435,-0.92137 -0.6435,-2.1645 0,-0.702 0.234,-1.31625 0.24862,-0.62887 0.65812,-1.14075 0.42413,-0.5265 0.97988,-0.936 0.57037,-0.42412 1.2285,-0.74587 -0.20475,0.0146 -0.42413,0.0146 -0.21937,0 -0.45337,0 l -1.90125,0 q -0.57038,0 -0.819,-0.26325 -0.24863,-0.27787 -0.24863,-0.74587 l 0,-0.9945 9.8865,0 0,1.09687 z"
         style="font-style:normal;font-variant:normal;font-weight:normal;font-stretch:normal;font-size:64.99999762%;font-family:Lato;-inkscape-font-specification:Lato;baseline-shift:super;fill:#ffffff;fill-opacity:1"
         id="path4780" />
    </g>
    <path
       style="fill:none;fill-rule:evenodd;stroke:#ffffff;stroke-width:2;stroke-linecap:butt;stroke-linejoin:miter;stroke-miterlimit:4;stroke-dasharray:none;stroke-opacity:1"
       d="m 119.99998,722.36208 50,0"
       id="path4242"
       inkscape:connector-curvature="0" />
    <path
       style="fill:none;fill-rule:evenodd;stroke:#ffffff;stroke-width:2;stroke-linecap:butt;stroke-linejoin:miter;stroke-miterlimit:4;stroke-dasharray:none;stroke-opacity:1"
       d="m 419.99998,832.36208 10,0 10,-110 30,0 0,0 0,0"
       id="path4244"
       inkscape:connector-curvature="0" />
    <path
       style="fill:#ffffff;fill-opacity:1;fill-rule:evenodd;stroke:none;stroke-width:1px;stroke-linecap:butt;stroke-linejoin:miter;stroke-opacity:1"
       d="M 433.45455,120.00005 429,71 l -10,0 0,-2 0,0 12,0 3.54546,38.99996"
       id="path4284"
       transform="translate(-1.5258789e-5,652.36208)"
       inkscape:connector-curvature="0" />
    <path
       style="fill:#ffffff;fill-opacity:1;fill-rule:evenodd;stroke:none;stroke-width:1px;stroke-linecap:butt;stroke-linejoin:miter;stroke-opacity:1"
       d="M 436.54545,129.99996 441,179 l 40,0 0,2 -42,0 -3.54544,-38.99995"
       id="path4280"
       transform="translate(-1.5258789e-5,652.36208)"
       inkscape:connector-curvature="0" />
    <path
       style="fill:none;fill-rule:evenodd;stroke:#ffffff;stroke-width:4;stroke-linecap:butt;stroke-linejoin:miter;stroke-miterlimit:4;stroke-dasharray:none;stroke-opacity:1;marker-start:url(#Arrow1Mstart);marker-end:url(#Arrow1Mend)"
       d="m 180,762.36207 120,0"
       id="path4286"
       inkscape:connector-curvature="0" />
    <text
       xml:space="preserve"
       style="font-style:normal;font-weight:normal;font-size:45px;line-height:125%;font-family:sans-serif;text-align:center;letter-spacing:0px;word-spacing:0px;text-anchor:middle;fill:#000000;fill-opacity:1;stroke:none;stroke-width:1px;stroke-linecap:butt;stroke-linejoin:miter;stroke-opacity:1"
       x="250"
       y="742.36206"
       id="text4600"
       sodipodi:linespacing="125%"><tspan
         sodipodi:role="line"
         id="tspan4602"
         x="250"
         y="742.36206"></tspan></text>
    <g
       style="font-style:normal;font-weight:normal;font-size:45px;line-height:125%;font-family:sans-serif;text-align:center;letter-spacing:0px;word-spacing:0px;text-anchor:middle;fill:#ffffff;fill-opacity:1;stroke:none;stroke-width:1px;stroke-linecap:butt;stroke-linejoin:miter;stroke-opacity:1"
       id="text4604">
      <path
         d="m 244.79074,732.84456 -1.89,9.5175 -1.8225,0 q -0.2925,0 -0.54,-0.135 -0.2475,-0.135 -0.4275,-0.36 -0.1575,-0.225 -0.225,-0.54 -0.0675,-0.315 0,-0.6975 l 1.5975,-7.785 -5.5575,0 -1.5975,7.9875 q -0.135,0.8325 -0.6525,1.1925 -0.5175,0.3375 -1.17,0.3375 l -1.8,0 1.9125,-9.5175 -3.285,0 q -0.63,0 -0.9225,-0.36 -0.27,-0.3825 -0.135,-1.305 l 0.18,-1.2825 4.59,0 1.4625,-7.335 -5.22,0 0.2925,-1.665 q 0.1125,-0.6525 0.5175,-0.9675 0.4275,-0.315 1.2825,-0.315 l 3.555,0 1.62,-8.055 q 0.135,-0.675 0.6075,-1.0575 0.495,-0.3825 1.17,-0.3825 l 1.8,0 -1.89,9.495 5.5575,0 1.89,-9.495 1.7775,0 q 0.6525,0 1.0125,0.4275 0.3825,0.4275 0.27,1.08 l -1.6425,7.9875 4.77,0 -0.2925,1.6875 q -0.1125,0.6525 -0.54,0.9675 -0.405,0.2925 -1.26,0.2925 l -3.105,0 -1.4625,7.335 4.0275,0 q 0.6525,0 0.9225,0.3825 0.2925,0.36 0.1575,1.2825 l -0.2025,1.2825 -5.3325,0 z m -8.4375,-2.9475 5.5575,0 1.4625,-7.335 -5.5575,0 -1.4625,7.335 z"
         style="font-style:normal;font-variant:normal;font-weight:normal;font-stretch:normal;font-family:Lato;-inkscape-font-specification:Lato;fill:#ffffff;fill-opacity:1"
         id="path4775" />
    </g>
    <g
       style="font-style:normal;font-weight:normal;font-size:45px;line-height:125%;font-family:sans-serif;text-align:center;letter-spacing:0px;word-spacing:0px;text-anchor:middle;fill:#ffffff;fill-opacity:1;stroke:none;stroke-width:1px;stroke-linecap:butt;stroke-linejoin:miter;stroke-opacity:1"
       id="text4608">
      <path
         d="m 61.833604,941.98706 0,-0.855 c -1.305,0.135 -3.375,0.405 -4.905,0.99 -1.35,0.495 -2.655,1.17 -3.87,1.89 -1.89,1.125 -3.375,2.97 -4.68,4.77 -2.07,2.835 -3.78,5.58 -5.58,8.505 -1.98,3.15 -5.04,8.145 -5.985,9.315 -0.9,1.17 -2.025,2.565 -3.195,3.51 -0.675,0.54 -1.35,0.855 -2.115,0.855 -0.405,0 -0.765,-0.135 -1.035,-0.45 -0.135,-0.225 -0.315,-0.45 -0.225,-0.81 0.09,-0.36 0.225,-0.72 0.405,-1.08 0.09,-0.225 0.225,-0.54 0.27,-0.72 0.09,-0.315 0.045,-0.63 -0.135,-0.81 -0.225,-0.405 -0.675,-0.63 -1.215,-0.63 -0.495,0 -0.99,0.045 -1.44,0.405 -0.585,0.45 -0.945,1.08 -1.125,1.665 -0.27,1.17 -0.18,2.295 0.405,3.15 0.585,0.72 1.53,1.125 2.565,1.125 1.755,0 3.645,-0.9 5.22,-2.16 1.89,-1.53 5.265,-4.995 7.695,-8.91 l 9.945,0 -1.755,7.11 c -0.225,0.765 -0.36,1.485 -0.36,2.205 0.045,0.495 0.09,0.99 0.36,1.35 0.27,0.45 0.855,0.63 1.44,0.63 1.125,0 2.295,-0.585 3.33,-1.17 1.665,-0.9 3.24,-2.025 4.68,-3.375 l -0.495,-0.765 c -0.81,0.585 -1.44,1.035 -2.16,1.485 -0.585,0.36 -1.17,0.63 -1.755,0.63 -0.36,0 -0.72,-0.09 -0.945,-0.36 -0.585,-0.765 -0.495,-1.845 -0.315,-2.925 0.54,-3.15 1.305,-6.345 2.07,-9.495 l 3.285,-13.05 c 0.18,-0.81 0.405,-1.26 0.9,-1.62 l 0.72,-0.405 z m -4.5,1.665 -4.05,16.155 -9.135,0 c 1.845,-3.42 3.735,-6.885 5.94,-10.17 1.26,-1.845 2.52,-3.735 4.275,-5.13 0.855,-0.675 1.845,-1.17 2.7,-1.35 l 0.27,0.495 z"
         style="font-style:normal;font-variant:normal;font-weight:normal;font-stretch:normal;font-family:'Latin Modern Math';-inkscape-font-specification:'Latin Modern Math';fill:#ffffff;fill-opacity:1"
         id="path4751" />
      <path
         d="m 86.350587,949.88681 c 0,-0.585 -0.55575,-0.585 -0.9945,-0.585 l -6.171749,0 1.17,-4.5045 5.001749,0 c 0.43875,0 0.9945,0 0.9945,-0.585 0,-0.585 -0.55575,-0.585 -0.96525,-0.585 l -4.679999,0 2.281499,-8.45325 c 0.02925,-0.0585 0.117,-0.4095 0.117,-0.5265 0,-0.32175 -0.26325,-0.585 -0.585,-0.585 -0.468,0 -0.55575,0.38025 -0.6435,0.702 l -2.369249,8.86275 -5.499,0 2.2815,-8.45325 c 0.02925,-0.0585 0.117,-0.4095 0.117,-0.5265 0,-0.32175 -0.26325,-0.585 -0.585,-0.585 -0.468,0 -0.55575,0.38025 -0.6435,0.702 l -2.36925,8.86275 -6.551999,0 c -0.4095,0 -0.96525,0 -0.96525,0.585 0,0.585 0.55575,0.585 0.9945,0.585 l 6.171749,0 -1.17,4.5045 -5.001749,0 c -0.43875,0 -0.9945,0 -0.9945,0.585 0,0.585 0.55575,0.585 0.96525,0.585 l 4.679999,0 -2.2815,8.45325 c -0.02925,0.0585 -0.117,0.4095 -0.117,0.5265 0,0.32175 0.26325,0.585 0.585,0.585 0.468,0 0.55575,-0.38025 0.6435,-0.702 l 2.36925,-8.86275 5.499,0 -2.2815,8.45325 c -0.02925,0.0585 -0.117,0.4095 -0.117,0.5265 0,0.32175 0.26325,0.585 0.585,0.585 0.468,0 0.55575,-0.38025 0.6435,-0.702 l 2.36925,-8.86275 6.551999,0 c 0.4095,0 0.96525,0 0.96525,-0.585 z m -7.195499,-5.0895 -1.17,4.5045 -5.499,0 1.17,-4.5045 5.499,0 z"
         style="font-size:64.99999762%;baseline-shift:super;fill:#ffffff;fill-opacity:1"
         id="path4753" />
      <path
         d="m 102.98663,983.07206 c 0,-0.135 -0.09,-0.27 -0.18,-0.36 -4.679998,-3.51 -7.784998,-12.51 -7.784998,-19.71 l 0,-3.78 c 0,-7.2 3.105,-16.2 7.784998,-19.71 0.09,-0.09 0.18,-0.225 0.18,-0.36 0,-0.225 -0.225,-0.45 -0.45,-0.45 -0.09,0 -0.18,0.045 -0.27,0.09 -4.949998,3.735 -9.674998,12.735 -9.674998,20.43 l 0,3.78 c 0,7.695 4.725,16.695 9.674998,20.43 0.09,0.045 0.18,0.09 0.27,0.09 0.225,0 0.45,-0.225 0.45,-0.45 z"
         style="font-style:normal;font-variant:normal;font-weight:normal;font-stretch:normal;font-family:'Latin Modern Math';-inkscape-font-specification:'Latin Modern Math';fill:#ffffff;fill-opacity:1"
         id="path4755" />
      <path
         d="m 134.83187,964.12706 c 0,-3.915 -3.69,-7.29 -8.685,-7.83 4.365,-0.855 7.47,-3.735 7.47,-7.065 0,-3.915 -4.14,-7.605 -9.99,-7.605 l -16.47,0 0,1.395 1.08,0 c 3.465,0 3.555,0.495 3.555,2.115 l 0,23.715 c 0,1.62 -0.09,2.115 -3.555,2.115 l -1.08,0 0,1.395 17.64,0 c 5.985,0 10.035,-4.005 10.035,-8.235 z m -5.58,-14.895 c 0,2.88 -2.205,6.66 -7.2,6.66 l -6.525,0 0,-11.07 c 0,-1.485 0.09,-1.8 2.205,-1.8 l 5.58,0 c 4.365,0 5.94,3.825 5.94,6.21 z m 1.08,14.85 c 0,3.195 -2.34,6.885 -6.975,6.885 l -5.625,0 c -2.115,0 -2.205,-0.315 -2.205,-1.8 l 0,-12.285 8.46,0 c 4.455,0 6.345,4.185 6.345,7.2 z"
         style="font-style:normal;font-variant:normal;font-weight:normal;font-stretch:normal;font-family:'Latin Modern Math';-inkscape-font-specification:'Latin Modern Math';fill:#ffffff;fill-opacity:1"
         id="path4757" />
      <path
         d="m 150.40116,963.00206 0,-3.78 c 0,-7.695 -4.725,-16.695 -9.675,-20.43 -0.09,-0.045 -0.18,-0.09 -0.27,-0.09 -0.225,0 -0.45,0.225 -0.45,0.45 0,0.135 0.09,0.27 0.18,0.36 4.68,3.51 7.785,12.51 7.785,19.71 l 0,3.78 c 0,7.2 -3.105,16.2 -7.785,19.71 -0.09,0.09 -0.18,0.225 -0.18,0.36 0,0.225 0.225,0.45 0.45,0.45 0.09,0 0.18,-0.045 0.27,-0.09 4.95,-3.735 9.675,-12.735 9.675,-20.43 z"
         style="font-style:normal;font-variant:normal;font-weight:normal;font-stretch:normal;font-family:'Latin Modern Math';-inkscape-font-specification:'Latin Modern Math';fill:#ffffff;fill-opacity:1"
         id="path4759" />
    </g>
    <g
       style="font-style:normal;font-weight:normal;font-size:45px;line-height:125%;font-family:sans-serif;text-align:center;letter-spacing:0px;word-spacing:0px;text-anchor:middle;fill:#ffffff;fill-opacity:1;stroke:none;stroke-width:1px;stroke-linecap:butt;stroke-linejoin:miter;stroke-opacity:1"
       id="text4703">
      <path
         d="m 374.03062,941.98706 0,-0.855 c -1.305,0.135 -3.375,0.405 -4.90499,0.99 -1.35001,0.495 -2.65501,1.17 -3.87001,1.89 -1.88999,1.125 -3.375,2.97 -4.68,4.77 -2.07,2.835 -3.78,5.58 -5.57999,8.505 -1.98001,3.15 -5.04001,8.145 -5.98501,9.315 -0.89999,1.17 -2.02499,2.565 -3.195,3.51 -0.675,0.54 -1.35,0.855 -2.115,0.855 -0.405,0 -0.76499,-0.135 -1.035,-0.45 -0.135,-0.225 -0.315,-0.45 -0.225,-0.81 0.09,-0.36 0.225,-0.72 0.405,-1.08 0.09,-0.225 0.225,-0.54 0.27001,-0.72 0.09,-0.315 0.045,-0.63 -0.13501,-0.81 -0.225,-0.405 -0.67499,-0.63 -1.215,-0.63 -0.495,0 -0.99,0.045 -1.44,0.405 -0.58499,0.45 -0.945,1.08 -1.125,1.665 -0.26999,1.17 -0.18,2.295 0.405,3.15 0.585,0.72 1.53,1.125 2.565,1.125 1.75501,0 3.645,-0.9 5.22,-2.16 1.89,-1.53 5.265,-4.995 7.695,-8.91 l 9.945,0 -1.755,7.11 c -0.22499,0.765 -0.36,1.485 -0.36,2.205 0.045,0.495 0.09,0.99 0.36,1.35 0.27,0.45 0.855,0.63 1.44,0.63 1.125,0 2.295,-0.585 3.33,-1.17 1.665,-0.9 3.24,-2.025 4.68,-3.375 l -0.49499,-0.765 c -0.81001,0.585 -1.44001,1.035 -2.16001,1.485 -0.58499,0.36 -1.17,0.63 -1.755,0.63 -0.36,0 -0.72,-0.09 -0.94499,-0.36 -0.58501,-0.765 -0.495,-1.845 -0.315,-2.925 0.53999,-3.15 1.305,-6.345 2.07,-9.495 l 3.28499,-13.05 c 0.18,-0.81 0.405,-1.26 0.90001,-1.62 l 0.71999,-0.405 z m -4.5,1.665 -4.05,16.155 -9.135,0 c 1.845,-3.42 3.735,-6.885 5.94,-10.17 1.26,-1.845 2.52001,-3.735 4.27501,-5.13 0.85499,-0.675 1.84499,-1.17 2.69999,-1.35 l 0.27,0.495 z"
         style="font-style:normal;font-variant:normal;font-weight:normal;font-stretch:normal;font-family:'Latin Modern Math';-inkscape-font-specification:'Latin Modern Math';fill:#ffffff;fill-opacity:1"
         id="path4788" />
      <path
         d="m 390.78961,983.07206 c 0,-0.135 -0.09,-0.27 -0.18,-0.36 -4.68,-3.51 -7.785,-12.51 -7.785,-19.71 l 0,-3.78 c 0,-7.2 3.105,-16.2 7.785,-19.71 0.09,-0.09 0.18,-0.225 0.18,-0.36 0,-0.225 -0.225,-0.45 -0.45,-0.45 -0.09,0 -0.18,0.045 -0.27,0.09 -4.95,3.735 -9.675,12.735 -9.675,20.43 l 0,3.78 c 0,7.695 4.725,16.695 9.675,20.43 0.09,0.045 0.18,0.09 0.27,0.09 0.225,0 0.45,-0.225 0.45,-0.45 z"
         style="font-style:normal;font-variant:normal;font-weight:normal;font-stretch:normal;font-family:'Latin Modern Math';-inkscape-font-specification:'Latin Modern Math';fill:#ffffff;fill-opacity:1"
         id="path4790" />
      <path
         d="m 422.63484,964.12706 c 0,-3.915 -3.69,-7.29 -8.685,-7.83 4.365,-0.855 7.47,-3.735 7.47,-7.065 0,-3.915 -4.14,-7.605 -9.99,-7.605 l -16.47,0 0,1.395 1.08,0 c 3.465,0 3.555,0.495 3.555,2.115 l 0,23.715 c 0,1.62 -0.09,2.115 -3.555,2.115 l -1.08,0 0,1.395 17.64,0 c 5.985,0 10.035,-4.005 10.035,-8.235 z m -5.58,-14.895 c 0,2.88 -2.205,6.66 -7.2,6.66 l -6.525,0 0,-11.07 c 0,-1.485 0.09,-1.8 2.205,-1.8 l 5.58,0 c 4.365,0 5.94,3.825 5.94,6.21 z m 1.08,14.85 c 0,3.195 -2.34,6.885 -6.975,6.885 l -5.625,0 c -2.115,0 -2.205,-0.315 -2.205,-1.8 l 0,-12.285 8.46,0 c 4.455,0 6.345,4.185 6.345,7.2 z"
         style="font-style:normal;font-variant:normal;font-weight:normal;font-stretch:normal;font-family:'Latin Modern Math';-inkscape-font-specification:'Latin Modern Math';fill:#ffffff;fill-opacity:1"
         id="path4792" />
      <path
         d="m 438.20414,963.00206 0,-3.78 c 0,-7.695 -4.725,-16.695 -9.675,-20.43 -0.09,-0.045 -0.18,-0.09 -0.27,-0.09 -0.225,0 -0.45,0.225 -0.45,0.45 0,0.135 0.09,0.27 0.18,0.36 4.68,3.51 7.785,12.51 7.785,19.71 l 0,3.78 c 0,7.2 -3.105,16.2 -7.785,19.71 -0.09,0.09 -0.18,0.225 -0.18,0.36 0,0.225 0.225,0.45 0.45,0.45 0.09,0 0.18,-0.045 0.27,-0.09 4.95,-3.735 9.675,-12.735 9.675,-20.43 z"
         style="font-style:normal;font-variant:normal;font-weight:normal;font-stretch:normal;font-family:'Latin Modern Math';-inkscape-font-specification:'Latin Modern Math';fill:#ffffff;fill-opacity:1"
         id="path4794" />
    </g>
  </g>
</svg>
