<?xml version="1.0" encoding="UTF-8" standalone="no"?>
<!-- Created with matplotlib (http://matplotlib.org/) -->

<svg
   xmlns:dc="http://purl.org/dc/elements/1.1/"
   xmlns:cc="http://creativecommons.org/ns#"
   xmlns:rdf="http://www.w3.org/1999/02/22-rdf-syntax-ns#"
   xmlns:svg="http://www.w3.org/2000/svg"
   xmlns="http://www.w3.org/2000/svg"
   xmlns:xlink="http://www.w3.org/1999/xlink"
   xmlns:sodipodi="http://sodipodi.sourceforge.net/DTD/sodipodi-0.dtd"
   xmlns:inkscape="http://www.inkscape.org/namespaces/inkscape"
   height="219.51042pt"
   version="1.1"
   viewBox="0 0 489.76791 219.51042"
   width="489.76791pt"
   id="svg4689"
   inkscape:version="0.91 r13725"
   sodipodi:docname="solid-angle-diagram.svg">
  <metadata
     id="metadata4740">
    <rdf:RDF>
      <cc:Work
         rdf:about="">
        <dc:format>image/svg+xml</dc:format>
        <dc:type
           rdf:resource="http://purl.org/dc/dcmitype/StillImage" />
        <dc:title></dc:title>
      </cc:Work>
    </rdf:RDF>
  </metadata>
  <sodipodi:namedview
     pagecolor="#848484"
     bordercolor="#666666"
     borderopacity="1"
     objecttolerance="10"
     gridtolerance="10"
     guidetolerance="10"
     inkscape:pageopacity="0"
     inkscape:pageshadow="2"
     inkscape:window-width="1918"
     inkscape:window-height="1078"
     id="namedview4738"
     showgrid="false"
     fit-margin-top="9"
     fit-margin-right="9"
     fit-margin-left="9"
     fit-margin-bottom="9"
     inkscape:zoom="0.43703704"
     inkscape:cx="-93.362706"
     inkscape:cy="130.15496"
     inkscape:window-x="1920"
     inkscape:window-y="0"
     inkscape:window-maximized="0"
     inkscape:current-layer="figure_1" />
  <defs
     id="defs4691"
     style="stroke-linecap:butt;stroke-linejoin:round;stroke-miterlimit:100000">
    <style
       type="text/css"
       id="style4693">
*{stroke-linecap:butt;stroke-linejoin:round;stroke-miterlimit:100000;}
  </style>
  </defs>
  <g
     id="figure_1"
     style="stroke-linecap:butt;stroke-linejoin:round;stroke-miterlimit:100000"
     transform="translate(-59.741012,-100.61355)">
    <g
       id="axes_1"
       style="stroke-linecap:butt;stroke-linejoin:round;stroke-miterlimit:100000">
      <g
         id="line2d_1"
         style="stroke-linecap:butt;stroke-linejoin:round;stroke-miterlimit:100000">
        <path
           clip-path="url(#p0d33c3d4bb)"
           d="m 257.989,216 -0.11341,-4.6192 -0.33997,-4.60806 -0.5657,-4.58583 -0.79007,-4.55254 -1.01254,-4.50828 -1.23257,-4.45316 -1.44962,-4.38731 -1.66319,-4.31087 -1.87274,-4.22407 -2.07778,-4.12706 -2.27782,-4.02012 -2.47236,-3.9035 -2.66095,-3.77745 -2.84313,-3.64232 -3.01844,-3.4984 -3.1865,-3.34606 -3.34687,-3.18564 -3.49917,-3.01755 -3.64305,-2.8422 -3.77814,-2.65998 -3.90412,-2.47137 -4.02071,-2.27679 -4.12759,-2.07672 -4.22454,-1.87166 -4.3113,-1.66209 -4.38768,-1.4485 -4.45347,-1.23142 -4.50854,-1.01139 -4.55275,-0.78891 -4.58597,-0.56453 -4.60815,-0.33878 -4.61923,-0.11224 -4.61917,0.1146 -4.60797,0.34114 -4.58569,0.56688 -4.55234,0.79123 -4.50802,1.01369 -4.45284,1.23371 -4.38694,1.45074 -4.31045,1.66429 -4.22358,1.87382 -4.12653,2.07884 -4.01954,2.27884 -3.90287,2.47336 -3.77677,2.66192 -3.64159,2.84406 -3.49763,3.01934 -3.345242,3.18735 -3.184786,3.34769 -3.016659,3.49994 -2.841262,3.64377 -2.659019,3.77882 -2.470366,3.90476 -2.275761,4.02129 -2.075672,4.12812 -1.87058,4.22502 -1.66098,4.31173 -1.447379,4.38804 -1.230288,4.45379 -1.010233,4.5088 -0.787744,4.55294 -0.563355,4.58612 -0.337611,4.60824 -0.111051,4.61926 0.115776,4.61913 0.342323,4.60789 0.568047,4.58554 0.7924,4.55214 1.014844,4.50776 1.234843,4.45253 1.451866,4.38656 1.66539,4.31003 1.8749,4.2231 2.079893,4.126 2.279873,4.01896 2.474359,3.90223 2.662882,3.7761 2.844987,3.64086 3.020238,3.49686 3.188209,3.34442 3.348498,3.18393 3.50071,3.01577 3.6445,2.84033 3.7795,2.65805 3.90539,2.46937 4.02187,2.27473 4.12866,2.07461 4.22549,1.8695 4.31215,1.65988 4.38842,1.44626 4.4541,1.22915 4.50906,1.00908 4.55314,0.78658 4.58627,0.56218 4.60832,0.33643 4.61928,0.10987 4.61911,-0.11695 4.60781,-0.34351 4.58539,-0.56922 4.55193,-0.79356 4.50751,-1.016 4.45221,-1.23598 4.38619,-1.45299 4.3096,-1.66649 4.22262,-1.87598 4.12547,-2.08094 4.01838,-2.28091 3.90159,-2.47535 3.77542,-2.66385 3.64013,-2.84592 3.49609,-3.02113 3.34361,-3.18906 3.18307,-3.34931 3.01487,-3.50149 2.8394,-3.64522 2.65708,-3.78018 2.46837,-3.90602 2.27371,-4.02245 2.07356,-4.12919 1.86842,-4.22598 1.65877,-4.31257 1.44514,-4.38879 1.22801,-4.45441 1.00792,-4.50932 0.78542,-4.55335 0.56101,-4.5864 0.33525,-4.60841 L 257.989,216 l 0,0"
           style="fill:none;stroke:#ffffff;stroke-width:2;stroke-linecap:square;stroke-linejoin:round;stroke-miterlimit:100000"
           id="path4701"
           inkscape:connector-curvature="0" />
      </g>
      <g
         id="line2d_2"
         style="stroke-linecap:butt;stroke-linejoin:round;stroke-miterlimit:100000">
        <path
           clip-path="url(#p0d33c3d4bb)"
           d="M 230.42072,149.44428"
           style="fill:none;stroke:#fbb4ae;stroke-linecap:square;stroke-linejoin:round;stroke-miterlimit:100000"
           id="path4704"
           inkscape:connector-curvature="0" />
        <defs
           id="defs4706">
          <path
             d="M 0,8 C 2.121625,8 4.156639,7.15707 5.656854,5.656854 7.15707,4.156639 8,2.121625 8,0 8,-2.121625 7.15707,-4.156639 5.656854,-5.656854 4.156639,-7.15707 2.121625,-8 0,-8 -2.121625,-8 -4.156639,-7.15707 -5.656854,-5.656854 -7.15707,-4.156639 -8,-2.121625 -8,0 -8,2.121625 -7.15707,4.156639 -5.656854,5.656854 -4.156639,7.15707 -2.121625,8 0,8 Z"
             id="m2b6ae3d7d9"
             style="stroke:#000000;stroke-width:0.5;stroke-linecap:butt;stroke-linejoin:round;stroke-miterlimit:100000"
             inkscape:connector-curvature="0" />
        </defs>
        <g
           clip-path="url(#p0d33c3d4bb)"
           id="g4709"
           style="stroke-linecap:butt;stroke-linejoin:round;stroke-miterlimit:100000">
          <use
             style="fill:#fbb4ae;stroke:#000000;stroke-width:0.5;stroke-linecap:butt;stroke-linejoin:round;stroke-miterlimit:100000"
             x="230.42072"
             xlink:href="#m2b6ae3d7d9"
             y="149.44427"
             id="use4711"
             width="100%"
             height="100%" />
        </g>
      </g>
      <g
         id="line2d_3"
         style="stroke-linecap:butt;stroke-linejoin:round;stroke-miterlimit:100000">
        <path
           clip-path="url(#p0d33c3d4bb)"
           d="m 253.95172,149.44428 -0.111,-2.28286 -0.33195,-2.26133 -0.54976,-2.21845 -0.76239,-2.15466 -0.96783,-2.07052 -1.16414,-1.96687 -1.34947,-1.84465 -1.52205,-1.70503 -1.68029,-1.54932 -1.82267,-1.37901 -1.94786,-1.19567 -2.05467,-1.00106 -2.14209,-0.797 -2.20931,-0.58543 -2.25569,-0.36833 -2.28078,-0.14775 -2.28435,0.0742 -2.26638,0.29548 -2.22702,0.51396 -2.16666,0.72758 -2.08585,0.93435 -1.98536,1.13231 -1.86615,1.31957 -1.72933,1.49439 -1.57619,1.65512 -1.40818,1.80022 -1.2269,1.92834 -1.03402,2.03828 -0.83141,2.12898 -0.62094,2.19959 -0.40462,2.24946 -0.18448,2.2781 0.0374,2.28525 0.25893,2.27085 0.47802,2.23501 0.69259,2.1781 0.90063,2.10063 1.10017,2.00334 1.28934,1.88717 1.46634,1.75317 1.62951,1.60265 1.77731,1.437 1.90833,1.2578 2.02135,1.06673 2.11531,0.86559 2.1893,0.65629 2.24265,0.4408 2.27484,0.22116 2.28556,-5.9e-4 2.27472,-0.22231 2.24242,-0.44195 2.18897,-0.65742 2.11487,-0.86667 2.02081,-1.06776 1.90768,-1.25878 1.77657,-1.43791 1.62869,-1.60348 1.46545,-1.75392 1.28837,-1.88782 1.09915,-2.00391 0.89956,-2.10109 0.69147,-2.17845 0.47687,-2.23526 0.25777,-2.27098 0.0488,-1.51523 0,0"
           style="fill:none;stroke:#b3cde3;stroke-linecap:square;stroke-linejoin:round;stroke-miterlimit:100000"
           id="path4714"
           inkscape:connector-curvature="0" />
      </g>
    </g>
    <g
       id="axes_2"
       style="stroke-linecap:butt;stroke-linejoin:round;stroke-miterlimit:100000">
      <g
         id="line2d_4"
         style="stroke-linecap:butt;stroke-linejoin:round;stroke-miterlimit:100000">
        <path
           clip-path="url(#pcadd17c8a0)"
           d="m 445.385,133.6415 94.124,163.02755 -188.248,0 94.124,-163.02755"
           style="fill:none;stroke:#ffffff;stroke-width:2;stroke-linecap:square;stroke-linejoin:round;stroke-miterlimit:100000"
           id="path4718"
           inkscape:connector-curvature="0" />
      </g>
      <g
         id="line2d_5"
         style="stroke-linecap:butt;stroke-linejoin:round;stroke-miterlimit:100000">
        <path
           clip-path="url(#pcadd17c8a0)"
           d="M 445.385,133.6415"
           style="fill:none;stroke:#fbb4ae;stroke-linecap:square;stroke-linejoin:round;stroke-miterlimit:100000"
           id="path4721"
           inkscape:connector-curvature="0" />
        <g
           clip-path="url(#pcadd17c8a0)"
           id="g4723"
           style="stroke-linecap:butt;stroke-linejoin:round;stroke-miterlimit:100000">
          <use
             style="fill:#fbb4ae;stroke:#000000;stroke-width:0.5;stroke-linecap:butt;stroke-linejoin:round;stroke-miterlimit:100000"
             x="445.38501"
             xlink:href="#m2b6ae3d7d9"
             y="133.64149"
             id="use4725"
             width="100%"
             height="100%" />
        </g>
      </g>
      <g
         id="line2d_6"
         style="stroke-linecap:butt;stroke-linejoin:round;stroke-miterlimit:100000">
        <path
           clip-path="url(#pcadd17c8a0)"
           d="m 468.916,133.6415 -0.111,-2.28286 -0.33194,-2.26133 -0.54977,-2.21845 -0.76239,-2.15466 -0.96783,-2.07052 -1.16414,-1.96687 -1.34946,-1.84465 -1.52206,-1.70503 -1.68029,-1.54932 -1.82267,-1.37901 -1.94786,-1.19567 -2.05467,-1.00106 -2.14209,-0.797 -2.20931,-0.58543 -2.25569,-0.36833 -2.28078,-0.14776 -2.28435,0.0742 -2.26638,0.29548 -2.22702,0.51395 -2.16666,0.72759 -2.08585,0.93435 -1.98536,1.13231 -1.86615,1.31957 -1.72933,1.49439 -1.57619,1.65512 -1.40818,1.80022 -1.2269,1.92834 -1.03402,2.03828 -0.83141,2.12898 -0.62094,2.19959 -0.40462,2.24946 -0.18448,2.2781 0.0374,2.28525 0.25893,2.27085 0.47802,2.23501 0.69259,2.1781 0.90063,2.10063 1.10017,2.00334 1.28934,1.88717 1.46634,1.75317 1.62951,1.60265 1.77731,1.437 1.90833,1.2578 2.02135,1.06672 2.11531,0.8656 2.18931,0.65629 2.24265,0.4408 2.27483,0.22116 2.28556,-5.9e-4 2.27472,-0.22231 2.24242,-0.44195 2.18897,-0.65742 2.11487,-0.86667 2.02081,-1.06776 1.90768,-1.25878 1.77657,-1.43791 1.62869,-1.60348 1.46545,-1.75392 1.28837,-1.88782 1.09915,-2.00391 0.89956,-2.10109 0.69147,-2.17845 0.47688,-2.23526 0.25776,-2.27098 0.0488,-1.51523 0,0"
           style="fill:none;stroke:#b3cde3;stroke-linecap:square;stroke-linejoin:round;stroke-miterlimit:100000"
           id="path4728"
           inkscape:connector-curvature="0" />
      </g>
    </g>
  </g>
  <defs
     id="defs4730">
    <clipPath
       id="pcadd17c8a0"
       style="stroke-linecap:butt;stroke-linejoin:round;stroke-miterlimit:100000">
      <rect
         height="258.841"
         width="235.31"
         x="327.73001"
         y="86.579498"
         id="rect4733"
         style="stroke-linecap:butt;stroke-linejoin:round;stroke-miterlimit:100000" />
    </clipPath>
    <clipPath
       id="p0d33c3d4bb"
       style="stroke-linecap:butt;stroke-linejoin:round;stroke-miterlimit:100000">
      <rect
         height="235.31"
         width="235.31"
         x="46.209999"
         y="98.345001"
         id="rect4736"
         style="stroke-linecap:butt;stroke-linejoin:round;stroke-miterlimit:100000" />
    </clipPath>
  </defs>
</svg>
