<?xml version="1.0" encoding="utf-8" standalone="no"?>
<!DOCTYPE svg PUBLIC "-//W3C//DTD SVG 1.1//EN"
  "http://www.w3.org/Graphics/SVG/1.1/DTD/svg11.dtd">
<!-- Created with matplotlib (http://matplotlib.org/) -->
<svg height="288pt" version="1.1" viewBox="0 0 576 288" width="576pt" xmlns="http://www.w3.org/2000/svg" xmlns:xlink="http://www.w3.org/1999/xlink">
 <defs>
  <style type="text/css">
*{stroke-linecap:butt;stroke-linejoin:round;}
  </style>
 </defs>
 <g id="figure_1">
  <g id="patch_1">
   <path d="M 0 288 
L 576 288 
L 576 0 
L 0 0 
z
" style="fill:none;"/>
  </g>
  <g id="axes_1">
   <g id="patch_2">
    <path d="M 78.477829 228.2 
L 523.522171 228.2 
L 523.522171 17.968125 
L 78.477829 17.968125 
z
" style="fill:none;"/>
   </g>
   <g id="matplotlib.axis_1">
    <g id="xtick_1">
     <g id="line2d_1">
      <defs>
       <path d="M 0 0 
L 0 3.5 
" id="md9e0f48c62" style="stroke:#ffffff;stroke-width:0.8;"/>
      </defs>
      <g>
       <use style="fill:#ffffff;stroke:#ffffff;stroke-width:0.8;" x="98.707118" xlink:href="#md9e0f48c62" y="228.2"/>
      </g>
     </g>
     <g id="text_1">
      <!-- $2$ -->
      <defs>
       <path d="M 4.984375 0 
L 4.984375 2.6875 
Q 4.984375 2.9375 5.171875 3.21875 
L 20.703125 20.40625 
Q 24.21875 24.21875 26.40625 26.796875 
Q 28.609375 29.390625 30.75 32.765625 
Q 32.90625 36.140625 34.15625 39.625 
Q 35.40625 43.109375 35.40625 47.015625 
Q 35.40625 51.125 33.890625 54.859375 
Q 32.375 58.59375 29.375 60.84375 
Q 26.375 63.09375 22.125 63.09375 
Q 17.78125 63.09375 14.3125 60.46875 
Q 10.84375 57.859375 9.421875 53.71875 
Q 9.8125 53.8125 10.5 53.8125 
Q 12.75 53.8125 14.328125 52.296875 
Q 15.921875 50.78125 15.921875 48.390625 
Q 15.921875 46.09375 14.328125 44.5 
Q 12.75 42.921875 10.5 42.921875 
Q 8.15625 42.921875 6.5625 44.546875 
Q 4.984375 46.1875 4.984375 48.390625 
Q 4.984375 52.15625 6.390625 55.4375 
Q 7.8125 58.734375 10.46875 61.296875 
Q 13.140625 63.875 16.484375 65.234375 
Q 19.828125 66.609375 23.578125 66.609375 
Q 29.296875 66.609375 34.21875 64.1875 
Q 39.15625 61.765625 42.03125 57.34375 
Q 44.921875 52.9375 44.921875 47.015625 
Q 44.921875 42.671875 43.015625 38.765625 
Q 41.109375 34.859375 38.125 31.65625 
Q 35.15625 28.46875 30.515625 24.40625 
Q 25.875 20.359375 24.421875 19 
L 13.09375 8.109375 
L 22.703125 8.109375 
Q 29.78125 8.109375 34.546875 8.21875 
Q 39.3125 8.34375 39.59375 8.59375 
Q 40.765625 9.859375 42 17.828125 
L 44.921875 17.828125 
L 42.09375 0 
z
" id="Cmr10-32"/>
      </defs>
      <g style="fill:#ffffff;" transform="translate(94.207118 248.475)scale(0.18 -0.18)">
       <use transform="translate(0 0.390625)" xlink:href="#Cmr10-32"/>
      </g>
     </g>
    </g>
    <g id="xtick_2">
     <g id="line2d_2">
      <g>
       <use style="fill:#ffffff;stroke:#ffffff;stroke-width:0.8;" x="233.569039" xlink:href="#md9e0f48c62" y="228.2"/>
      </g>
     </g>
     <g id="text_2">
      <!-- $3$ -->
      <defs>
       <path d="M 9.515625 7.71875 
Q 11.859375 4.296875 15.8125 2.640625 
Q 19.78125 0.984375 24.3125 0.984375 
Q 30.125 0.984375 32.5625 5.9375 
Q 35.015625 10.890625 35.015625 17.1875 
Q 35.015625 20.015625 34.5 22.84375 
Q 33.984375 25.6875 32.765625 28.125 
Q 31.546875 30.5625 29.421875 32.03125 
Q 27.296875 33.5 24.21875 33.5 
L 17.578125 33.5 
Q 16.703125 33.5 16.703125 34.421875 
L 16.703125 35.296875 
Q 16.703125 36.078125 17.578125 36.078125 
L 23.09375 36.53125 
Q 26.609375 36.53125 28.921875 39.15625 
Q 31.25 41.796875 32.328125 45.578125 
Q 33.40625 49.359375 33.40625 52.78125 
Q 33.40625 57.5625 31.15625 60.640625 
Q 28.90625 63.71875 24.3125 63.71875 
Q 20.515625 63.71875 17.046875 62.28125 
Q 13.578125 60.84375 11.53125 57.90625 
Q 11.71875 57.953125 11.859375 57.984375 
Q 12.015625 58.015625 12.203125 58.015625 
Q 14.453125 58.015625 15.96875 56.453125 
Q 17.484375 54.890625 17.484375 52.6875 
Q 17.484375 50.53125 15.96875 48.96875 
Q 14.453125 47.40625 12.203125 47.40625 
Q 10.015625 47.40625 8.453125 48.96875 
Q 6.890625 50.53125 6.890625 52.6875 
Q 6.890625 56.984375 9.46875 60.15625 
Q 12.0625 63.328125 16.140625 64.96875 
Q 20.21875 66.609375 24.3125 66.609375 
Q 27.34375 66.609375 30.703125 65.703125 
Q 34.078125 64.796875 36.8125 63.109375 
Q 39.546875 61.421875 41.28125 58.78125 
Q 43.015625 56.15625 43.015625 52.78125 
Q 43.015625 48.578125 41.140625 45.015625 
Q 39.265625 41.453125 35.984375 38.859375 
Q 32.71875 36.28125 28.8125 35.015625 
Q 33.15625 34.1875 37.0625 31.734375 
Q 40.96875 29.296875 43.328125 25.484375 
Q 45.703125 21.6875 45.703125 17.28125 
Q 45.703125 11.765625 42.671875 7.296875 
Q 39.65625 2.828125 34.71875 0.3125 
Q 29.78125 -2.203125 24.3125 -2.203125 
Q 19.625 -2.203125 14.90625 -0.40625 
Q 10.203125 1.375 7.203125 4.9375 
Q 4.203125 8.5 4.203125 13.484375 
Q 4.203125 15.96875 5.859375 17.625 
Q 7.515625 19.28125 10.015625 19.28125 
Q 11.625 19.28125 12.96875 18.53125 
Q 14.3125 17.78125 15.0625 16.40625 
Q 15.828125 15.046875 15.828125 13.484375 
Q 15.828125 11.03125 14.109375 9.375 
Q 12.40625 7.71875 10.015625 7.71875 
z
" id="Cmr10-33"/>
      </defs>
      <g style="fill:#ffffff;" transform="translate(229.069039 248.475)scale(0.18 -0.18)">
       <use transform="translate(0 0.390625)" xlink:href="#Cmr10-33"/>
      </g>
     </g>
    </g>
    <g id="xtick_3">
     <g id="line2d_3">
      <g>
       <use style="fill:#ffffff;stroke:#ffffff;stroke-width:0.8;" x="368.430961" xlink:href="#md9e0f48c62" y="228.2"/>
      </g>
     </g>
     <g id="text_3">
      <!-- $4$ -->
      <defs>
       <path d="M 2.78125 16.5 
L 2.78125 20.015625 
L 33.6875 66.109375 
Q 34.03125 66.609375 34.71875 66.609375 
L 36.1875 66.609375 
Q 37.3125 66.609375 37.3125 65.484375 
L 37.3125 20.015625 
L 47.125 20.015625 
L 47.125 16.5 
L 37.3125 16.5 
L 37.3125 6.6875 
Q 37.3125 4.640625 40.234375 4.078125 
Q 43.171875 3.515625 47.015625 3.515625 
L 47.015625 0 
L 19.484375 0 
L 19.484375 3.515625 
Q 23.34375 3.515625 26.265625 4.078125 
Q 29.203125 4.640625 29.203125 6.6875 
L 29.203125 16.5 
z
M 6.109375 20.015625 
L 29.78125 20.015625 
L 29.78125 55.421875 
z
" id="Cmr10-34"/>
      </defs>
      <g style="fill:#ffffff;" transform="translate(363.930961 248.475)scale(0.18 -0.18)">
       <use transform="translate(0 0.390625)" xlink:href="#Cmr10-34"/>
      </g>
     </g>
    </g>
    <g id="xtick_4">
     <g id="line2d_4">
      <g>
       <use style="fill:#ffffff;stroke:#ffffff;stroke-width:0.8;" x="503.292882" xlink:href="#md9e0f48c62" y="228.2"/>
      </g>
     </g>
     <g id="text_4">
      <!-- $5$ -->
      <defs>
       <path d="M 8.6875 11.375 
Q 9.71875 8.453125 11.84375 6.046875 
Q 13.96875 3.65625 16.875 2.3125 
Q 19.78125 0.984375 22.90625 0.984375 
Q 30.125 0.984375 32.859375 6.59375 
Q 35.59375 12.203125 35.59375 20.21875 
Q 35.59375 23.6875 35.46875 26.046875 
Q 35.359375 28.421875 34.8125 30.609375 
Q 33.890625 34.125 31.5625 36.765625 
Q 29.25 39.40625 25.875 39.40625 
Q 22.515625 39.40625 20.09375 38.375 
Q 17.671875 37.359375 16.15625 35.984375 
Q 14.65625 34.625 13.484375 33.109375 
Q 12.3125 31.59375 12.015625 31.5 
L 10.890625 31.5 
Q 10.640625 31.5 10.265625 31.8125 
Q 9.90625 32.125 9.90625 32.421875 
L 9.90625 65.828125 
Q 9.90625 66.0625 10.21875 66.328125 
Q 10.546875 66.609375 10.890625 66.609375 
L 11.1875 66.609375 
Q 17.921875 63.375 25.484375 63.375 
Q 32.90625 63.375 39.796875 66.609375 
L 40.09375 66.609375 
Q 40.4375 66.609375 40.71875 66.359375 
Q 41.015625 66.109375 41.015625 65.828125 
L 41.015625 64.890625 
Q 41.015625 64.40625 40.828125 64.40625 
Q 37.40625 59.859375 32.25 57.3125 
Q 27.09375 54.78125 21.578125 54.78125 
Q 17.578125 54.78125 13.375 55.90625 
L 13.375 37.015625 
Q 16.703125 39.703125 19.3125 40.84375 
Q 21.921875 42 25.984375 42 
Q 31.5 42 35.859375 38.8125 
Q 40.234375 35.640625 42.578125 30.53125 
Q 44.921875 25.4375 44.921875 20.125 
Q 44.921875 14.109375 41.96875 8.984375 
Q 39.015625 3.859375 33.9375 0.828125 
Q 28.859375 -2.203125 22.90625 -2.203125 
Q 17.96875 -2.203125 13.84375 0.328125 
Q 9.71875 2.875 7.34375 7.171875 
Q 4.984375 11.46875 4.984375 16.3125 
Q 4.984375 18.5625 6.4375 19.96875 
Q 7.90625 21.390625 10.109375 21.390625 
Q 12.3125 21.390625 13.796875 19.9375 
Q 15.28125 18.5 15.28125 16.3125 
Q 15.28125 14.15625 13.796875 12.671875 
Q 12.3125 11.1875 10.109375 11.1875 
Q 9.765625 11.1875 9.328125 11.25 
Q 8.890625 11.328125 8.6875 11.375 
z
" id="Cmr10-35"/>
      </defs>
      <g style="fill:#ffffff;" transform="translate(498.792882 248.475)scale(0.18 -0.18)">
       <use transform="translate(0 0.390625)" xlink:href="#Cmr10-35"/>
      </g>
     </g>
    </g>
    <g id="text_5">
     <!-- $d$ -->
     <defs>
      <path d="M 17.390625 -1.125 
Q 11.078125 -1.125 7.4375 3.640625 
Q 3.8125 8.40625 3.8125 14.890625 
Q 3.8125 21.296875 7.125 28.171875 
Q 10.453125 35.0625 16.09375 39.625 
Q 21.734375 44.1875 28.21875 44.1875 
Q 31.15625 44.1875 33.515625 42.546875 
Q 35.890625 40.921875 37.203125 38.1875 
L 42.828125 60.5 
Q 43.21875 62.203125 43.3125 63.1875 
Q 43.3125 64.796875 36.8125 64.796875 
Q 35.796875 64.796875 35.796875 66.109375 
Q 35.84375 66.359375 36.015625 66.984375 
Q 36.1875 67.625 36.453125 67.96875 
Q 36.71875 68.3125 37.203125 68.3125 
L 50.6875 69.390625 
Q 51.90625 69.390625 51.90625 68.109375 
L 37.5 10.59375 
Q 36.8125 8.9375 36.8125 5.8125 
Q 36.8125 1.515625 39.703125 1.515625 
Q 42.828125 1.515625 44.453125 5.484375 
Q 46.09375 9.46875 47.21875 14.703125 
Q 47.40625 15.28125 48 15.28125 
L 49.21875 15.28125 
Q 49.609375 15.28125 49.84375 14.9375 
Q 50.09375 14.59375 50.09375 14.3125 
Q 48.34375 7.328125 46.265625 3.09375 
Q 44.1875 -1.125 39.5 -1.125 
Q 36.140625 -1.125 33.546875 0.84375 
Q 30.953125 2.828125 30.328125 6.109375 
Q 23.875 -1.125 17.390625 -1.125 
z
M 17.484375 1.515625 
Q 21.09375 1.515625 24.484375 4.21875 
Q 27.875 6.9375 30.328125 10.59375 
Q 30.421875 10.6875 30.421875 10.984375 
L 35.890625 33.015625 
Q 35.296875 36.53125 33.296875 39.0625 
Q 31.296875 41.609375 27.984375 41.609375 
Q 24.609375 41.609375 21.703125 38.84375 
Q 18.796875 36.078125 16.796875 32.328125 
Q 14.84375 28.328125 13.0625 21.34375 
Q 11.28125 14.359375 11.28125 10.5 
Q 11.28125 7.03125 12.765625 4.265625 
Q 14.265625 1.515625 17.484375 1.515625 
z
" id="Cmmi10-64"/>
     </defs>
     <g style="fill:#ffffff;" transform="translate(294.64 272.823438)scale(0.24 -0.24)">
      <use transform="translate(0 0.609375)" xlink:href="#Cmmi10-64"/>
     </g>
    </g>
   </g>
   <g id="matplotlib.axis_2">
    <g id="ytick_1">
     <g id="line2d_5">
      <defs>
       <path d="M 0 0 
L -3.5 0 
" id="mb532c49a67" style="stroke:#ffffff;stroke-width:0.8;"/>
      </defs>
      <g>
       <use style="fill:#ffffff;stroke:#ffffff;stroke-width:0.8;" x="78.477829" xlink:href="#mb532c49a67" y="19.835958"/>
      </g>
     </g>
     <g id="line2d_6">
      <defs>
       <path d="M 0 0 
L 3.5 0 
" id="m666c8d779a" style="stroke:#ffffff;stroke-width:0.8;"/>
      </defs>
      <g>
       <use style="fill:#ffffff;stroke:#ffffff;stroke-width:0.8;" x="523.522171" xlink:href="#m666c8d779a" y="19.835958"/>
      </g>
     </g>
     <g id="text_6">
      <!-- $\mathdefault{10^{0}}$ -->
      <defs>
       <path d="M 12.34375 7.25 
L 27.59375 7.25 
L 27.59375 54.90625 
Q 27.59375 57.09375 27.75 59.453125 
L 15.40625 48.90625 
Q 14.703125 48.34375 14.015625 48.1875 
Q 13.34375 48.046875 12.75 48.171875 
Q 12.15625 48.296875 11.65625 48.59375 
Q 11.15625 48.90625 10.90625 49.25 
L 7.953125 53.40625 
L 29.40625 71.90625 
L 37.09375 71.90625 
L 37.09375 7.25 
L 51.046875 7.25 
L 51.046875 0 
L 12.34375 0 
z
" id="Lato-Medium-31"/>
       <path d="M 55.09375 35.90625 
Q 55.09375 26.5 53.0625 19.59375 
Q 51.046875 12.703125 47.515625 8.171875 
Q 44 3.65625 39.21875 1.453125 
Q 34.453125 -0.75 28.953125 -0.75 
Q 23.453125 -0.75 18.703125 1.453125 
Q 13.953125 3.65625 10.421875 8.171875 
Q 6.90625 12.703125 4.90625 19.59375 
Q 2.90625 26.5 2.90625 35.90625 
Q 2.90625 45.296875 4.90625 52.1875 
Q 6.90625 59.09375 10.421875 63.625 
Q 13.953125 68.15625 18.703125 70.34375 
Q 23.453125 72.546875 28.953125 72.546875 
Q 34.453125 72.546875 39.21875 70.34375 
Q 44 68.15625 47.515625 63.625 
Q 51.046875 59.09375 53.0625 52.1875 
Q 55.09375 45.296875 55.09375 35.90625 
z
M 45.25 35.90625 
Q 45.25 44 43.890625 49.5 
Q 42.546875 55 40.296875 58.34375 
Q 38.046875 61.703125 35.09375 63.125 
Q 32.15625 64.546875 28.953125 64.546875 
Q 25.75 64.546875 22.796875 63.125 
Q 19.84375 61.703125 17.59375 58.34375 
Q 15.34375 55 14.015625 49.5 
Q 12.703125 44 12.703125 35.90625 
Q 12.703125 27.75 14.015625 22.25 
Q 15.34375 16.75 17.59375 13.421875 
Q 19.84375 10.09375 22.796875 8.671875 
Q 25.75 7.25 28.953125 7.25 
Q 32.15625 7.25 35.09375 8.671875 
Q 38.046875 10.09375 40.296875 13.421875 
Q 42.546875 16.75 43.890625 22.25 
Q 45.25 27.75 45.25 35.90625 
z
" id="Lato-Medium-30"/>
      </defs>
      <g style="fill:#ffffff;" transform="translate(42.497829 26.473458)scale(0.18 -0.18)">
       <use transform="translate(0 0.692188)" xlink:href="#Lato-Medium-31"/>
       <use transform="translate(58 0.692188)" xlink:href="#Lato-Medium-30"/>
       <use transform="translate(116.888125 36.217188)scale(0.7)" xlink:href="#Lato-Medium-30"/>
      </g>
     </g>
     <g id="text_7">
      <!-- $\mathdefault{10^{0}}$ -->
      <g style="fill:#ffffff;" transform="translate(530.522171 26.473458)scale(0.18 -0.18)">
       <use transform="translate(0 0.692188)" xlink:href="#Lato-Medium-31"/>
       <use transform="translate(58 0.692188)" xlink:href="#Lato-Medium-30"/>
       <use transform="translate(116.888125 36.217188)scale(0.7)" xlink:href="#Lato-Medium-30"/>
      </g>
     </g>
    </g>
    <g id="ytick_2">
     <g id="line2d_7">
      <g>
       <use style="fill:#ffffff;stroke:#ffffff;stroke-width:0.8;" x="78.477829" xlink:href="#mb532c49a67" y="70.914993"/>
      </g>
     </g>
     <g id="line2d_8">
      <g>
       <use style="fill:#ffffff;stroke:#ffffff;stroke-width:0.8;" x="523.522171" xlink:href="#m666c8d779a" y="70.914993"/>
      </g>
     </g>
     <g id="text_8">
      <!-- $\mathdefault{10^{-2}}$ -->
      <defs>
       <path d="M 6.15625 34.046875 
L 31.046875 34.046875 
L 31.046875 26 
L 6.15625 26 
z
" id="Lato-Medium-2d"/>
       <path d="M 29.59375 72.546875 
Q 34.25 72.546875 38.203125 71.171875 
Q 42.15625 69.796875 45.046875 67.21875 
Q 47.953125 64.65625 49.59375 60.921875 
Q 51.25 57.203125 51.25 52.5 
Q 51.25 48.5 50.078125 45.078125 
Q 48.90625 41.65625 46.875 38.546875 
Q 44.84375 35.453125 42.171875 32.5 
Q 39.5 29.546875 36.5 26.546875 
L 18.046875 7.75 
Q 20.09375 8.296875 22.1875 8.640625 
Q 24.296875 9 26.203125 9 
L 49.296875 9 
Q 50.84375 9 51.75 8.09375 
Q 52.65625 7.203125 52.65625 5.75 
L 52.65625 0 
L 4.546875 0 
L 4.546875 3.25 
Q 4.546875 4.25 4.96875 5.328125 
Q 5.40625 6.40625 6.296875 7.25 
L 29.046875 30.15625 
Q 31.90625 33.046875 34.203125 35.6875 
Q 36.5 38.34375 38.140625 41 
Q 39.796875 43.65625 40.671875 46.375 
Q 41.546875 49.09375 41.546875 52.203125 
Q 41.546875 55.25 40.59375 57.546875 
Q 39.65625 59.84375 37.96875 61.390625 
Q 36.296875 62.953125 34 63.703125 
Q 31.703125 64.453125 29.046875 64.453125 
Q 26.40625 64.453125 24.203125 63.671875 
Q 22 62.90625 20.265625 61.53125 
Q 18.546875 60.15625 17.375 58.28125 
Q 16.203125 56.40625 15.703125 54.15625 
Q 15.046875 52.296875 13.96875 51.671875 
Q 12.90625 51.046875 10.953125 51.34375 
L 5.953125 52.25 
Q 6.703125 57.203125 8.71875 61 
Q 10.75 64.796875 13.84375 67.375 
Q 16.953125 69.953125 20.953125 71.25 
Q 24.953125 72.546875 29.59375 72.546875 
z
" id="Lato-Medium-32"/>
      </defs>
      <g style="fill:#ffffff;" transform="translate(37.817829 77.552493)scale(0.18 -0.18)">
       <use transform="translate(0 0.692188)" xlink:href="#Lato-Medium-31"/>
       <use transform="translate(58 0.692188)" xlink:href="#Lato-Medium-30"/>
       <use transform="translate(116.888125 36.217188)scale(0.7)" xlink:href="#Lato-Medium-2d"/>
       <use transform="translate(142.928123 36.217188)scale(0.7)" xlink:href="#Lato-Medium-32"/>
      </g>
     </g>
     <g id="text_9">
      <!-- $\mathdefault{10^{-2}}$ -->
      <g style="fill:#ffffff;" transform="translate(530.522171 77.552493)scale(0.18 -0.18)">
       <use transform="translate(0 0.692188)" xlink:href="#Lato-Medium-31"/>
       <use transform="translate(58 0.692188)" xlink:href="#Lato-Medium-30"/>
       <use transform="translate(116.888125 36.217188)scale(0.7)" xlink:href="#Lato-Medium-2d"/>
       <use transform="translate(142.928123 36.217188)scale(0.7)" xlink:href="#Lato-Medium-32"/>
      </g>
     </g>
    </g>
    <g id="ytick_3">
     <g id="line2d_9">
      <g>
       <use style="fill:#ffffff;stroke:#ffffff;stroke-width:0.8;" x="78.477829" xlink:href="#mb532c49a67" y="121.994027"/>
      </g>
     </g>
     <g id="line2d_10">
      <g>
       <use style="fill:#ffffff;stroke:#ffffff;stroke-width:0.8;" x="523.522171" xlink:href="#m666c8d779a" y="121.994027"/>
      </g>
     </g>
     <g id="text_10">
      <!-- $\mathdefault{10^{-4}}$ -->
      <defs>
       <path d="M 44.65625 26.09375 
L 55.203125 26.09375 
L 55.203125 20.59375 
Q 55.203125 19.75 54.671875 19.171875 
Q 54.15625 18.59375 53.15625 18.59375 
L 44.65625 18.59375 
L 44.65625 0 
L 36.34375 0 
L 36.34375 18.59375 
L 4.75 18.59375 
Q 3.703125 18.59375 2.953125 19.1875 
Q 2.203125 19.796875 2 20.75 
L 1.046875 25.59375 
L 35.796875 71.796875 
L 44.65625 71.796875 
z
M 36.34375 54.59375 
Q 36.34375 55.953125 36.4375 57.546875 
Q 36.546875 59.15625 36.796875 60.84375 
L 11.296875 26.09375 
L 36.34375 26.09375 
z
" id="Lato-Medium-34"/>
      </defs>
      <g style="fill:#ffffff;" transform="translate(37.817829 128.631527)scale(0.18 -0.18)">
       <use transform="translate(0 0.217187)" xlink:href="#Lato-Medium-31"/>
       <use transform="translate(58 0.217187)" xlink:href="#Lato-Medium-30"/>
       <use transform="translate(116.888125 35.742187)scale(0.7)" xlink:href="#Lato-Medium-2d"/>
       <use transform="translate(142.928123 35.742187)scale(0.7)" xlink:href="#Lato-Medium-34"/>
      </g>
     </g>
     <g id="text_11">
      <!-- $\mathdefault{10^{-4}}$ -->
      <g style="fill:#ffffff;" transform="translate(530.522171 128.631527)scale(0.18 -0.18)">
       <use transform="translate(0 0.217187)" xlink:href="#Lato-Medium-31"/>
       <use transform="translate(58 0.217187)" xlink:href="#Lato-Medium-30"/>
       <use transform="translate(116.888125 35.742187)scale(0.7)" xlink:href="#Lato-Medium-2d"/>
       <use transform="translate(142.928123 35.742187)scale(0.7)" xlink:href="#Lato-Medium-34"/>
      </g>
     </g>
    </g>
    <g id="ytick_4">
     <g id="line2d_11">
      <g>
       <use style="fill:#ffffff;stroke:#ffffff;stroke-width:0.8;" x="78.477829" xlink:href="#mb532c49a67" y="173.073062"/>
      </g>
     </g>
     <g id="line2d_12">
      <g>
       <use style="fill:#ffffff;stroke:#ffffff;stroke-width:0.8;" x="523.522171" xlink:href="#m666c8d779a" y="173.073062"/>
      </g>
     </g>
     <g id="text_12">
      <!-- $\mathdefault{10^{-6}}$ -->
      <defs>
       <path d="M 24.09375 45 
Q 23.203125 43.84375 22.34375 42.796875 
Q 21.5 41.75 20.75 40.703125 
Q 23.203125 42.296875 26.171875 43.1875 
Q 29.15625 44.09375 32.59375 44.09375 
Q 36.90625 44.09375 40.75 42.6875 
Q 44.59375 41.296875 47.515625 38.5625 
Q 50.453125 35.84375 52.140625 31.84375 
Q 53.84375 27.84375 53.84375 22.703125 
Q 53.84375 17.75 52.046875 13.453125 
Q 50.25 9.15625 46.96875 6 
Q 43.703125 2.84375 39.140625 1.015625 
Q 34.59375 -0.796875 29.09375 -0.796875 
Q 23.59375 -0.796875 19.1875 0.953125 
Q 14.796875 2.703125 11.671875 5.921875 
Q 8.546875 9.15625 6.875 13.703125 
Q 5.203125 18.25 5.203125 23.84375 
Q 5.203125 28.59375 7.265625 33.921875 
Q 9.34375 39.25 13.84375 45.296875 
L 31.90625 69.453125 
Q 32.59375 70.453125 33.9375 71.09375 
Q 35.296875 71.75 36.953125 71.75 
L 45.40625 71.75 
z
M 14.296875 22.203125 
Q 14.296875 18.84375 15.265625 16.0625 
Q 16.25 13.296875 18.125 11.296875 
Q 20 9.296875 22.71875 8.1875 
Q 25.453125 7.09375 28.90625 7.09375 
Q 32.40625 7.09375 35.25 8.21875 
Q 38.09375 9.34375 40.125 11.34375 
Q 42.15625 13.34375 43.25 16.0625 
Q 44.34375 18.796875 44.34375 22 
Q 44.34375 25.453125 43.265625 28.21875 
Q 42.203125 31 40.21875 32.890625 
Q 38.25 34.796875 35.515625 35.8125 
Q 32.796875 36.84375 29.5 36.84375 
Q 26 36.84375 23.171875 35.671875 
Q 20.34375 34.5 18.375 32.46875 
Q 16.40625 30.453125 15.34375 27.796875 
Q 14.296875 25.15625 14.296875 22.203125 
z
" id="Lato-Medium-36"/>
      </defs>
      <g style="fill:#ffffff;" transform="translate(37.817829 179.710562)scale(0.18 -0.18)">
       <use transform="translate(0 0.25)" xlink:href="#Lato-Medium-31"/>
       <use transform="translate(58 0.25)" xlink:href="#Lato-Medium-30"/>
       <use transform="translate(116.888125 35.775)scale(0.7)" xlink:href="#Lato-Medium-2d"/>
       <use transform="translate(142.928123 35.775)scale(0.7)" xlink:href="#Lato-Medium-36"/>
      </g>
     </g>
     <g id="text_13">
      <!-- $\mathdefault{10^{-6}}$ -->
      <g style="fill:#ffffff;" transform="translate(530.522171 179.710562)scale(0.18 -0.18)">
       <use transform="translate(0 0.25)" xlink:href="#Lato-Medium-31"/>
       <use transform="translate(58 0.25)" xlink:href="#Lato-Medium-30"/>
       <use transform="translate(116.888125 35.775)scale(0.7)" xlink:href="#Lato-Medium-2d"/>
       <use transform="translate(142.928123 35.775)scale(0.7)" xlink:href="#Lato-Medium-36"/>
      </g>
     </g>
    </g>
    <g id="ytick_5">
     <g id="line2d_13">
      <g>
       <use style="fill:#ffffff;stroke:#ffffff;stroke-width:0.8;" x="78.477829" xlink:href="#mb532c49a67" y="224.152096"/>
      </g>
     </g>
     <g id="line2d_14">
      <g>
       <use style="fill:#ffffff;stroke:#ffffff;stroke-width:0.8;" x="523.522171" xlink:href="#m666c8d779a" y="224.152096"/>
      </g>
     </g>
     <g id="text_14">
      <!-- $\mathdefault{10^{-8}}$ -->
      <defs>
       <path d="M 29 -0.796875 
Q 23.59375 -0.796875 19.125 0.640625 
Q 14.65625 2.09375 11.453125 4.765625 
Q 8.25 7.453125 6.46875 11.21875 
Q 4.703125 15 4.703125 19.703125 
Q 4.703125 26.546875 8.21875 31 
Q 11.75 35.453125 18.453125 37.40625 
Q 12.84375 39.5 10 43.671875 
Q 7.15625 47.84375 7.15625 53.65625 
Q 7.15625 57.65625 8.71875 61.09375 
Q 10.296875 64.546875 13.171875 67.09375 
Q 16.046875 69.65625 20.0625 71.09375 
Q 24.09375 72.546875 29 72.546875 
Q 33.90625 72.546875 37.921875 71.09375 
Q 41.953125 69.65625 44.828125 67.09375 
Q 47.703125 64.546875 49.265625 61.09375 
Q 50.84375 57.65625 50.84375 53.65625 
Q 50.84375 47.84375 47.96875 43.671875 
Q 45.09375 39.5 39.5 37.40625 
Q 46.203125 35.453125 49.75 31 
Q 53.296875 26.546875 53.296875 19.703125 
Q 53.296875 15 51.515625 11.21875 
Q 49.75 7.453125 46.546875 4.765625 
Q 43.34375 2.09375 38.875 0.640625 
Q 34.40625 -0.796875 29 -0.796875 
z
M 29 6.75 
Q 32.453125 6.75 35.140625 7.71875 
Q 37.84375 8.703125 39.71875 10.453125 
Q 41.59375 12.203125 42.5625 14.59375 
Q 43.546875 17 43.546875 19.90625 
Q 43.546875 23.453125 42.375 26 
Q 41.203125 28.546875 39.203125 30.171875 
Q 37.203125 31.796875 34.546875 32.5625 
Q 31.90625 33.34375 29 33.34375 
Q 26.046875 33.34375 23.421875 32.5625 
Q 20.796875 31.796875 18.796875 30.171875 
Q 16.796875 28.546875 15.625 26 
Q 14.453125 23.453125 14.453125 19.90625 
Q 14.453125 17 15.421875 14.59375 
Q 16.40625 12.203125 18.28125 10.453125 
Q 20.15625 8.703125 22.84375 7.71875 
Q 25.546875 6.75 29 6.75 
z
M 29 40.953125 
Q 32.453125 40.953125 34.828125 42 
Q 37.203125 43.046875 38.703125 44.796875 
Q 40.203125 46.546875 40.875 48.796875 
Q 41.546875 51.046875 41.546875 53.453125 
Q 41.546875 55.84375 40.765625 58 
Q 40 60.15625 38.421875 61.78125 
Q 36.84375 63.40625 34.5 64.328125 
Q 32.15625 65.25 29 65.25 
Q 25.84375 65.25 23.5 64.328125 
Q 21.15625 63.40625 19.578125 61.78125 
Q 18 60.15625 17.21875 58 
Q 16.453125 55.84375 16.453125 53.453125 
Q 16.453125 51.046875 17.125 48.796875 
Q 17.796875 46.546875 19.296875 44.796875 
Q 20.796875 43.046875 23.171875 42 
Q 25.546875 40.953125 29 40.953125 
z
" id="Lato-Medium-38"/>
      </defs>
      <g style="fill:#ffffff;" transform="translate(37.817829 230.789596)scale(0.18 -0.18)">
       <use transform="translate(0 0.692188)" xlink:href="#Lato-Medium-31"/>
       <use transform="translate(58 0.692188)" xlink:href="#Lato-Medium-30"/>
       <use transform="translate(116.888125 36.217188)scale(0.7)" xlink:href="#Lato-Medium-2d"/>
       <use transform="translate(142.928123 36.217188)scale(0.7)" xlink:href="#Lato-Medium-38"/>
      </g>
     </g>
     <g id="text_15">
      <!-- $\mathdefault{10^{-8}}$ -->
      <g style="fill:#ffffff;" transform="translate(530.522171 230.789596)scale(0.18 -0.18)">
       <use transform="translate(0 0.692188)" xlink:href="#Lato-Medium-31"/>
       <use transform="translate(58 0.692188)" xlink:href="#Lato-Medium-30"/>
       <use transform="translate(116.888125 36.217188)scale(0.7)" xlink:href="#Lato-Medium-2d"/>
       <use transform="translate(142.928123 36.217188)scale(0.7)" xlink:href="#Lato-Medium-38"/>
      </g>
     </g>
    </g>
    <g id="text_16">
     <!-- $\Omega$ -->
     <defs>
      <path d="M 7.71875 0 
L 4.390625 16.609375 
L 7.328125 16.609375 
Q 7.859375 13.71875 8.296875 11.5 
Q 8.734375 9.28125 9.4375 8.375 
Q 10.15625 7.46875 11.71875 7.171875 
Q 13.28125 6.890625 16.890625 6.890625 
L 23 6.890625 
Q 21.53125 12.546875 15.6875 21.65625 
Q 9.859375 30.765625 7.734375 34.890625 
Q 5.609375 39.015625 5.609375 45.515625 
Q 5.609375 53.078125 10.09375 58.765625 
Q 14.59375 64.453125 21.703125 67.484375 
Q 28.8125 70.515625 36.078125 70.515625 
Q 43.3125 70.515625 50.40625 67.484375 
Q 57.515625 64.453125 62 58.71875 
Q 66.5 52.984375 66.5 45.515625 
Q 66.5 40.4375 64.640625 35.9375 
Q 62.796875 31.453125 59.90625 26.953125 
Q 57.03125 22.46875 53.6875 16.9375 
Q 50.34375 11.421875 49.125 6.890625 
L 55.171875 6.890625 
Q 58.84375 6.890625 60.453125 7.171875 
Q 62.0625 7.46875 62.734375 8.375 
Q 63.421875 9.28125 63.84375 11.5 
Q 64.265625 13.71875 64.796875 16.609375 
L 67.671875 16.609375 
L 64.40625 0 
L 46.6875 0 
Q 45.703125 0 45.703125 1.3125 
Q 45.703125 6.390625 46.9375 11.265625 
Q 48.1875 16.15625 50.625 23.09375 
Q 53.078125 30.03125 54.4375 35.328125 
Q 55.8125 40.625 55.8125 45.515625 
Q 55.8125 51.515625 53.46875 56.640625 
Q 51.125 61.765625 46.625 64.84375 
Q 42.140625 67.921875 36.078125 67.921875 
Q 26.953125 67.921875 21.625 61.40625 
Q 16.3125 54.890625 16.3125 45.515625 
Q 16.359375 40.375 17.53125 35.828125 
Q 18.703125 31.296875 21.3125 23.71875 
Q 23.921875 16.15625 25.171875 11.265625 
Q 26.421875 6.390625 26.421875 1.3125 
Q 26.421875 0 25.390625 0 
z
" id="Cmr10-ad"/>
     </defs>
     <g style="fill:#ffffff;" transform="translate(29.497829 131.844062)rotate(-90)scale(0.24 -0.24)">
      <use transform="translate(0 0.484375)" xlink:href="#Cmr10-ad"/>
     </g>
    </g>
   </g>
   <g id="line2d_15">
    <path clip-path="url(#p5a7f9cc287)" d="M 98.707118 27.524119 
L 233.569039 59.169074 
L 368.430961 121.501823 
L 503.292882 218.644006 
" style="fill:none;stroke:#fbb4ae;stroke-dasharray:5.55,2.4;stroke-dashoffset:0;stroke-width:1.5;"/>
    <defs>
     <path d="M 0 6 
C 1.591219 6 3.117479 5.367802 4.242641 4.242641 
C 5.367802 3.117479 6 1.591219 6 0 
C 6 -1.591219 5.367802 -3.117479 4.242641 -4.242641 
C 3.117479 -5.367802 1.591219 -6 0 -6 
C -1.591219 -6 -3.117479 -5.367802 -4.242641 -4.242641 
C -5.367802 -3.117479 -6 -1.591219 -6 0 
C -6 1.591219 -5.367802 3.117479 -4.242641 4.242641 
C -3.117479 5.367802 -1.591219 6 0 6 
z
" id="mfc122933d6" style="stroke:#fbb4ae;"/>
    </defs>
    <g clip-path="url(#p5a7f9cc287)">
     <use style="fill:#fbb4ae;stroke:#fbb4ae;" x="98.707118" xlink:href="#mfc122933d6" y="27.524119"/>
     <use style="fill:#fbb4ae;stroke:#fbb4ae;" x="233.569039" xlink:href="#mfc122933d6" y="59.169074"/>
     <use style="fill:#fbb4ae;stroke:#fbb4ae;" x="368.430961" xlink:href="#mfc122933d6" y="121.501823"/>
     <use style="fill:#fbb4ae;stroke:#fbb4ae;" x="503.292882" xlink:href="#mfc122933d6" y="218.644006"/>
    </g>
   </g>
   <g id="patch_3">
    <path d="M 78.477829 228.2 
L 78.477829 17.968125 
" style="fill:none;stroke:#ffffff;stroke-linecap:square;stroke-linejoin:miter;stroke-width:0.8;"/>
   </g>
   <g id="patch_4">
    <path d="M 523.522171 228.2 
L 523.522171 17.968125 
" style="fill:none;stroke:#ffffff;stroke-linecap:square;stroke-linejoin:miter;stroke-width:0.8;"/>
   </g>
   <g id="patch_5">
    <path d="M 78.477829 228.2 
L 523.522171 228.2 
" style="fill:none;stroke:#ffffff;stroke-linecap:square;stroke-linejoin:miter;stroke-width:0.8;"/>
   </g>
   <g id="patch_6">
    <path d="M 78.477829 17.968125 
L 523.522171 17.968125 
" style="fill:none;stroke:#ffffff;stroke-linecap:square;stroke-linejoin:miter;stroke-width:0.8;"/>
   </g>
  </g>
 </g>
 <defs>
  <clipPath id="p5a7f9cc287">
   <rect height="210.231875" width="445.044341" x="78.477829" y="17.968125"/>
  </clipPath>
 </defs>
</svg>
