<?xml version="1.0" encoding="UTF-8" standalone="no"?>
<!-- Generator: Adobe Illustrator 14.0.0, SVG Export Plug-In . SVG Version: 6.00 Build 43363)  -->

<svg
   xmlns:dc="http://purl.org/dc/elements/1.1/"
   xmlns:cc="http://creativecommons.org/ns#"
   xmlns:rdf="http://www.w3.org/1999/02/22-rdf-syntax-ns#"
   xmlns:svg="http://www.w3.org/2000/svg"
   xmlns="http://www.w3.org/2000/svg"
   xmlns:xlink="http://www.w3.org/1999/xlink"
   xmlns:sodipodi="http://sodipodi.sourceforge.net/DTD/sodipodi-0.dtd"
   xmlns:inkscape="http://www.inkscape.org/namespaces/inkscape"
   version="1.1"
   x="0px"
   y="0px"
   width="349.75336"
   height="213.71724"
   viewBox="0 0 349.75336 213.71725"
   enable-background="new 0 0 246 322.667"
   xml:space="preserve"
   id="svg4949"
   inkscape:version="0.91 r13725"
   sodipodi:docname="condition-number.svg"><sodipodi:namedview
     pagecolor="#454545"
     bordercolor="#666666"
     borderopacity="1"
     objecttolerance="10"
     gridtolerance="10"
     guidetolerance="10"
     inkscape:pageopacity="1"
     inkscape:pageshadow="2"
     inkscape:window-width="1855"
     inkscape:window-height="1056"
     id="namedview5084"
     showgrid="false"
     inkscape:zoom="2.0161289"
     inkscape:cx="-19.598363"
     inkscape:cy="6.6149593"
     inkscape:window-x="65"
     inkscape:window-y="24"
     inkscape:window-maximized="1"
     inkscape:current-layer="Ebene_1"
     inkscape:object-nodes="true"
     fit-margin-top="8"
     fit-margin-left="8"
     fit-margin-right="8"
     fit-margin-bottom="8"
     inkscape:snap-bbox="true"
     inkscape:snap-bbox-midpoints="true"
     inkscape:snap-object-midpoints="true"
     inkscape:object-paths="true"
     inkscape:snap-bbox-edge-midpoints="true"
     inkscape:snap-global="false"><inkscape:grid
       type="xygrid"
       id="grid5113"
       originx="54.042265"
       originy="-90.765224" /></sodipodi:namedview><metadata
     id="metadata5088"><rdf:RDF><cc:Work
         rdf:about=""><dc:format>image/svg+xml</dc:format><dc:type
           rdf:resource="http://purl.org/dc/dcmitype/StillImage" /><dc:title></dc:title></cc:Work></rdf:RDF></metadata><defs
     id="defs5086"><marker
       inkscape:isstock="true"
       style="overflow:visible"
       id="marker6544"
       refX="0"
       refY="0"
       orient="auto"
       inkscape:stockid="Arrow1Mstart"><path
         transform="matrix(0.4,0,0,0.4,4,0)"
         style="fill:#000000;fill-opacity:1;fill-rule:evenodd;stroke:#000000;stroke-width:1pt;stroke-opacity:1"
         d="M 0,0 5,-5 -12.5,0 5,5 0,0 Z"
         id="path6546"
         inkscape:connector-curvature="0" /></marker><marker
       inkscape:isstock="true"
       style="overflow:visible"
       id="marker6480"
       refX="0"
       refY="0"
       orient="auto"
       inkscape:stockid="Arrow1Mend"><path
         transform="matrix(-0.4,0,0,-0.4,-4,0)"
         style="fill:#ffffff;fill-opacity:1;fill-rule:evenodd;stroke:#ffffff;stroke-width:1pt;stroke-opacity:1"
         d="M 0,0 5,-5 -12.5,0 5,5 0,0 Z"
         id="path6482"
         inkscape:connector-curvature="0" /></marker><marker
       inkscape:stockid="Arrow1Mend"
       orient="auto"
       refY="0"
       refX="0"
       id="marker6417"
       style="overflow:visible"
       inkscape:isstock="true"
       inkscape:collect="always"><path
         id="path4212"
         d="M 0,0 5,-5 -12.5,0 5,5 0,0 Z"
         style="fill:#ffffff;fill-opacity:1;fill-rule:evenodd;stroke:#ffffff;stroke-width:1pt;stroke-opacity:1"
         transform="matrix(-0.4,0,0,-0.4,-4,0)"
         inkscape:connector-curvature="0" /></marker><marker
       inkscape:stockid="Arrow1Mend"
       orient="auto"
       refY="0"
       refX="0"
       id="marker4466"
       style="overflow:visible"
       inkscape:isstock="true"><path
         id="path4468"
         d="M 0,0 5,-5 -12.5,0 5,5 0,0 Z"
         style="fill:#ffffff;fill-opacity:1;fill-rule:evenodd;stroke:#ffffff;stroke-width:1pt;stroke-opacity:1"
         transform="matrix(-0.4,0,0,-0.4,-4,0)"
         inkscape:connector-curvature="0" /></marker><marker
       inkscape:stockid="Arrow1Mend"
       orient="auto"
       refY="0"
       refX="0"
       id="marker4455"
       style="overflow:visible"
       inkscape:isstock="true"><path
         id="path4208"
         d="M 0,0 5,-5 -12.5,0 5,5 0,0 Z"
         style="fill:#ffffff;fill-opacity:1;fill-rule:evenodd;stroke:#ffffff;stroke-width:1pt;stroke-opacity:1"
         transform="matrix(-0.4,0,0,-0.4,-4,0)"
         inkscape:connector-curvature="0" /></marker><linearGradient
       id="linearGradient5445"
       inkscape:collect="always"><stop
         id="stop5447"
         offset="0"
         style="stop-color:#73b8ff;stop-opacity:0.49803922" /><stop
         id="stop5449"
         offset="1"
         style="stop-color:#0051a6;stop-opacity:0.49803922" /></linearGradient><marker
       inkscape:stockid="Arrow1Mend"
       orient="auto"
       refY="0"
       refX="0"
       id="Arrow1Mend"
       style="overflow:visible"
       inkscape:isstock="true"><path
         id="path5138"
         d="M 0,0 5,-5 -12.5,0 5,5 0,0 Z"
         style="fill:#ffffff;fill-opacity:1;fill-rule:evenodd;stroke:#ffffff;stroke-width:1pt;stroke-opacity:1"
         transform="matrix(-0.4,0,0,-0.4,-4,0)"
         inkscape:connector-curvature="0" /></marker><marker
       inkscape:stockid="Arrow1Lend"
       orient="auto"
       refY="0"
       refX="0"
       id="Arrow1Lend"
       style="overflow:visible"
       inkscape:isstock="true"><path
         id="path5132"
         d="M 0,0 5,-5 -12.5,0 5,5 0,0 Z"
         style="fill:#000000;fill-opacity:1;fill-rule:evenodd;stroke:#000000;stroke-width:1pt;stroke-opacity:1"
         transform="matrix(-0.8,0,0,-0.8,-10,0)"
         inkscape:connector-curvature="0" /></marker><radialGradient
       inkscape:collect="always"
       xlink:href="#linearGradient5445"
       id="radialGradient5443"
       cx="144.0435"
       cy="-10.764902"
       fx="144.0435"
       fy="-10.764902"
       r="42.088425"
       gradientUnits="userSpaceOnUse"
       gradientTransform="matrix(3.0551023,0,0,0.8651768,-323.10271,210.45689)" /></defs><g
     id="Ebene_2"
     transform="matrix(1.3029783,0,0,0.89829637,-8.6464791,-33.562608)"
     style="opacity:0.95;fill:#ffffff;fill-opacity:0.225;stroke:none;stroke-width:1.00011253;stroke-miterlimit:4;stroke-dasharray:none" /><g
     id="Ebene_1"
     transform="translate(54.042267,-18.184524)"><g
       id="g5033" /><ellipse
       transform="matrix(0.88492307,-0.46573722,0.46556006,0.88501629,0,0)"
       style="color:#000000;clip-rule:nonzero;display:inline;overflow:visible;visibility:visible;opacity:1;isolation:auto;mix-blend-mode:normal;color-interpolation:sRGB;color-interpolation-filters:linearRGB;solid-color:#000000;solid-opacity:1;fill:url(#radialGradient5443);fill-opacity:1;fill-rule:nonzero;stroke:#ffffff;stroke-width:1;stroke-linecap:butt;stroke-linejoin:miter;stroke-miterlimit:4;stroke-dasharray:none;stroke-dashoffset:0;stroke-opacity:1;color-rendering:auto;image-rendering:auto;shape-rendering:auto;text-rendering:auto;enable-background:accumulate"
       id="path5395"
       cx="48.725327"
       cy="166.93065"
       rx="185.93402"
       ry="52.654797" /><path
       style="fill:none;fill-rule:evenodd;stroke:#ffffff;stroke-width:1px;stroke-linecap:butt;stroke-linejoin:miter;stroke-opacity:1;marker-end:url(#marker6480)"
       d="M 120.8344,125.04315 96.320433,78.442795"
       id="path6369"
       inkscape:connector-curvature="0"
       sodipodi:nodetypes="cc" /><path
       style="fill:none;fill-rule:evenodd;stroke:#ffffff;stroke-width:1px;stroke-linecap:butt;stroke-linejoin:miter;stroke-opacity:1;marker-end:url(#marker6417)"
       d="M 120.8344,125.04315 285.37171,38.446754"
       id="path6371"
       inkscape:connector-curvature="0"
       sodipodi:nodetypes="cc" /><g
       transform="translate(-98.70401,53.072004)"
       style="fill:#ffffff;fill-opacity:1"
       id="g7687"><g
         style="font-style:normal;font-variant:normal;font-weight:normal;font-stretch:normal;letter-spacing:normal;word-spacing:normal;text-anchor:start;fill:#ffffff;fill-opacity:1;fill-rule:evenodd;stroke:#000000;stroke-linecap:butt;stroke-linejoin:miter;stroke-miterlimit:10.43299961;stroke-dasharray:none;stroke-dashoffset:0;stroke-opacity:1"
         id="content"
         transform="matrix(0.49152287,0,0,-0.49152287,-86.016503,266.61207)"
         xml:space="preserve"
         stroke-miterlimit="10.433"
         font-style="normal"
         font-variant="normal"
         font-weight="normal"
         font-stretch="normal"
         font-size-adjust="none"
         letter-spacing="normal"
         word-spacing="normal"><path
           inkscape:connector-curvature="0"
           style="fill:#ffffff;fill-opacity:1;stroke-width:0"
           d="m 522.8,424.58 0.07,0 0.07,0 0.07,0 0.08,0.01 0.09,0 0.09,0 0.09,0.01 0.1,0.01 0.1,0.01 0.1,0.01 0.1,0.02 0.1,0.02 0.1,0.03 0.1,0.02 0.1,0.04 0.1,0.03 0.1,0.05 0.1,0.04 0.09,0.06 0.09,0.05 0.09,0.07 0.08,0.07 0.03,0.04 0.04,0.04 0.04,0.04 0.03,0.05 0.03,0.04 0.04,0.05 0.02,0.05 0.03,0.05 0.03,0.05 0.02,0.06 0.02,0.06 0.02,0.05 0.02,0.07 0.02,0.06 0.01,0.07 0.01,0.07 0.01,0.07 0.01,0.07 0,0.07 0,0.08 c 0,1.2 -1.04,1.2 -1.94,1.2 l -11.35,0 c -7.53,0 -13.06,-8.22 -13.06,-14.15 0,-4.38 2.94,-7.87 7.47,-7.87 l 0.05,1.1 c -2.44,0 -4.43,1.79 -4.43,5.38 0,1.49 0.6,5.58 2.34,8.52 2.09,3.43 5.08,4.13 6.78,4.13 4.18,0 4.58,-3.29 4.58,-4.83 0,-2.34 -1,-6.43 -2.69,-8.97 -1.94,-2.94 -4.63,-4.23 -6.58,-4.23 l 0,0 -0.05,-1.1 c 5.88,0 12.51,6.03 12.51,13.7 0,0.85 0,3.24 -1.55,5.43 z"
           id="path7694" /><path
           inkscape:connector-curvature="0"
           style="fill:#ffffff;fill-opacity:1;stroke-width:0"
           d="m 553.66,409.57 0,0.28 -0.01,0.27 -0.03,0.27 -0.03,0.25 -0.04,0.25 -0.05,0.25 -0.06,0.23 -0.07,0.23 -0.08,0.22 -0.09,0.21 -0.1,0.2 -0.11,0.19 -0.12,0.19 -0.13,0.17 -0.14,0.17 -0.15,0.16 -0.17,0.15 -0.17,0.14 -0.19,0.13 -0.19,0.13 -0.21,0.11 -0.22,0.1 -0.23,0.1 -0.25,0.08 -0.25,0.08 -0.27,0.06 -0.28,0.06 -0.29,0.05 -0.31,0.03 -0.31,0.03 -0.33,0.01 -0.35,0.01 c -2.75,0 -4.64,-1.5 -5.58,-3.25 -0.69,2.48 -2.58,3.25 -5.12,3.25 -2.86,0 -4.71,-1.57 -5.69,-3.38 l -0.03,0 0,3.38 -5.13,-0.39 0,-1.25 c 2.34,0 2.62,-0.24 2.62,-1.95 l 0,-9.04 c 0,-1.5 -0.35,-1.5 -2.62,-1.5 l 0,-1.25 7.99,0 0,1.25 c -2.27,0 -2.62,0 -2.62,1.5 l 0,6.28 c 0,3.66 2.9,5.37 5.2,5.37 2.44,0 2.75,-1.92 2.75,-3.7 l 0,-7.95 c 0,-1.5 -0.35,-1.5 -2.61,-1.5 l 0,-1.25 7.98,0 0,1.25 c -2.27,0 -2.61,0 -2.61,1.5 l 0,6.28 c 0,3.66 2.89,5.37 5.19,5.37 2.44,0 2.76,-1.92 2.76,-3.7 l 0,-7.95 c 0,-1.5 -0.35,-1.5 -2.62,-1.5 l 0,-1.25 7.99,0 0,1.25 c -2.27,0 -2.62,0 -2.62,1.5 z"
           id="path7696" /><path
           inkscape:connector-curvature="0"
           style="fill:#ffffff;fill-opacity:1;stroke-width:0"
           d="m 565.35,420.52 0,0.09 0,0.09 -0.02,0.1 -0.01,0.09 -0.02,0.09 -0.03,0.09 -0.03,0.09 -0.03,0.09 -0.04,0.09 -0.04,0.08 -0.05,0.09 -0.05,0.08 -0.06,0.08 -0.05,0.07 -0.07,0.08 -0.06,0.07 -0.07,0.06 -0.07,0.07 -0.08,0.06 -0.07,0.06 -0.09,0.05 -0.08,0.05 -0.09,0.05 -0.09,0.04 -0.09,0.04 -0.1,0.03 -0.1,0.03 -0.1,0.03 -0.1,0.02 -0.11,0.01 -0.1,0.01 -0.11,0 c -1.05,0 -1.99,-0.84 -1.99,-1.98 0,-1.26 1.01,-2.03 1.99,-2.03 1.11,0 2.01,0.87 2.01,2.03 z"
           id="path7698" /><path
           inkscape:connector-curvature="0"
           style="fill:#ffffff;fill-opacity:1;stroke-width:0"
           d="m 560.06,413.99 0,-1.25 c 2.19,0 2.51,-0.21 2.51,-1.92 l 0,-9.07 c 0,-1.5 -0.35,-1.5 -2.62,-1.5 l 0,-1.25 7.6,0 0,1.25 c -2.02,0 -2.37,0 -2.37,1.47 l 0,12.66 z"
           id="path7700" /><path
           inkscape:connector-curvature="0"
           style="fill:#ffffff;fill-opacity:1;stroke-width:0"
           d="m 587.96,409.57 -0.01,0.28 -0.01,0.27 -0.02,0.27 -0.03,0.25 -0.05,0.25 -0.05,0.25 -0.06,0.23 -0.07,0.23 -0.08,0.22 -0.08,0.21 -0.1,0.2 -0.11,0.19 -0.12,0.19 -0.14,0.17 -0.14,0.17 -0.15,0.16 -0.16,0.15 -0.18,0.14 -0.18,0.13 -0.2,0.13 -0.21,0.11 -0.22,0.1 -0.23,0.1 -0.24,0.08 -0.26,0.08 -0.27,0.06 -0.28,0.06 -0.29,0.05 -0.3,0.03 -0.32,0.03 -0.33,0.01 -0.34,0.01 c -2.86,0 -4.71,-1.57 -5.69,-3.38 l -0.03,0 0,3.38 -5.13,-0.39 0,-1.25 c 2.34,0 2.62,-0.24 2.62,-1.95 l 0,-9.04 c 0,-1.5 -0.35,-1.5 -2.62,-1.5 l 0,-1.25 7.99,0 0,1.25 c -2.27,0 -2.62,0 -2.62,1.5 l 0,6.28 c 0,3.66 2.9,5.37 5.2,5.37 2.44,0 2.75,-1.92 2.75,-3.7 l 0,-7.95 c 0,-1.5 -0.35,-1.5 -2.61,-1.5 l 0,-1.25 7.98,0 0,1.25 c -2.27,0 -2.61,0 -2.61,1.5 z"
           id="path7702" /></g></g><g
       id="g8716"
       style="fill:#ffffff;fill-opacity:1"
       transform="translate(18.412041,44.15893)"><g
         word-spacing="normal"
         letter-spacing="normal"
         font-size-adjust="none"
         font-stretch="normal"
         font-weight="normal"
         font-variant="normal"
         font-style="normal"
         stroke-miterlimit="10.433"
         xml:space="preserve"
         transform="matrix(0.49152287,0,0,-0.49152287,-86.016503,266.61207)"
         id="g8718"
         style="font-style:normal;font-variant:normal;font-weight:normal;font-stretch:normal;letter-spacing:normal;word-spacing:normal;text-anchor:start;fill:#ffffff;fill-opacity:1;fill-rule:evenodd;stroke:#000000;stroke-linecap:butt;stroke-linejoin:miter;stroke-miterlimit:10.43299961;stroke-dasharray:none;stroke-dashoffset:0;stroke-opacity:1"><path
           id="path8724"
           d="m 522.8,424.58 0.07,0 0.07,0 0.07,0 0.08,0.01 0.09,0 0.09,0 0.09,0.01 0.1,0.01 0.1,0.01 0.1,0.01 0.1,0.02 0.1,0.02 0.1,0.03 0.1,0.02 0.1,0.04 0.1,0.03 0.1,0.05 0.1,0.04 0.09,0.06 0.09,0.05 0.09,0.07 0.08,0.07 0.03,0.04 0.04,0.04 0.04,0.04 0.03,0.05 0.03,0.04 0.04,0.05 0.02,0.05 0.03,0.05 0.03,0.05 0.02,0.06 0.02,0.06 0.02,0.05 0.02,0.07 0.02,0.06 0.01,0.07 0.01,0.07 0.01,0.07 0.01,0.07 0,0.07 0,0.08 c 0,1.2 -1.04,1.2 -1.94,1.2 l -11.35,0 c -7.53,0 -13.06,-8.22 -13.06,-14.15 0,-4.38 2.94,-7.87 7.47,-7.87 l 0.05,1.1 c -2.44,0 -4.43,1.79 -4.43,5.38 0,1.49 0.6,5.58 2.34,8.52 2.09,3.43 5.08,4.13 6.78,4.13 4.18,0 4.58,-3.29 4.58,-4.83 0,-2.34 -1,-6.43 -2.69,-8.97 -1.94,-2.94 -4.63,-4.23 -6.58,-4.23 l 0,0 -0.05,-1.1 c 5.88,0 12.51,6.03 12.51,13.7 0,0.85 0,3.24 -1.55,5.43 z"
           style="fill:#ffffff;fill-opacity:1;stroke-width:0"
           inkscape:connector-curvature="0" /><path
           id="path8726"
           d="m 553.66,409.57 0,0.28 -0.01,0.27 -0.03,0.27 -0.03,0.25 -0.04,0.25 -0.05,0.25 -0.06,0.23 -0.07,0.23 -0.08,0.22 -0.09,0.21 -0.1,0.2 -0.11,0.19 -0.12,0.19 -0.13,0.17 -0.14,0.17 -0.15,0.16 -0.17,0.15 -0.17,0.14 -0.19,0.13 -0.19,0.13 -0.21,0.11 -0.22,0.1 -0.23,0.1 -0.25,0.08 -0.25,0.08 -0.27,0.06 -0.28,0.06 -0.29,0.05 -0.31,0.03 -0.31,0.03 -0.33,0.01 -0.35,0.01 c -2.75,0 -4.64,-1.5 -5.58,-3.25 -0.69,2.48 -2.58,3.25 -5.12,3.25 -2.86,0 -4.71,-1.57 -5.69,-3.38 l -0.03,0 0,3.38 -5.13,-0.39 0,-1.25 c 2.34,0 2.62,-0.24 2.62,-1.95 l 0,-9.04 c 0,-1.5 -0.35,-1.5 -2.62,-1.5 l 0,-1.25 7.99,0 0,1.25 c -2.27,0 -2.62,0 -2.62,1.5 l 0,6.28 c 0,3.66 2.9,5.37 5.2,5.37 2.44,0 2.75,-1.92 2.75,-3.7 l 0,-7.95 c 0,-1.5 -0.35,-1.5 -2.61,-1.5 l 0,-1.25 7.98,0 0,1.25 c -2.27,0 -2.61,0 -2.61,1.5 l 0,6.28 c 0,3.66 2.89,5.37 5.19,5.37 2.44,0 2.76,-1.92 2.76,-3.7 l 0,-7.95 c 0,-1.5 -0.35,-1.5 -2.62,-1.5 l 0,-1.25 7.99,0 0,1.25 c -2.27,0 -2.62,0 -2.62,1.5 z"
           style="fill:#ffffff;fill-opacity:1;stroke-width:0"
           inkscape:connector-curvature="0" /><path
           id="path8728"
           d="m 573.55,408.34 0,0.34 0,0.33 -0.01,0.32 -0.01,0.31 -0.01,0.15 -0.02,0.15 -0.01,0.14 -0.02,0.15 -0.03,0.14 -0.02,0.14 -0.03,0.14 -0.04,0.14 -0.04,0.13 -0.04,0.13 -0.05,0.14 -0.06,0.13 -0.06,0.13 -0.07,0.12 -0.07,0.13 -0.08,0.13 -0.09,0.12 -0.1,0.13 -0.1,0.12 -0.11,0.12 -0.12,0.13 -0.13,0.12 -0.14,0.12 -0.14,0.12 c -1.43,1.18 -3.11,1.74 -5.17,1.74 -3.31,0 -5.64,-1.25 -5.64,-3.38 0,-1.12 0.77,-1.71 1.67,-1.71 0.94,0 1.64,0.7 1.64,1.64 0,0.59 -0.28,1.33 -1.22,1.6 1.25,0.87 3.28,0.87 3.49,0.87 1.95,0 4.08,-1.28 4.08,-4.21 l 0,-1.09 0,-0.9 0,-3.45 c 0,-3.35 -2.93,-4.29 -4.5,-4.29 -1.78,0 -3.45,1.18 -3.45,2.89 0,1.92 1.67,4.6 7.95,4.85 l 0,0.9 c -1.92,-0.06 -4.22,-0.17 -6.77,-1.11 -3.13,-1.15 -4.11,-3.07 -4.11,-4.64 0,-3 3.62,-3.87 6.1,-3.87 2.79,0 4.43,1.57 5.16,2.93 0.14,-1.43 1.08,-2.76 2.69,-2.76 0.06,0 3.45,0 3.45,3.32 l 0,1.91 -1.19,0 0,-1.88 c 0,-0.35 0,-2.02 -1.29,-2.02 -1.29,0 -1.29,1.64 -1.29,2.09 z"
           style="fill:#ffffff;fill-opacity:1;stroke-width:0"
           inkscape:connector-curvature="0" /><path
           id="path8730"
           d="m 589.82,406.81 0,0 0,0.01 -0.01,0 0,0 0,0 0,0.01 -0.01,0 0,0.01 -0.01,0 0,0 -0.01,0.01 -0.01,0.01 -0.01,0.02 -0.01,0.01 -0.01,0.01 -0.01,0.01 -0.01,0.02 -0.02,0.01 -0.01,0.02 -0.02,0.02 -0.03,0.03 -0.01,0.02 -0.01,0.01 -0.01,0.02 -0.01,0.01 -0.01,0.01 -0.01,0.02 -0.01,0.01 0,0.01 -0.01,0 0,0.01 0,0 -0.01,0.01 0,0 0,0 0,0.01 0,0 -0.01,0 0,0.01 0,0 0,0 c 0,0.11 2.3,2.58 2.62,2.89 1.22,1.36 2.44,2.69 5.19,2.72 l 0,1.26 -6.38,0 0,-1.26 c 0.59,-0.1 0.7,-0.48 0.7,-0.8 0,-0.07 0,-0.59 -0.52,-1.18 l -2.45,-2.76 -2.89,3.31 c -0.35,0.39 -0.38,0.56 -0.38,0.7 0,0.52 0.48,0.73 0.94,0.73 l 0,1.26 -7.29,0 0,-1.26 c 1.6,0 2.51,0 3.42,-1.04 l 4.35,-5.02 c 0.04,-0.04 0.29,-0.32 0.29,-0.35 0,-0.11 -2.62,-2.97 -2.97,-3.35 -1.29,-1.4 -2.47,-2.69 -5.26,-2.76 l 0,-1.25 6.38,0 0,1.25 c -0.42,0.07 -0.7,0.32 -0.7,0.81 0,0.66 0.38,1.11 0.94,1.71 l 2.44,2.68 3.04,-3.45 c 0.66,-0.73 0.66,-0.8 0.66,-1.01 0,-0.7 -0.8,-0.74 -0.94,-0.74 l 0,-1.25 7.29,0 0,1.25 c -2.34,0 -2.62,0.21 -3.42,1.12 z"
           style="fill:#ffffff;fill-opacity:1;stroke-width:0"
           inkscape:connector-curvature="0" /></g></g></g><g
     id="Ebene_3"
     transform="translate(54.042267,-18.184524)" /></svg>