<?xml version="1.0" encoding="UTF-8" standalone="no"?>
<!-- Generator: Adobe Illustrator 14.0.0, SVG Export Plug-In . SVG Version: 6.00 Build 43363)  -->

<svg
   xmlns:dc="http://purl.org/dc/elements/1.1/"
   xmlns:cc="http://creativecommons.org/ns#"
   xmlns:rdf="http://www.w3.org/1999/02/22-rdf-syntax-ns#"
   xmlns:svg="http://www.w3.org/2000/svg"
   xmlns="http://www.w3.org/2000/svg"
   xmlns:xlink="http://www.w3.org/1999/xlink"
   xmlns:sodipodi="http://sodipodi.sourceforge.net/DTD/sodipodi-0.dtd"
   xmlns:inkscape="http://www.inkscape.org/namespaces/inkscape"
   version="1.1"
   x="0px"
   y="0px"
   width="355.48276"
   height="344.06601"
   viewBox="0 0 355.48276 344.06602"
   enable-background="new 0 0 246 322.667"
   xml:space="preserve"
   id="svg4949"
   inkscape:version="0.91 r13725"
   sodipodi:docname="ellipsoid-plane.svg"><metadata
     id="metadata5088"><rdf:RDF><cc:Work
         rdf:about=""><dc:format>image/svg+xml</dc:format><dc:type
           rdf:resource="http://purl.org/dc/dcmitype/StillImage" /><dc:title></dc:title></cc:Work></rdf:RDF></metadata><defs
     id="defs5086"><marker
       inkscape:stockid="Arrow1Mend"
       orient="auto"
       refY="0"
       refX="0"
       id="marker4466"
       style="overflow:visible"
       inkscape:isstock="true"><path
         id="path4468"
         d="M 0,0 5,-5 -12.5,0 5,5 0,0 Z"
         style="fill:#ffffff;fill-opacity:1;fill-rule:evenodd;stroke:#ffffff;stroke-width:1pt;stroke-opacity:1"
         transform="matrix(-0.4,0,0,-0.4,-4,0)"
         inkscape:connector-curvature="0" /></marker><marker
       inkscape:stockid="Arrow1Mend"
       orient="auto"
       refY="0"
       refX="0"
       id="marker4455"
       style="overflow:visible"
       inkscape:isstock="true"><path
         id="path4208"
         d="M 0,0 5,-5 -12.5,0 5,5 0,0 Z"
         style="fill:#ffffff;fill-opacity:1;fill-rule:evenodd;stroke:#ffffff;stroke-width:1pt;stroke-opacity:1"
         transform="matrix(-0.4,0,0,-0.4,-4,0)"
         inkscape:connector-curvature="0" /></marker><linearGradient
       id="linearGradient5445"
       inkscape:collect="always"><stop
         id="stop5447"
         offset="0"
         style="stop-color:#73b8ff;stop-opacity:0.49803922" /><stop
         id="stop5449"
         offset="1"
         style="stop-color:#0051a6;stop-opacity:0.49803922" /></linearGradient><marker
       inkscape:stockid="Arrow1Mend"
       orient="auto"
       refY="0"
       refX="0"
       id="Arrow1Mend"
       style="overflow:visible"
       inkscape:isstock="true"><path
         id="path5138"
         d="M 0,0 5,-5 -12.5,0 5,5 0,0 Z"
         style="fill:#ffffff;fill-opacity:1;fill-rule:evenodd;stroke:#ffffff;stroke-width:1pt;stroke-opacity:1"
         transform="matrix(-0.4,0,0,-0.4,-4,0)"
         inkscape:connector-curvature="0" /></marker><marker
       inkscape:stockid="Arrow1Lend"
       orient="auto"
       refY="0"
       refX="0"
       id="Arrow1Lend"
       style="overflow:visible"
       inkscape:isstock="true"><path
         id="path5132"
         d="M 0,0 5,-5 -12.5,0 5,5 0,0 Z"
         style="fill:#000000;fill-opacity:1;fill-rule:evenodd;stroke:#000000;stroke-width:1pt;stroke-opacity:1"
         transform="matrix(-0.8,0,0,-0.8,-10,0)"
         inkscape:connector-curvature="0" /></marker><radialGradient
       inkscape:collect="always"
       xlink:href="#linearGradient5445"
       id="radialGradient5443"
       cx="144.0435"
       cy="-10.764902"
       fx="144.0435"
       fy="-10.764902"
       r="42.088425"
       gradientUnits="userSpaceOnUse"
       gradientTransform="matrix(0.68334401,0,0,1.1119892,184.71423,173.34108)" /></defs><sodipodi:namedview
     pagecolor="#454545"
     bordercolor="#666666"
     borderopacity="1"
     objecttolerance="10"
     gridtolerance="10"
     guidetolerance="10"
     inkscape:pageopacity="1"
     inkscape:pageshadow="2"
     inkscape:window-width="1918"
     inkscape:window-height="1078"
     id="namedview5084"
     showgrid="false"
     inkscape:zoom="2.0161289"
     inkscape:cx="87.461604"
     inkscape:cy="211.62059"
     inkscape:window-x="0"
     inkscape:window-y="0"
     inkscape:window-maximized="0"
     inkscape:current-layer="Ebene_1"
     inkscape:object-nodes="false"
     fit-margin-top="4"
     fit-margin-left="4"
     fit-margin-right="4"
     fit-margin-bottom="4"
     inkscape:object-paths="true"><inkscape:grid
       type="xygrid"
       id="grid5113"
       originx="56.198446"
       originy="-20.022405" /></sodipodi:namedview><g
     id="Ebene_2"
     transform="matrix(1.3029783,0,0,0.89829637,-6.4902978,26.043343)"
     style="opacity:0.95;fill:#ffffff;fill-opacity:0.225;stroke:none;stroke-width:1.00011253;stroke-miterlimit:4;stroke-dasharray:none" /><g
     id="Ebene_1"
     transform="translate(56.198448,41.421427)"><path
       style="color:#000000;clip-rule:nonzero;display:inline;overflow:visible;visibility:visible;opacity:1;isolation:auto;mix-blend-mode:normal;color-interpolation:sRGB;color-interpolation-filters:linearRGB;solid-color:#000000;solid-opacity:1;fill:#ffffff;fill-opacity:0.49803922;fill-rule:evenodd;stroke:none;stroke-width:1;stroke-linecap:butt;stroke-linejoin:miter;stroke-miterlimit:4;stroke-dasharray:6, 6;stroke-dashoffset:0;stroke-opacity:1;color-rendering:auto;image-rendering:auto;shape-rendering:auto;text-rendering:auto;enable-background:accumulate"
       d="M 83.214844 137.23438 C 83.212322 137.23437 83.208942 137.23468 83.207031 137.23633 L 12.900391 197.74219 C 12.89848 197.74383 12.897869 197.74609 12.900391 197.74609 L 103.66797 197.74609 L 247.5 197.74609 L 272.41797 197.74609 C 272.42049 197.74609 272.42387 197.74383 272.42578 197.74219 L 342.73242 137.23633 L 342.73047 137.23438 L 247.5 137.23438 L 243.25781 137.23438 A 24.845992 75.447282 58.135435 0 1 220.78711 165.625 A 11.612633 43.986515 84.589954 0 1 219.20508 166.85156 A 11.612633 43.986515 84.589954 0 1 217.22461 168.06445 A 11.612633 43.986515 84.589954 0 1 214.86523 169.25391 A 11.612633 43.986515 84.589954 0 1 212.14648 170.4082 A 11.612633 43.986515 84.589954 0 1 209.10156 171.51367 A 11.612633 43.986515 84.589954 0 1 205.75586 172.55859 A 11.612633 43.986515 84.589954 0 1 202.14453 173.53711 A 11.612633 43.986515 84.589954 0 1 198.30664 174.43555 A 11.612633 43.986515 84.589954 0 1 194.27539 175.24609 A 11.612633 43.986515 84.589954 0 1 190.09375 175.95898 A 11.612633 43.986515 84.589954 0 1 185.80469 176.57031 A 11.612633 43.986515 84.589954 0 1 181.44727 177.07227 A 11.612633 43.986515 84.589954 0 1 177.06836 177.45898 A 11.612633 43.986515 84.589954 0 1 172.71094 177.72852 A 11.612633 43.986515 84.589954 0 1 168.41992 177.875 A 11.612633 43.986515 84.589954 0 1 165.44336 177.90625 A 11.612633 43.986515 84.589954 0 1 161.35938 177.8457 A 11.612633 43.986515 84.589954 0 1 157.45508 177.66211 A 11.612633 43.986515 84.589954 0 1 153.76758 177.35742 A 11.612633 43.986515 84.589954 0 1 150.33398 176.9375 A 11.612633 43.986515 84.589954 0 1 147.1875 176.40234 A 11.612633 43.986515 84.589954 0 1 144.36328 175.76172 A 11.612633 43.986515 84.589954 0 1 141.88477 175.01758 A 11.612633 43.986515 84.589954 0 1 139.78125 174.18164 A 11.612633 43.986515 84.589954 0 1 138.07031 173.25977 A 11.612633 43.986515 84.589954 0 1 136.77148 172.25977 A 11.612633 43.986515 84.589954 0 1 135.89453 171.19531 A 11.612633 43.986515 84.589954 0 1 135.45117 170.07422 A 11.612633 43.986515 84.589954 0 1 135.44531 168.91016 A 11.612633 43.986515 84.589954 0 1 135.87695 167.71289 A 11.612633 43.986515 84.589954 0 1 136.74023 166.49414 A 11.612633 43.986515 84.589954 0 1 137.60938 165.625 A 24.845992 75.447282 58.135435 0 1 178.71875 137.23438 L 145.95312 137.23438 L 103.66797 137.23438 L 83.214844 137.23438 z "
       transform="translate(-56.198448,-41.421427)"
       id="rect4233" /><g
       id="g5033" /><ellipse
       style="color:#000000;clip-rule:nonzero;display:inline;overflow:visible;visibility:visible;opacity:1;isolation:auto;mix-blend-mode:normal;color-interpolation:sRGB;color-interpolation-filters:linearRGB;solid-color:#000000;solid-opacity:1;fill:url(#radialGradient5443);fill-opacity:1;fill-rule:nonzero;stroke:#ffffff;stroke-width:1.22533;stroke-linecap:butt;stroke-linejoin:miter;stroke-miterlimit:4;stroke-dasharray:none;stroke-dashoffset:0;stroke-opacity:1;color-rendering:auto;image-rendering:auto;shape-rendering:auto;text-rendering:auto;enable-background:accumulate"
       id="path5395"
       cx="262.10202"
       cy="186.48257"
       rx="41.588425"
       ry="67.675835"
       transform="matrix(1,0,-0.74592489,0.66603008,0,0)" /><path
       style="color:#000000;clip-rule:nonzero;display:inline;overflow:visible;visibility:visible;opacity:1;isolation:auto;mix-blend-mode:normal;color-interpolation:sRGB;color-interpolation-filters:linearRGB;solid-color:#000000;solid-opacity:1;fill:none;fill-opacity:1;fill-rule:nonzero;stroke:#ffffff;stroke-width:1.22533;stroke-linecap:butt;stroke-linejoin:miter;stroke-miterlimit:4;stroke-dasharray:7.35198024, 7.35198024;stroke-dashoffset:0;stroke-opacity:1;color-rendering:auto;image-rendering:auto;shape-rendering:auto;text-rendering:auto;enable-background:accumulate"
       id="path5395-5"
       sodipodi:type="arc"
       sodipodi:cx="262.10202"
       sodipodi:cy="186.48259"
       sodipodi:rx="41.588425"
       sodipodi:ry="18.440977"
       sodipodi:start="3.1415927"
       sodipodi:end="0"
       d="m 220.5136,186.48259 a 41.588425,18.440977 0 0 1 41.58842,-18.44098 41.588425,18.440977 0 0 1 41.58842,18.44098"
       sodipodi:open="true"
       transform="matrix(1,0,-0.74592489,0.66603008,0,0)" /><path
       style="color:#000000;clip-rule:nonzero;display:inline;overflow:visible;visibility:visible;opacity:1;isolation:auto;mix-blend-mode:normal;color-interpolation:sRGB;color-interpolation-filters:linearRGB;solid-color:#000000;solid-opacity:1;fill:none;fill-opacity:1;fill-rule:nonzero;stroke:#ffffff;stroke-width:1.22533;stroke-linecap:butt;stroke-linejoin:miter;stroke-miterlimit:4;stroke-dasharray:none;stroke-dashoffset:0;stroke-opacity:1;color-rendering:auto;image-rendering:auto;shape-rendering:auto;text-rendering:auto;enable-background:accumulate"
       id="path5395-5-3"
       sodipodi:type="arc"
       sodipodi:cx="262.10202"
       sodipodi:cy="186.48257"
       sodipodi:rx="41.588425"
       sodipodi:ry="18.440977"
       sodipodi:start="0"
       sodipodi:end="3.1415927"
       d="m 303.69044,186.48257 a 41.588425,18.440977 0 0 1 -20.79421,15.97036 41.588425,18.440977 0 0 1 -41.58842,0 41.588425,18.440977 0 0 1 -20.79421,-15.97036"
       sodipodi:open="true"
       transform="matrix(1,0,-0.74592489,0.66603008,0,0)" /></g><g
     id="Ebene_3"
     transform="translate(56.198448,41.421427)" /></svg>