<?xml version="1.0" encoding="utf-8" standalone="no"?>
<!DOCTYPE svg PUBLIC "-//W3C//DTD SVG 1.1//EN"
  "http://www.w3.org/Graphics/SVG/1.1/DTD/svg11.dtd">
<!-- Created with matplotlib (http://matplotlib.org/) -->
<svg height="279pt" version="1.1" viewBox="0 0 424 279" width="424pt" xmlns="http://www.w3.org/2000/svg" xmlns:xlink="http://www.w3.org/1999/xlink">
 <defs>
  <style type="text/css">
*{stroke-linecap:butt;stroke-linejoin:round;}
  </style>
 </defs>
 <g id="figure_1">
  <g id="patch_1">
   <path d="M 0 279.934688 
L 424.8 279.934688 
L 424.8 0 
L 0 0 
z
" style="fill:none;"/>
  </g>
  <g id="axes_1">
   <g id="patch_2">
    <path d="M 10.7 223.6 
L 414.1 223.6 
L 414.1 10.7 
L 10.7 10.7 
z
" style="fill:none;"/>
   </g>
   <g id="patch_3">
    <path clip-path="url(#pfe38156ddb)" d="M 29.036364 223.6 
L 38.204545 223.6 
L 38.204545 220.104105 
L 29.036364 220.104105 
z
" style="fill:#fbb4ae;"/>
   </g>
   <g id="patch_4">
    <path clip-path="url(#pfe38156ddb)" d="M 38.204545 223.6 
L 47.372727 223.6 
L 47.372727 216.60821 
L 38.204545 216.60821 
z
" style="fill:#fbb4ae;"/>
   </g>
   <g id="patch_5">
    <path clip-path="url(#pfe38156ddb)" d="M 47.372727 223.6 
L 56.540909 223.6 
L 56.540909 192.136946 
L 47.372727 192.136946 
z
" style="fill:#fbb4ae;"/>
   </g>
   <g id="patch_6">
    <path clip-path="url(#pfe38156ddb)" d="M 56.540909 223.6 
L 65.709091 223.6 
L 65.709091 206.120525 
L 56.540909 206.120525 
z
" style="fill:#fbb4ae;"/>
   </g>
   <g id="patch_7">
    <path clip-path="url(#pfe38156ddb)" d="M 65.709091 223.6 
L 74.877273 223.6 
L 74.877273 188.641051 
L 65.709091 188.641051 
z
" style="fill:#fbb4ae;"/>
   </g>
   <g id="patch_8">
    <path clip-path="url(#pfe38156ddb)" d="M 74.877273 223.6 
L 84.045455 223.6 
L 84.045455 178.153366 
L 74.877273 178.153366 
z
" style="fill:#fbb4ae;"/>
   </g>
   <g id="patch_9">
    <path clip-path="url(#pfe38156ddb)" d="M 84.045455 223.6 
L 93.213636 223.6 
L 93.213636 164.169787 
L 84.045455 164.169787 
z
" style="fill:#fbb4ae;"/>
   </g>
   <g id="patch_10">
    <path clip-path="url(#pfe38156ddb)" d="M 93.213636 223.6 
L 102.381818 223.6 
L 102.381818 125.714943 
L 93.213636 125.714943 
z
" style="fill:#fbb4ae;"/>
   </g>
   <g id="patch_11">
    <path clip-path="url(#pfe38156ddb)" d="M 102.381818 223.6 
L 111.55 223.6 
L 111.55 76.772414 
L 102.381818 76.772414 
z
" style="fill:#fbb4ae;"/>
   </g>
   <g id="patch_12">
    <path clip-path="url(#pfe38156ddb)" d="M 111.55 223.6 
L 120.718182 223.6 
L 120.718182 83.764204 
L 111.55 83.764204 
z
" style="fill:#fbb4ae;"/>
   </g>
   <g id="patch_13">
    <path clip-path="url(#pfe38156ddb)" d="M 120.718182 223.6 
L 129.886364 223.6 
L 129.886364 87.260099 
L 120.718182 87.260099 
z
" style="fill:#fbb4ae;"/>
   </g>
   <g id="patch_14">
    <path clip-path="url(#pfe38156ddb)" d="M 129.886364 223.6 
L 139.054545 223.6 
L 139.054545 27.829885 
L 129.886364 27.829885 
z
" style="fill:#fbb4ae;"/>
   </g>
   <g id="patch_15">
    <path clip-path="url(#pfe38156ddb)" d="M 139.054545 223.6 
L 148.222727 223.6 
L 148.222727 38.31757 
L 139.054545 38.31757 
z
" style="fill:#fbb4ae;"/>
   </g>
   <g id="patch_16">
    <path clip-path="url(#pfe38156ddb)" d="M 148.222727 223.6 
L 157.390909 223.6 
L 157.390909 52.301149 
L 148.222727 52.301149 
z
" style="fill:#fbb4ae;"/>
   </g>
   <g id="patch_17">
    <path clip-path="url(#pfe38156ddb)" d="M 157.390909 223.6 
L 166.559091 223.6 
L 166.559091 62.788834 
L 157.390909 62.788834 
z
" style="fill:#fbb4ae;"/>
   </g>
   <g id="patch_18">
    <path clip-path="url(#pfe38156ddb)" d="M 166.559091 223.6 
L 175.727273 223.6 
L 175.727273 24.33399 
L 166.559091 24.33399 
z
" style="fill:#fbb4ae;"/>
   </g>
   <g id="patch_19">
    <path clip-path="url(#pfe38156ddb)" d="M 175.727273 223.6 
L 184.895455 223.6 
L 184.895455 20.838095 
L 175.727273 20.838095 
z
" style="fill:#fbb4ae;"/>
   </g>
   <g id="patch_20">
    <path clip-path="url(#pfe38156ddb)" d="M 184.895455 223.6 
L 194.063636 223.6 
L 194.063636 41.813465 
L 184.895455 41.813465 
z
" style="fill:#fbb4ae;"/>
   </g>
   <g id="patch_21">
    <path clip-path="url(#pfe38156ddb)" d="M 194.063636 223.6 
L 203.231818 223.6 
L 203.231818 38.31757 
L 194.063636 38.31757 
z
" style="fill:#fbb4ae;"/>
   </g>
   <g id="patch_22">
    <path clip-path="url(#pfe38156ddb)" d="M 203.231818 223.6 
L 212.4 223.6 
L 212.4 94.251888 
L 203.231818 94.251888 
z
" style="fill:#fbb4ae;"/>
   </g>
   <g id="patch_23">
    <path clip-path="url(#pfe38156ddb)" d="M 212.4 223.6 
L 221.568182 223.6 
L 221.568182 48.805255 
L 212.4 48.805255 
z
" style="fill:#fbb4ae;"/>
   </g>
   <g id="patch_24">
    <path clip-path="url(#pfe38156ddb)" d="M 221.568182 223.6 
L 230.736364 223.6 
L 230.736364 94.251888 
L 221.568182 94.251888 
z
" style="fill:#fbb4ae;"/>
   </g>
   <g id="patch_25">
    <path clip-path="url(#pfe38156ddb)" d="M 230.736364 223.6 
L 239.904545 223.6 
L 239.904545 97.747783 
L 230.736364 97.747783 
z
" style="fill:#fbb4ae;"/>
   </g>
   <g id="patch_26">
    <path clip-path="url(#pfe38156ddb)" d="M 239.904545 223.6 
L 249.072727 223.6 
L 249.072727 73.276519 
L 239.904545 73.276519 
z
" style="fill:#fbb4ae;"/>
   </g>
   <g id="patch_27">
    <path clip-path="url(#pfe38156ddb)" d="M 249.072727 223.6 
L 258.240909 223.6 
L 258.240909 125.714943 
L 249.072727 125.714943 
z
" style="fill:#fbb4ae;"/>
   </g>
   <g id="patch_28">
    <path clip-path="url(#pfe38156ddb)" d="M 258.240909 223.6 
L 267.409091 223.6 
L 267.409091 139.698522 
L 258.240909 139.698522 
z
" style="fill:#fbb4ae;"/>
   </g>
   <g id="patch_29">
    <path clip-path="url(#pfe38156ddb)" d="M 267.409091 223.6 
L 276.577273 223.6 
L 276.577273 118.723153 
L 267.409091 118.723153 
z
" style="fill:#fbb4ae;"/>
   </g>
   <g id="patch_30">
    <path clip-path="url(#pfe38156ddb)" d="M 276.577273 223.6 
L 285.745455 223.6 
L 285.745455 129.210837 
L 276.577273 129.210837 
z
" style="fill:#fbb4ae;"/>
   </g>
   <g id="patch_31">
    <path clip-path="url(#pfe38156ddb)" d="M 285.745455 223.6 
L 294.913636 223.6 
L 294.913636 178.153366 
L 285.745455 178.153366 
z
" style="fill:#fbb4ae;"/>
   </g>
   <g id="patch_32">
    <path clip-path="url(#pfe38156ddb)" d="M 294.913636 223.6 
L 304.081818 223.6 
L 304.081818 164.169787 
L 294.913636 164.169787 
z
" style="fill:#fbb4ae;"/>
   </g>
   <g id="patch_33">
    <path clip-path="url(#pfe38156ddb)" d="M 304.081818 223.6 
L 313.25 223.6 
L 313.25 178.153366 
L 304.081818 178.153366 
z
" style="fill:#fbb4ae;"/>
   </g>
   <g id="patch_34">
    <path clip-path="url(#pfe38156ddb)" d="M 313.25 223.6 
L 322.418182 223.6 
L 322.418182 185.145156 
L 313.25 185.145156 
z
" style="fill:#fbb4ae;"/>
   </g>
   <g id="patch_35">
    <path clip-path="url(#pfe38156ddb)" d="M 322.418182 223.6 
L 331.586364 223.6 
L 331.586364 199.128736 
L 322.418182 199.128736 
z
" style="fill:#fbb4ae;"/>
   </g>
   <g id="patch_36">
    <path clip-path="url(#pfe38156ddb)" d="M 331.586364 223.6 
L 340.754545 223.6 
L 340.754545 209.61642 
L 331.586364 209.61642 
z
" style="fill:#fbb4ae;"/>
   </g>
   <g id="patch_37">
    <path clip-path="url(#pfe38156ddb)" d="M 340.754545 223.6 
L 349.922727 223.6 
L 349.922727 199.128736 
L 340.754545 199.128736 
z
" style="fill:#fbb4ae;"/>
   </g>
   <g id="patch_38">
    <path clip-path="url(#pfe38156ddb)" d="M 349.922727 223.6 
L 359.090909 223.6 
L 359.090909 209.61642 
L 349.922727 209.61642 
z
" style="fill:#fbb4ae;"/>
   </g>
   <g id="patch_39">
    <path clip-path="url(#pfe38156ddb)" d="M 359.090909 223.6 
L 368.259091 223.6 
L 368.259091 220.104105 
L 359.090909 220.104105 
z
" style="fill:#fbb4ae;"/>
   </g>
   <g id="patch_40">
    <path clip-path="url(#pfe38156ddb)" d="M 368.259091 223.6 
L 377.427273 223.6 
L 377.427273 213.112315 
L 368.259091 213.112315 
z
" style="fill:#fbb4ae;"/>
   </g>
   <g id="patch_41">
    <path clip-path="url(#pfe38156ddb)" d="M 377.427273 223.6 
L 386.595455 223.6 
L 386.595455 220.104105 
L 377.427273 220.104105 
z
" style="fill:#fbb4ae;"/>
   </g>
   <g id="patch_42">
    <path clip-path="url(#pfe38156ddb)" d="M 386.595455 223.6 
L 395.763636 223.6 
L 395.763636 220.104105 
L 386.595455 220.104105 
z
" style="fill:#fbb4ae;"/>
   </g>
   <g id="patch_43">
    <path clip-path="url(#pfe38156ddb)" d="M 137.348656 223.6 
L 137.348656 10.7 
L 233.591557 10.7 
L 233.591557 223.6 
z
" style="fill:#ffffff;opacity:0.5;stroke:#ffffff;stroke-linejoin:miter;"/>
   </g>
   <g id="matplotlib.axis_1">
    <g id="xtick_1">
     <g id="line2d_1">
      <defs>
       <path d="M 0 0 
L 0 3.5 
" id="mfbb55cea75" style="stroke:#ffffff;stroke-width:0.8;"/>
      </defs>
      <g>
       <use style="fill:#ffffff;stroke:#ffffff;stroke-width:0.8;" x="47.23648" xlink:href="#mfbb55cea75" y="223.6"/>
      </g>
     </g>
     <g id="text_1">
      <!-- −10 -->
      <defs>
       <path d="M 7.40625 37.15625 
L 50.59375 37.15625 
L 50.59375 29.953125 
L 7.40625 29.953125 
z
" id="Lato-Medium-2212"/>
       <path d="M 12.34375 7.25 
L 27.59375 7.25 
L 27.59375 54.90625 
Q 27.59375 57.09375 27.75 59.453125 
L 15.40625 48.90625 
Q 14.703125 48.34375 14.015625 48.1875 
Q 13.34375 48.046875 12.75 48.171875 
Q 12.15625 48.296875 11.65625 48.59375 
Q 11.15625 48.90625 10.90625 49.25 
L 7.953125 53.40625 
L 29.40625 71.90625 
L 37.09375 71.90625 
L 37.09375 7.25 
L 51.046875 7.25 
L 51.046875 0 
L 12.34375 0 
z
" id="Lato-Medium-31"/>
       <path d="M 55.09375 35.90625 
Q 55.09375 26.5 53.0625 19.59375 
Q 51.046875 12.703125 47.515625 8.171875 
Q 44 3.65625 39.21875 1.453125 
Q 34.453125 -0.75 28.953125 -0.75 
Q 23.453125 -0.75 18.703125 1.453125 
Q 13.953125 3.65625 10.421875 8.171875 
Q 6.90625 12.703125 4.90625 19.59375 
Q 2.90625 26.5 2.90625 35.90625 
Q 2.90625 45.296875 4.90625 52.1875 
Q 6.90625 59.09375 10.421875 63.625 
Q 13.953125 68.15625 18.703125 70.34375 
Q 23.453125 72.546875 28.953125 72.546875 
Q 34.453125 72.546875 39.21875 70.34375 
Q 44 68.15625 47.515625 63.625 
Q 51.046875 59.09375 53.0625 52.1875 
Q 55.09375 45.296875 55.09375 35.90625 
z
M 45.25 35.90625 
Q 45.25 44 43.890625 49.5 
Q 42.546875 55 40.296875 58.34375 
Q 38.046875 61.703125 35.09375 63.125 
Q 32.15625 64.546875 28.953125 64.546875 
Q 25.75 64.546875 22.796875 63.125 
Q 19.84375 61.703125 17.59375 58.34375 
Q 15.34375 55 14.015625 49.5 
Q 12.703125 44 12.703125 35.90625 
Q 12.703125 27.75 14.015625 22.25 
Q 15.34375 16.75 17.59375 13.421875 
Q 19.84375 10.09375 22.796875 8.671875 
Q 25.75 7.25 28.953125 7.25 
Q 32.15625 7.25 35.09375 8.671875 
Q 38.046875 10.09375 40.296875 13.421875 
Q 42.546875 16.75 43.890625 22.25 
Q 45.25 27.75 45.25 35.90625 
z
" id="Lato-Medium-30"/>
      </defs>
      <g style="fill:#ffffff;" transform="translate(31.57648 243.875)scale(0.18 -0.18)">
       <use xlink:href="#Lato-Medium-2212"/>
       <use x="58" xlink:href="#Lato-Medium-31"/>
       <use x="116" xlink:href="#Lato-Medium-30"/>
      </g>
     </g>
    </g>
    <g id="xtick_2">
     <g id="line2d_2">
      <g>
       <use style="fill:#ffffff;stroke:#ffffff;stroke-width:0.8;" x="126.99837" xlink:href="#mfbb55cea75" y="223.6"/>
      </g>
     </g>
     <g id="text_2">
      <!-- 0 -->
      <g style="fill:#ffffff;" transform="translate(121.77837 243.875)scale(0.18 -0.18)">
       <use xlink:href="#Lato-Medium-30"/>
      </g>
     </g>
    </g>
    <g id="xtick_3">
     <g id="line2d_3">
      <g>
       <use style="fill:#ffffff;stroke:#ffffff;stroke-width:0.8;" x="206.760259" xlink:href="#mfbb55cea75" y="223.6"/>
      </g>
     </g>
     <g id="text_3">
      <!-- 10 -->
      <g style="fill:#ffffff;" transform="translate(196.320259 243.875)scale(0.18 -0.18)">
       <use xlink:href="#Lato-Medium-31"/>
       <use x="58" xlink:href="#Lato-Medium-30"/>
      </g>
     </g>
    </g>
    <g id="xtick_4">
     <g id="line2d_4">
      <g>
       <use style="fill:#ffffff;stroke:#ffffff;stroke-width:0.8;" x="286.522149" xlink:href="#mfbb55cea75" y="223.6"/>
      </g>
     </g>
     <g id="text_4">
      <!-- 20 -->
      <defs>
       <path d="M 29.59375 72.546875 
Q 34.25 72.546875 38.203125 71.171875 
Q 42.15625 69.796875 45.046875 67.21875 
Q 47.953125 64.65625 49.59375 60.921875 
Q 51.25 57.203125 51.25 52.5 
Q 51.25 48.5 50.078125 45.078125 
Q 48.90625 41.65625 46.875 38.546875 
Q 44.84375 35.453125 42.171875 32.5 
Q 39.5 29.546875 36.5 26.546875 
L 18.046875 7.75 
Q 20.09375 8.296875 22.1875 8.640625 
Q 24.296875 9 26.203125 9 
L 49.296875 9 
Q 50.84375 9 51.75 8.09375 
Q 52.65625 7.203125 52.65625 5.75 
L 52.65625 0 
L 4.546875 0 
L 4.546875 3.25 
Q 4.546875 4.25 4.96875 5.328125 
Q 5.40625 6.40625 6.296875 7.25 
L 29.046875 30.15625 
Q 31.90625 33.046875 34.203125 35.6875 
Q 36.5 38.34375 38.140625 41 
Q 39.796875 43.65625 40.671875 46.375 
Q 41.546875 49.09375 41.546875 52.203125 
Q 41.546875 55.25 40.59375 57.546875 
Q 39.65625 59.84375 37.96875 61.390625 
Q 36.296875 62.953125 34 63.703125 
Q 31.703125 64.453125 29.046875 64.453125 
Q 26.40625 64.453125 24.203125 63.671875 
Q 22 62.90625 20.265625 61.53125 
Q 18.546875 60.15625 17.375 58.28125 
Q 16.203125 56.40625 15.703125 54.15625 
Q 15.046875 52.296875 13.96875 51.671875 
Q 12.90625 51.046875 10.953125 51.34375 
L 5.953125 52.25 
Q 6.703125 57.203125 8.71875 61 
Q 10.75 64.796875 13.84375 67.375 
Q 16.953125 69.953125 20.953125 71.25 
Q 24.953125 72.546875 29.59375 72.546875 
z
" id="Lato-Medium-32"/>
      </defs>
      <g style="fill:#ffffff;" transform="translate(276.082149 243.875)scale(0.18 -0.18)">
       <use xlink:href="#Lato-Medium-32"/>
       <use x="58" xlink:href="#Lato-Medium-30"/>
      </g>
     </g>
    </g>
    <g id="xtick_5">
     <g id="line2d_5">
      <g>
       <use style="fill:#ffffff;stroke:#ffffff;stroke-width:0.8;" x="366.284039" xlink:href="#mfbb55cea75" y="223.6"/>
      </g>
     </g>
     <g id="text_5">
      <!-- 30 -->
      <defs>
       <path d="M 29.953125 72.546875 
Q 34.59375 72.546875 38.4375 71.21875 
Q 42.296875 69.90625 45.0625 67.46875 
Q 47.84375 65.046875 49.390625 61.671875 
Q 50.953125 58.296875 50.953125 54.203125 
Q 50.953125 50.75 50.09375 48.078125 
Q 49.25 45.40625 47.640625 43.40625 
Q 46.046875 41.40625 43.765625 40.03125 
Q 41.5 38.65625 38.65625 37.75 
Q 45.59375 35.84375 49.0625 31.546875 
Q 52.546875 27.25 52.546875 20.703125 
Q 52.546875 15.65625 50.640625 11.671875 
Q 48.75 7.703125 45.5 4.921875 
Q 42.25 2.15625 37.875 0.671875 
Q 33.5 -0.796875 28.546875 -0.796875 
Q 22.90625 -0.796875 18.84375 0.59375 
Q 14.796875 2 11.9375 4.46875 
Q 9.09375 6.953125 7.25 10.390625 
Q 5.40625 13.84375 4.15625 17.953125 
L 8.25 19.703125 
Q 9.84375 20.40625 11.34375 20.09375 
Q 12.84375 19.796875 13.546875 18.34375 
Q 14.25 16.90625 15.25 15 
Q 16.25 13.09375 17.890625 11.375 
Q 19.546875 9.65625 22.0625 8.46875 
Q 24.59375 7.296875 28.453125 7.296875 
Q 32.09375 7.296875 34.84375 8.5 
Q 37.59375 9.703125 39.421875 11.59375 
Q 41.25 13.5 42.140625 15.828125 
Q 43.046875 18.15625 43.046875 20.453125 
Q 43.046875 23.296875 42.3125 25.640625 
Q 41.59375 28 39.625 29.703125 
Q 37.65625 31.40625 34.125 32.34375 
Q 30.59375 33.296875 25 33.296875 
L 25 40.203125 
Q 29.59375 40.25 32.765625 41.171875 
Q 35.953125 42.09375 37.953125 43.71875 
Q 39.953125 45.34375 40.828125 47.59375 
Q 41.703125 49.84375 41.703125 52.546875 
Q 41.703125 55.546875 40.765625 57.765625 
Q 39.84375 60 38.1875 61.46875 
Q 36.546875 62.953125 34.296875 63.703125 
Q 32.046875 64.453125 29.40625 64.453125 
Q 26.75 64.453125 24.515625 63.671875 
Q 22.296875 62.90625 20.5625 61.53125 
Q 18.84375 60.15625 17.671875 58.28125 
Q 16.5 56.40625 16 54.15625 
Q 15.296875 52.296875 14.265625 51.671875 
Q 13.25 51.046875 11.296875 51.34375 
L 6.296875 52.25 
Q 7 57.203125 9.046875 61 
Q 11.09375 64.796875 14.1875 67.375 
Q 17.296875 69.953125 21.296875 71.25 
Q 25.296875 72.546875 29.953125 72.546875 
z
" id="Lato-Medium-33"/>
      </defs>
      <g style="fill:#ffffff;" transform="translate(355.844039 243.875)scale(0.18 -0.18)">
       <use xlink:href="#Lato-Medium-33"/>
       <use x="58" xlink:href="#Lato-Medium-30"/>
      </g>
     </g>
    </g>
    <g id="text_6">
     <!-- % Excess MSE -->
     <defs>
      <path d="M 36.296875 54.453125 
Q 36.296875 50.25 35 46.953125 
Q 33.703125 43.65625 31.46875 41.34375 
Q 29.25 39.046875 26.34375 37.84375 
Q 23.453125 36.65625 20.25 36.65625 
Q 16.84375 36.65625 13.921875 37.84375 
Q 11 39.046875 8.875 41.34375 
Q 6.75 43.65625 5.515625 46.953125 
Q 4.296875 50.25 4.296875 54.453125 
Q 4.296875 58.75 5.515625 62.09375 
Q 6.75 65.453125 8.875 67.765625 
Q 11 70.09375 13.921875 71.296875 
Q 16.84375 72.5 20.25 72.5 
Q 23.703125 72.5 26.625 71.296875 
Q 29.546875 70.09375 31.6875 67.765625 
Q 33.84375 65.453125 35.0625 62.09375 
Q 36.296875 58.75 36.296875 54.453125 
z
M 28.953125 54.453125 
Q 28.953125 57.65625 28.265625 59.90625 
Q 27.59375 62.15625 26.390625 63.546875 
Q 25.203125 64.953125 23.625 65.578125 
Q 22.046875 66.203125 20.25 66.203125 
Q 18.453125 66.203125 16.890625 65.578125 
Q 15.34375 64.953125 14.1875 63.546875 
Q 13.046875 62.15625 12.375 59.90625 
Q 11.703125 57.65625 11.703125 54.453125 
Q 11.703125 51.296875 12.375 49.09375 
Q 13.046875 46.90625 14.1875 45.53125 
Q 15.34375 44.15625 16.890625 43.53125 
Q 18.453125 42.90625 20.25 42.90625 
Q 22.046875 42.90625 23.625 43.53125 
Q 25.203125 44.15625 26.390625 45.53125 
Q 27.59375 46.90625 28.265625 49.09375 
Q 28.953125 51.296875 28.953125 54.453125 
z
M 61.453125 70.203125 
Q 61.953125 70.796875 62.640625 71.265625 
Q 63.34375 71.75 64.59375 71.75 
L 71.453125 71.75 
L 18.84375 1.5 
Q 18.34375 0.84375 17.59375 0.421875 
Q 16.84375 0 15.84375 0 
L 8.84375 0 
z
M 76.15625 16.953125 
Q 76.15625 12.75 74.84375 9.453125 
Q 73.546875 6.15625 71.3125 3.84375 
Q 69.09375 1.546875 66.1875 0.34375 
Q 63.296875 -0.84375 60.09375 -0.84375 
Q 56.703125 -0.84375 53.765625 0.34375 
Q 50.84375 1.546875 48.6875 3.84375 
Q 46.546875 6.15625 45.34375 9.453125 
Q 44.15625 12.75 44.15625 16.953125 
Q 44.15625 21.25 45.34375 24.59375 
Q 46.546875 27.953125 48.6875 30.265625 
Q 50.84375 32.59375 53.765625 33.796875 
Q 56.703125 35 60.09375 35 
Q 63.5 35 66.453125 33.796875 
Q 69.40625 32.59375 71.546875 30.265625 
Q 73.703125 27.953125 74.921875 24.59375 
Q 76.15625 21.25 76.15625 16.953125 
z
M 68.796875 16.953125 
Q 68.796875 20.15625 68.125 22.40625 
Q 67.453125 24.65625 66.25 26.078125 
Q 65.046875 27.5 63.46875 28.125 
Q 61.90625 28.75 60.09375 28.75 
Q 58.296875 28.75 56.75 28.125 
Q 55.203125 27.5 54.015625 26.078125 
Q 52.84375 24.65625 52.1875 22.40625 
Q 51.546875 20.15625 51.546875 16.953125 
Q 51.546875 13.796875 52.1875 11.59375 
Q 52.84375 9.40625 54.015625 8.03125 
Q 55.203125 6.65625 56.75 6.03125 
Q 58.296875 5.40625 60.09375 5.40625 
Q 61.90625 5.40625 63.46875 6.03125 
Q 65.046875 6.65625 66.25 8.03125 
Q 67.453125 9.40625 68.125 11.59375 
Q 68.796875 13.796875 68.796875 16.953125 
z
" id="Lato-Medium-25"/>
      <path id="Lato-Medium-20"/>
      <path d="M 53.34375 71.75 
L 53.34375 63.34375 
L 19.296875 63.34375 
L 19.296875 40.25 
L 46.75 40.25 
L 46.75 32.15625 
L 19.296875 32.15625 
L 19.296875 8.40625 
L 53.40625 8.40625 
L 53.34375 0 
L 8.953125 0 
L 8.953125 71.75 
z
" id="Lato-Medium-45"/>
      <path d="M 18.75 26.09375 
L 1.703125 50.75 
L 10.796875 50.75 
Q 11.953125 50.75 12.46875 50.390625 
Q 13 50.046875 13.40625 49.34375 
L 25.546875 30.703125 
Q 25.796875 31.40625 26.09375 32.125 
Q 26.40625 32.84375 26.90625 33.59375 
L 37.453125 49.203125 
Q 37.90625 49.953125 38.453125 50.34375 
Q 39 50.75 39.796875 50.75 
L 48.5 50.75 
L 31.453125 26.5 
L 49.203125 0 
L 40.09375 0 
Q 38.953125 0 38.265625 0.59375 
Q 37.59375 1.203125 37.203125 1.953125 
L 24.796875 21.453125 
Q 24.546875 20.65625 24.296875 19.96875 
Q 24.046875 19.296875 23.65625 18.75 
L 12.25 1.953125 
Q 11.75 1.25 11.125 0.625 
Q 10.5 0 9.5 0 
L 1 0 
z
" id="Lato-Medium-78"/>
      <path d="M 42.40625 41.40625 
Q 42 40.84375 41.578125 40.546875 
Q 41.15625 40.25 40.40625 40.25 
Q 39.59375 40.25 38.6875 40.875 
Q 37.796875 41.5 36.5 42.21875 
Q 35.203125 42.953125 33.296875 43.578125 
Q 31.40625 44.203125 28.65625 44.203125 
Q 25 44.203125 22.203125 42.890625 
Q 19.40625 41.59375 17.53125 39.140625 
Q 15.65625 36.703125 14.703125 33.25 
Q 13.75 29.796875 13.75 25.453125 
Q 13.75 20.953125 14.765625 17.453125 
Q 15.796875 13.953125 17.671875 11.546875 
Q 19.546875 9.15625 22.21875 7.90625 
Q 24.90625 6.65625 28.203125 6.65625 
Q 31.40625 6.65625 33.453125 7.421875 
Q 35.5 8.203125 36.84375 9.09375 
Q 38.203125 10 39.125 10.765625 
Q 40.046875 11.546875 41 11.546875 
Q 42.203125 11.546875 42.796875 10.65625 
L 45.5 7.203125 
Q 43.75 5.09375 41.59375 3.59375 
Q 39.453125 2.09375 37 1.140625 
Q 34.546875 0.203125 31.890625 -0.25 
Q 29.25 -0.703125 26.5 -0.703125 
Q 21.75 -0.703125 17.640625 1.046875 
Q 13.546875 2.796875 10.515625 6.140625 
Q 7.5 9.5 5.765625 14.375 
Q 4.046875 19.25 4.046875 25.453125 
Q 4.046875 31.09375 5.625 35.875 
Q 7.203125 40.65625 10.25 44.15625 
Q 13.296875 47.65625 17.765625 49.59375 
Q 22.25 51.546875 28.046875 51.546875 
Q 33.5 51.546875 37.625 49.796875 
Q 41.75 48.046875 44.90625 44.90625 
z
" id="Lato-Medium-63"/>
      <path d="M 27.84375 51.546875 
Q 32.453125 51.546875 36.34375 50.015625 
Q 40.25 48.5 43.09375 45.59375 
Q 45.953125 42.703125 47.546875 38.46875 
Q 49.15625 34.25 49.15625 28.796875 
Q 49.15625 26.59375 48.671875 25.84375 
Q 48.203125 25.09375 46.90625 25.09375 
L 13.40625 25.09375 
Q 13.546875 20.453125 14.71875 17 
Q 15.90625 13.546875 17.921875 11.265625 
Q 19.953125 9 22.796875 7.875 
Q 25.65625 6.75 29.15625 6.75 
Q 32.453125 6.75 34.828125 7.5 
Q 37.203125 8.25 38.921875 9.140625 
Q 40.65625 10.046875 41.84375 10.796875 
Q 43.046875 11.546875 43.953125 11.546875 
Q 45.15625 11.546875 45.703125 10.65625 
L 48.40625 7.203125 
Q 46.65625 5.09375 44.34375 3.625 
Q 42.046875 2.15625 39.390625 1.171875 
Q 36.75 0.203125 33.921875 -0.25 
Q 31.09375 -0.703125 28.34375 -0.703125 
Q 23.09375 -0.703125 18.625 1.0625 
Q 14.15625 2.84375 10.90625 6.265625 
Q 7.65625 9.703125 5.828125 14.765625 
Q 4 19.84375 4 26.453125 
Q 4 31.75 5.640625 36.328125 
Q 7.296875 40.90625 10.375 44.28125 
Q 13.453125 47.65625 17.875 49.59375 
Q 22.296875 51.546875 27.84375 51.546875 
z
M 28 44.59375 
Q 21.75 44.59375 18.171875 40.96875 
Q 14.59375 37.34375 13.703125 30.953125 
L 40.65625 30.953125 
Q 40.65625 33.953125 39.796875 36.453125 
Q 38.953125 38.953125 37.328125 40.75 
Q 35.703125 42.546875 33.34375 43.5625 
Q 31 44.59375 28 44.59375 
z
" id="Lato-Medium-65"/>
      <path d="M 36.703125 42.15625 
Q 36 40.953125 34.75 40.953125 
Q 33.953125 40.953125 32.96875 41.5 
Q 32 42.046875 30.640625 42.71875 
Q 29.296875 43.40625 27.421875 43.953125 
Q 25.546875 44.5 23 44.5 
Q 20.84375 44.5 19.09375 43.953125 
Q 17.34375 43.40625 16.125 42.453125 
Q 14.90625 41.5 14.21875 40.21875 
Q 13.546875 38.953125 13.546875 37.453125 
Q 13.546875 35.546875 14.671875 34.265625 
Q 15.796875 33 17.625 32.078125 
Q 19.453125 31.15625 21.796875 30.421875 
Q 24.15625 29.703125 26.59375 28.890625 
Q 29.046875 28.09375 31.390625 27.0625 
Q 33.75 26.046875 35.578125 24.546875 
Q 37.40625 23.046875 38.53125 20.875 
Q 39.65625 18.703125 39.65625 15.65625 
Q 39.65625 12.09375 38.375 9.09375 
Q 37.09375 6.09375 34.625 3.890625 
Q 32.15625 1.703125 28.546875 0.453125 
Q 24.953125 -0.796875 20.25 -0.796875 
Q 14.953125 -0.796875 10.578125 0.953125 
Q 6.203125 2.703125 3.203125 5.40625 
L 5.40625 9 
Q 5.796875 9.703125 6.390625 10.078125 
Q 7 10.453125 7.90625 10.453125 
Q 8.84375 10.453125 9.84375 9.75 
Q 10.84375 9.046875 12.265625 8.21875 
Q 13.703125 7.40625 15.71875 6.703125 
Q 17.75 6 20.75 6 
Q 23.296875 6 25.171875 6.640625 
Q 27.046875 7.296875 28.296875 8.375 
Q 29.546875 9.453125 30.140625 10.890625 
Q 30.75 12.34375 30.75 13.953125 
Q 30.75 16 29.625 17.34375 
Q 28.5 18.703125 26.671875 19.640625 
Q 24.84375 20.59375 22.5 21.296875 
Q 20.15625 22 17.671875 22.796875 
Q 15.203125 23.59375 12.84375 24.625 
Q 10.5 25.65625 8.671875 27.25 
Q 6.84375 28.84375 5.71875 31.125 
Q 4.59375 33.40625 4.59375 36.703125 
Q 4.59375 39.65625 5.796875 42.34375 
Q 7 45.046875 9.328125 47.09375 
Q 11.65625 49.15625 15.046875 50.34375 
Q 18.453125 51.546875 22.796875 51.546875 
Q 27.796875 51.546875 31.875 49.96875 
Q 35.953125 48.40625 38.796875 45.59375 
z
" id="Lato-Medium-73"/>
      <path d="M 44.40625 26.59375 
Q 45.65625 24.09375 46.75 21.203125 
Q 47.296875 22.65625 47.875 24.03125 
Q 48.453125 25.40625 49.15625 26.703125 
L 72.953125 70 
Q 73.59375 71.25 74.375 71.5 
Q 75.15625 71.75 76.5 71.75 
L 84.15625 71.75 
L 84.15625 0 
L 75.09375 0 
L 75.09375 51.59375 
Q 75.09375 52.703125 75.140625 53.953125 
Q 75.203125 55.203125 75.296875 56.5 
L 51.203125 12.40625 
Q 50.65625 11.25 49.671875 10.640625 
Q 48.703125 10.046875 47.5 10.046875 
L 46.046875 10.046875 
Q 43.5 10.046875 42.296875 12.40625 
L 17.703125 56.703125 
Q 17.796875 55.34375 17.890625 54.046875 
Q 18 52.75 18 51.59375 
L 18 0 
L 8.953125 0 
L 8.953125 71.75 
L 16.59375 71.75 
Q 17.953125 71.75 18.71875 71.5 
Q 19.5 71.25 20.15625 70 
L 44.40625 26.59375 
z
" id="Lato-Medium-4d"/>
      <path d="M 45.90625 60.203125 
Q 45.453125 59.40625 44.921875 59.03125 
Q 44.40625 58.65625 43.546875 58.65625 
Q 42.65625 58.65625 41.5 59.46875 
Q 40.34375 60.296875 38.625 61.3125 
Q 36.90625 62.34375 34.5 63.171875 
Q 32.09375 64 28.75 64 
Q 25.546875 64 23.125 63.171875 
Q 20.703125 62.34375 19.078125 60.890625 
Q 17.453125 59.453125 16.625 57.46875 
Q 15.796875 55.5 15.796875 53.203125 
Q 15.796875 50.25 17.265625 48.34375 
Q 18.75 46.453125 21.140625 45.078125 
Q 23.546875 43.703125 26.625 42.703125 
Q 29.703125 41.703125 32.890625 40.59375 
Q 36.09375 39.5 39.171875 38.125 
Q 42.25 36.75 44.640625 34.625 
Q 47.046875 32.5 48.515625 29.421875 
Q 50 26.34375 50 21.90625 
Q 50 17.15625 48.375 13.03125 
Q 46.75 8.90625 43.640625 5.828125 
Q 40.546875 2.75 36.046875 0.96875 
Q 31.546875 -0.796875 25.796875 -0.796875 
Q 22.34375 -0.796875 19.125 -0.125 
Q 15.90625 0.546875 13.03125 1.765625 
Q 10.15625 3 7.625 4.71875 
Q 5.09375 6.453125 3.09375 8.59375 
L 6.09375 13.5 
Q 6.5 14.09375 7.125 14.46875 
Q 7.75 14.84375 8.5 14.84375 
Q 9.546875 14.84375 10.921875 13.75 
Q 12.296875 12.65625 14.3125 11.328125 
Q 16.34375 10 19.1875 8.890625 
Q 22.046875 7.796875 26.09375 7.796875 
Q 29.453125 7.796875 32.09375 8.6875 
Q 34.75 9.59375 36.578125 11.25 
Q 38.40625 12.90625 39.34375 15.25 
Q 40.296875 17.59375 40.296875 20.453125 
Q 40.296875 23.65625 38.8125 25.671875 
Q 37.34375 27.703125 34.9375 29.046875 
Q 32.546875 30.40625 29.5 31.34375 
Q 26.453125 32.296875 23.21875 33.3125 
Q 20 34.34375 16.953125 35.6875 
Q 13.90625 37.046875 11.5 39.21875 
Q 9.09375 41.40625 7.625 44.65625 
Q 6.15625 47.90625 6.15625 52.703125 
Q 6.15625 56.5 7.65625 60.09375 
Q 9.15625 63.703125 12 66.453125 
Q 14.84375 69.203125 19.015625 70.875 
Q 23.203125 72.546875 28.59375 72.546875 
Q 34.65625 72.546875 39.671875 70.640625 
Q 44.703125 68.75 48.453125 65.15625 
z
" id="Lato-Medium-53"/>
     </defs>
     <g style="fill:#ffffff;" transform="translate(136.599375 268.643438)scale(0.24 -0.24)">
      <use xlink:href="#Lato-Medium-25"/>
      <use x="80.450012" xlink:href="#Lato-Medium-20"/>
      <use x="105.800018" xlink:href="#Lato-Medium-45"/>
      <use x="163.500031" xlink:href="#Lato-Medium-78"/>
      <use x="213.668793" xlink:href="#Lato-Medium-63"/>
      <use x="261.468796" xlink:href="#Lato-Medium-65"/>
      <use x="314.368805" xlink:href="#Lato-Medium-73"/>
      <use x="357.768814" xlink:href="#Lato-Medium-73"/>
      <use x="401.168823" xlink:href="#Lato-Medium-20"/>
      <use x="426.518829" xlink:href="#Lato-Medium-4d"/>
      <use x="519.618851" xlink:href="#Lato-Medium-53"/>
      <use x="573.968857" xlink:href="#Lato-Medium-45"/>
     </g>
    </g>
   </g>
   <g id="matplotlib.axis_2"/>
   <g id="line2d_6">
    <path clip-path="url(#pfe38156ddb)" d="M 183.57734 223.6 
L 183.57734 10.7 
" style="fill:none;stroke:#ffffff;stroke-linecap:square;stroke-width:1.5;"/>
   </g>
   <g id="line2d_7">
    <path clip-path="url(#pfe38156ddb)" d="M 137.348656 223.6 
L 137.348656 10.7 
" style="fill:none;stroke:#ffffff;stroke-dasharray:5.55,2.4;stroke-dashoffset:0;stroke-width:1.5;"/>
   </g>
   <g id="line2d_8">
    <path clip-path="url(#pfe38156ddb)" d="M 233.591557 223.6 
L 233.591557 10.7 
" style="fill:none;stroke:#ffffff;stroke-dasharray:5.55,2.4;stroke-dashoffset:0;stroke-width:1.5;"/>
   </g>
   <g id="patch_44">
    <path d="M 10.7 223.6 
L 10.7 10.7 
" style="fill:none;stroke:#ffffff;stroke-linecap:square;stroke-linejoin:miter;stroke-width:0.8;"/>
   </g>
   <g id="patch_45">
    <path d="M 414.1 223.6 
L 414.1 10.7 
" style="fill:none;stroke:#ffffff;stroke-linecap:square;stroke-linejoin:miter;stroke-width:0.8;"/>
   </g>
   <g id="patch_46">
    <path d="M 10.7 223.6 
L 414.1 223.6 
" style="fill:none;stroke:#ffffff;stroke-linecap:square;stroke-linejoin:miter;stroke-width:0.8;"/>
   </g>
   <g id="patch_47">
    <path d="M 10.7 10.7 
L 414.1 10.7 
" style="fill:none;stroke:#ffffff;stroke-linecap:square;stroke-linejoin:miter;stroke-width:0.8;"/>
   </g>
  </g>
 </g>
 <defs>
  <clipPath id="pfe38156ddb">
   <rect height="212.9" width="403.4" x="10.7" y="10.7"/>
  </clipPath>
 </defs>
</svg>
