<?xml version="1.0" encoding="utf-8" standalone="no"?>
<!DOCTYPE svg PUBLIC "-//W3C//DTD SVG 1.1//EN"
  "http://www.w3.org/Graphics/SVG/1.1/DTD/svg11.dtd">
<!-- Created with matplotlib (http://matplotlib.org/) -->
<svg height="264pt" version="1.1" viewBox="0 0 406 264" width="406pt" xmlns="http://www.w3.org/2000/svg" xmlns:xlink="http://www.w3.org/1999/xlink">
 <defs>
  <style type="text/css">
*{stroke-linecap:butt;stroke-linejoin:round;}
  </style>
 </defs>
 <g id="figure_1">
  <g id="patch_1">
   <path d="M 0 264.063438 
L 406.110395 264.063438 
L 406.110395 0 
L 0 0 
z
" style="fill:none;"/>
  </g>
  <g id="axes_1">
   <g id="patch_2">
    <path d="M 12.42 213.32 
L 393.807681 213.32 
L 393.807681 10.7 
L 12.42 10.7 
z
" style="fill:none;"/>
   </g>
   <g id="patch_3">
    <path clip-path="url(#pb4c3c72514)" d="M 25.022568 213.32 
L 29.632382 213.32 
L 29.632382 194.512632 
L 25.022568 194.512632 
z
" style="fill:#fbb4ae;"/>
   </g>
   <g id="patch_4">
    <path clip-path="url(#pb4c3c72514)" d="M 29.632382 213.32 
L 34.242196 213.32 
L 34.242196 130.058216 
L 29.632382 130.058216 
z
" style="fill:#fbb4ae;"/>
   </g>
   <g id="patch_5">
    <path clip-path="url(#pb4c3c72514)" d="M 34.242196 213.32 
L 38.85201 213.32 
L 38.85201 60.314228 
L 34.242196 60.314228 
z
" style="fill:#fbb4ae;"/>
   </g>
   <g id="patch_6">
    <path clip-path="url(#pb4c3c72514)" d="M 38.85201 213.32 
L 43.461823 213.32 
L 43.461823 46.796432 
L 38.85201 46.796432 
z
" style="fill:#fbb4ae;"/>
   </g>
   <g id="patch_7">
    <path clip-path="url(#pb4c3c72514)" d="M 43.461823 213.32 
L 48.071637 213.32 
L 48.071637 20.348571 
L 43.461823 20.348571 
z
" style="fill:#fbb4ae;"/>
   </g>
   <g id="patch_8">
    <path clip-path="url(#pb4c3c72514)" d="M 48.071637 213.32 
L 52.681451 213.32 
L 52.681451 31.123626 
L 48.071637 31.123626 
z
" style="fill:#fbb4ae;"/>
   </g>
   <g id="patch_9">
    <path clip-path="url(#pb4c3c72514)" d="M 52.681451 213.32 
L 57.291265 213.32 
L 57.291265 45.620972 
L 52.681451 45.620972 
z
" style="fill:#fbb4ae;"/>
   </g>
   <g id="patch_10">
    <path clip-path="url(#pb4c3c72514)" d="M 57.291265 213.32 
L 61.901079 213.32 
L 61.901079 52.869645 
L 57.291265 52.869645 
z
" style="fill:#fbb4ae;"/>
   </g>
   <g id="patch_11">
    <path clip-path="url(#pb4c3c72514)" d="M 61.901079 213.32 
L 66.510893 213.32 
L 66.510893 82.256157 
L 61.901079 82.256157 
z
" style="fill:#fbb4ae;"/>
   </g>
   <g id="patch_12">
    <path clip-path="url(#pb4c3c72514)" d="M 66.510893 213.32 
L 71.120707 213.32 
L 71.120707 94.402582 
L 66.510893 94.402582 
z
" style="fill:#fbb4ae;"/>
   </g>
   <g id="patch_13">
    <path clip-path="url(#pb4c3c72514)" d="M 71.120707 213.32 
L 75.730521 213.32 
L 75.730521 111.054938 
L 71.120707 111.054938 
z
" style="fill:#fbb4ae;"/>
   </g>
   <g id="patch_14">
    <path clip-path="url(#pb4c3c72514)" d="M 75.730521 213.32 
L 80.340335 213.32 
L 80.340335 119.283162 
L 75.730521 119.283162 
z
" style="fill:#fbb4ae;"/>
   </g>
   <g id="patch_15">
    <path clip-path="url(#pb4c3c72514)" d="M 80.340335 213.32 
L 84.950149 213.32 
L 84.950149 120.850442 
L 80.340335 120.850442 
z
" style="fill:#fbb4ae;"/>
   </g>
   <g id="patch_16">
    <path clip-path="url(#pb4c3c72514)" d="M 84.950149 213.32 
L 89.559963 213.32 
L 89.559963 124.376824 
L 84.950149 124.376824 
z
" style="fill:#fbb4ae;"/>
   </g>
   <g id="patch_17">
    <path clip-path="url(#pb4c3c72514)" d="M 89.559963 213.32 
L 94.169777 213.32 
L 94.169777 140.63736 
L 89.559963 140.63736 
z
" style="fill:#fbb4ae;"/>
   </g>
   <g id="patch_18">
    <path clip-path="url(#pb4c3c72514)" d="M 94.169777 213.32 
L 98.77959 213.32 
L 98.77959 157.485627 
L 94.169777 157.485627 
z
" style="fill:#fbb4ae;"/>
   </g>
   <g id="patch_19">
    <path clip-path="url(#pb4c3c72514)" d="M 98.77959 213.32 
L 103.389404 213.32 
L 103.389404 144.359652 
L 98.77959 144.359652 
z
" style="fill:#fbb4ae;"/>
   </g>
   <g id="patch_20">
    <path clip-path="url(#pb4c3c72514)" d="M 103.389404 213.32 
L 107.999218 213.32 
L 107.999218 162.775199 
L 103.389404 162.775199 
z
" style="fill:#fbb4ae;"/>
   </g>
   <g id="patch_21">
    <path clip-path="url(#pb4c3c72514)" d="M 107.999218 213.32 
L 112.609032 213.32 
L 112.609032 162.971109 
L 107.999218 162.971109 
z
" style="fill:#fbb4ae;"/>
   </g>
   <g id="patch_22">
    <path clip-path="url(#pb4c3c72514)" d="M 112.609032 213.32 
L 117.218846 213.32 
L 117.218846 168.260682 
L 112.609032 168.260682 
z
" style="fill:#fbb4ae;"/>
   </g>
   <g id="patch_23">
    <path clip-path="url(#pb4c3c72514)" d="M 117.218846 213.32 
L 121.82866 213.32 
L 121.82866 169.044322 
L 117.218846 169.044322 
z
" style="fill:#fbb4ae;"/>
   </g>
   <g id="patch_24">
    <path clip-path="url(#pb4c3c72514)" d="M 121.82866 213.32 
L 126.438474 213.32 
L 126.438474 172.962524 
L 121.82866 172.962524 
z
" style="fill:#fbb4ae;"/>
   </g>
   <g id="patch_25">
    <path clip-path="url(#pb4c3c72514)" d="M 126.438474 213.32 
L 131.048288 213.32 
L 131.048288 180.994837 
L 126.438474 180.994837 
z
" style="fill:#fbb4ae;"/>
   </g>
   <g id="patch_26">
    <path clip-path="url(#pb4c3c72514)" d="M 131.048288 213.32 
L 135.658102 213.32 
L 135.658102 180.015286 
L 131.048288 180.015286 
z
" style="fill:#fbb4ae;"/>
   </g>
   <g id="patch_27">
    <path clip-path="url(#pb4c3c72514)" d="M 135.658102 213.32 
L 140.267916 213.32 
L 140.267916 179.819376 
L 135.658102 179.819376 
z
" style="fill:#fbb4ae;"/>
   </g>
   <g id="patch_28">
    <path clip-path="url(#pb4c3c72514)" d="M 140.267916 213.32 
L 144.87773 213.32 
L 144.87773 182.953938 
L 140.267916 182.953938 
z
" style="fill:#fbb4ae;"/>
   </g>
   <g id="patch_29">
    <path clip-path="url(#pb4c3c72514)" d="M 144.87773 213.32 
L 149.487544 213.32 
L 149.487544 186.284409 
L 144.87773 186.284409 
z
" style="fill:#fbb4ae;"/>
   </g>
   <g id="patch_30">
    <path clip-path="url(#pb4c3c72514)" d="M 149.487544 213.32 
L 154.097357 213.32 
L 154.097357 184.129398 
L 149.487544 184.129398 
z
" style="fill:#fbb4ae;"/>
   </g>
   <g id="patch_31">
    <path clip-path="url(#pb4c3c72514)" d="M 154.097357 213.32 
L 158.707171 213.32 
L 158.707171 183.345758 
L 154.097357 183.345758 
z
" style="fill:#fbb4ae;"/>
   </g>
   <g id="patch_32">
    <path clip-path="url(#pb4c3c72514)" d="M 158.707171 213.32 
L 163.316985 213.32 
L 163.316985 191.573981 
L 158.707171 191.573981 
z
" style="fill:#fbb4ae;"/>
   </g>
   <g id="patch_33">
    <path clip-path="url(#pb4c3c72514)" d="M 163.316985 213.32 
L 167.926799 213.32 
L 167.926799 194.120812 
L 163.316985 194.120812 
z
" style="fill:#fbb4ae;"/>
   </g>
   <g id="patch_34">
    <path clip-path="url(#pb4c3c72514)" d="M 167.926799 213.32 
L 172.536613 213.32 
L 172.536613 190.986251 
L 167.926799 190.986251 
z
" style="fill:#fbb4ae;"/>
   </g>
   <g id="patch_35">
    <path clip-path="url(#pb4c3c72514)" d="M 172.536613 213.32 
L 177.146427 213.32 
L 177.146427 195.688093 
L 172.536613 195.688093 
z
" style="fill:#fbb4ae;"/>
   </g>
   <g id="patch_36">
    <path clip-path="url(#pb4c3c72514)" d="M 177.146427 213.32 
L 181.756241 213.32 
L 181.756241 194.120812 
L 177.146427 194.120812 
z
" style="fill:#fbb4ae;"/>
   </g>
   <g id="patch_37">
    <path clip-path="url(#pb4c3c72514)" d="M 181.756241 213.32 
L 186.366055 213.32 
L 186.366055 196.667643 
L 181.756241 196.667643 
z
" style="fill:#fbb4ae;"/>
   </g>
   <g id="patch_38">
    <path clip-path="url(#pb4c3c72514)" d="M 186.366055 213.32 
L 190.975869 213.32 
L 190.975869 197.451284 
L 186.366055 197.451284 
z
" style="fill:#fbb4ae;"/>
   </g>
   <g id="patch_39">
    <path clip-path="url(#pb4c3c72514)" d="M 190.975869 213.32 
L 195.585683 213.32 
L 195.585683 196.471733 
L 190.975869 196.471733 
z
" style="fill:#fbb4ae;"/>
   </g>
   <g id="patch_40">
    <path clip-path="url(#pb4c3c72514)" d="M 195.585683 213.32 
L 200.195497 213.32 
L 200.195497 196.275823 
L 195.585683 196.275823 
z
" style="fill:#fbb4ae;"/>
   </g>
   <g id="patch_41">
    <path clip-path="url(#pb4c3c72514)" d="M 200.195497 213.32 
L 204.805311 213.32 
L 204.805311 197.255373 
L 200.195497 197.255373 
z
" style="fill:#fbb4ae;"/>
   </g>
   <g id="patch_42">
    <path clip-path="url(#pb4c3c72514)" d="M 204.805311 213.32 
L 209.415124 213.32 
L 209.415124 201.761305 
L 204.805311 201.761305 
z
" style="fill:#fbb4ae;"/>
   </g>
   <g id="patch_43">
    <path clip-path="url(#pb4c3c72514)" d="M 209.415124 213.32 
L 214.024938 213.32 
L 214.024938 198.430834 
L 209.415124 198.430834 
z
" style="fill:#fbb4ae;"/>
   </g>
   <g id="patch_44">
    <path clip-path="url(#pb4c3c72514)" d="M 214.024938 213.32 
L 218.634752 213.32 
L 218.634752 199.018564 
L 214.024938 199.018564 
z
" style="fill:#fbb4ae;"/>
   </g>
   <g id="patch_45">
    <path clip-path="url(#pb4c3c72514)" d="M 218.634752 213.32 
L 223.244566 213.32 
L 223.244566 197.451284 
L 218.634752 197.451284 
z
" style="fill:#fbb4ae;"/>
   </g>
   <g id="patch_46">
    <path clip-path="url(#pb4c3c72514)" d="M 223.244566 213.32 
L 227.85438 213.32 
L 227.85438 202.740856 
L 223.244566 202.740856 
z
" style="fill:#fbb4ae;"/>
   </g>
   <g id="patch_47">
    <path clip-path="url(#pb4c3c72514)" d="M 227.85438 213.32 
L 232.464194 213.32 
L 232.464194 202.153125 
L 227.85438 202.153125 
z
" style="fill:#fbb4ae;"/>
   </g>
   <g id="patch_48">
    <path clip-path="url(#pb4c3c72514)" d="M 232.464194 213.32 
L 237.074008 213.32 
L 237.074008 204.504046 
L 232.464194 204.504046 
z
" style="fill:#fbb4ae;"/>
   </g>
   <g id="patch_49">
    <path clip-path="url(#pb4c3c72514)" d="M 237.074008 213.32 
L 241.683822 213.32 
L 241.683822 201.957215 
L 237.074008 201.957215 
z
" style="fill:#fbb4ae;"/>
   </g>
   <g id="patch_50">
    <path clip-path="url(#pb4c3c72514)" d="M 241.683822 213.32 
L 246.293636 213.32 
L 246.293636 202.936766 
L 241.683822 202.936766 
z
" style="fill:#fbb4ae;"/>
   </g>
   <g id="patch_51">
    <path clip-path="url(#pb4c3c72514)" d="M 246.293636 213.32 
L 250.90345 213.32 
L 250.90345 203.916316 
L 246.293636 203.916316 
z
" style="fill:#fbb4ae;"/>
   </g>
   <g id="patch_52">
    <path clip-path="url(#pb4c3c72514)" d="M 250.90345 213.32 
L 255.513264 213.32 
L 255.513264 205.875417 
L 250.90345 205.875417 
z
" style="fill:#fbb4ae;"/>
   </g>
   <g id="patch_53">
    <path clip-path="url(#pb4c3c72514)" d="M 255.513264 213.32 
L 260.123078 213.32 
L 260.123078 202.153125 
L 255.513264 202.153125 
z
" style="fill:#fbb4ae;"/>
   </g>
   <g id="patch_54">
    <path clip-path="url(#pb4c3c72514)" d="M 260.123078 213.32 
L 264.732891 213.32 
L 264.732891 204.504046 
L 260.123078 204.504046 
z
" style="fill:#fbb4ae;"/>
   </g>
   <g id="patch_55">
    <path clip-path="url(#pb4c3c72514)" d="M 264.732891 213.32 
L 269.342705 213.32 
L 269.342705 204.504046 
L 264.732891 204.504046 
z
" style="fill:#fbb4ae;"/>
   </g>
   <g id="patch_56">
    <path clip-path="url(#pb4c3c72514)" d="M 269.342705 213.32 
L 273.952519 213.32 
L 273.952519 205.875417 
L 269.342705 205.875417 
z
" style="fill:#fbb4ae;"/>
   </g>
   <g id="patch_57">
    <path clip-path="url(#pb4c3c72514)" d="M 273.952519 213.32 
L 278.562333 213.32 
L 278.562333 203.916316 
L 273.952519 203.916316 
z
" style="fill:#fbb4ae;"/>
   </g>
   <g id="patch_58">
    <path clip-path="url(#pb4c3c72514)" d="M 278.562333 213.32 
L 283.172147 213.32 
L 283.172147 207.638608 
L 278.562333 207.638608 
z
" style="fill:#fbb4ae;"/>
   </g>
   <g id="patch_59">
    <path clip-path="url(#pb4c3c72514)" d="M 283.172147 213.32 
L 287.781961 213.32 
L 287.781961 205.875417 
L 283.172147 205.875417 
z
" style="fill:#fbb4ae;"/>
   </g>
   <g id="patch_60">
    <path clip-path="url(#pb4c3c72514)" d="M 287.781961 213.32 
L 292.391775 213.32 
L 292.391775 205.483597 
L 287.781961 205.483597 
z
" style="fill:#fbb4ae;"/>
   </g>
   <g id="patch_61">
    <path clip-path="url(#pb4c3c72514)" d="M 292.391775 213.32 
L 297.001589 213.32 
L 297.001589 205.483597 
L 292.391775 205.483597 
z
" style="fill:#fbb4ae;"/>
   </g>
   <g id="patch_62">
    <path clip-path="url(#pb4c3c72514)" d="M 297.001589 213.32 
L 301.611403 213.32 
L 301.611403 206.071327 
L 297.001589 206.071327 
z
" style="fill:#fbb4ae;"/>
   </g>
   <g id="patch_63">
    <path clip-path="url(#pb4c3c72514)" d="M 301.611403 213.32 
L 306.221217 213.32 
L 306.221217 207.246788 
L 301.611403 207.246788 
z
" style="fill:#fbb4ae;"/>
   </g>
   <g id="patch_64">
    <path clip-path="url(#pb4c3c72514)" d="M 306.221217 213.32 
L 310.831031 213.32 
L 310.831031 206.463147 
L 306.221217 206.463147 
z
" style="fill:#fbb4ae;"/>
   </g>
   <g id="patch_65">
    <path clip-path="url(#pb4c3c72514)" d="M 310.831031 213.32 
L 315.440845 213.32 
L 315.440845 207.442698 
L 310.831031 207.442698 
z
" style="fill:#fbb4ae;"/>
   </g>
   <g id="patch_66">
    <path clip-path="url(#pb4c3c72514)" d="M 315.440845 213.32 
L 320.050658 213.32 
L 320.050658 207.246788 
L 315.440845 207.246788 
z
" style="fill:#fbb4ae;"/>
   </g>
   <g id="patch_67">
    <path clip-path="url(#pb4c3c72514)" d="M 320.050658 213.32 
L 324.660472 213.32 
L 324.660472 208.226338 
L 320.050658 208.226338 
z
" style="fill:#fbb4ae;"/>
   </g>
   <g id="patch_68">
    <path clip-path="url(#pb4c3c72514)" d="M 324.660472 213.32 
L 329.270286 213.32 
L 329.270286 208.814068 
L 324.660472 208.814068 
z
" style="fill:#fbb4ae;"/>
   </g>
   <g id="patch_69">
    <path clip-path="url(#pb4c3c72514)" d="M 329.270286 213.32 
L 333.8801 213.32 
L 333.8801 208.030428 
L 329.270286 208.030428 
z
" style="fill:#fbb4ae;"/>
   </g>
   <g id="patch_70">
    <path clip-path="url(#pb4c3c72514)" d="M 333.8801 213.32 
L 338.489914 213.32 
L 338.489914 208.422248 
L 333.8801 208.422248 
z
" style="fill:#fbb4ae;"/>
   </g>
   <g id="patch_71">
    <path clip-path="url(#pb4c3c72514)" d="M 338.489914 213.32 
L 343.099728 213.32 
L 343.099728 209.009978 
L 338.489914 209.009978 
z
" style="fill:#fbb4ae;"/>
   </g>
   <g id="patch_72">
    <path clip-path="url(#pb4c3c72514)" d="M 343.099728 213.32 
L 347.709542 213.32 
L 347.709542 208.030428 
L 343.099728 208.030428 
z
" style="fill:#fbb4ae;"/>
   </g>
   <g id="patch_73">
    <path clip-path="url(#pb4c3c72514)" d="M 347.709542 213.32 
L 352.319356 213.32 
L 352.319356 209.205888 
L 347.709542 209.205888 
z
" style="fill:#fbb4ae;"/>
   </g>
   <g id="patch_74">
    <path clip-path="url(#pb4c3c72514)" d="M 352.319356 213.32 
L 356.92917 213.32 
L 356.92917 207.246788 
L 352.319356 207.246788 
z
" style="fill:#fbb4ae;"/>
   </g>
   <g id="patch_75">
    <path clip-path="url(#pb4c3c72514)" d="M 356.92917 213.32 
L 361.538984 213.32 
L 361.538984 209.597708 
L 356.92917 209.597708 
z
" style="fill:#fbb4ae;"/>
   </g>
   <g id="patch_76">
    <path clip-path="url(#pb4c3c72514)" d="M 361.538984 213.32 
L 366.148798 213.32 
L 366.148798 207.442698 
L 361.538984 207.442698 
z
" style="fill:#fbb4ae;"/>
   </g>
   <g id="patch_77">
    <path clip-path="url(#pb4c3c72514)" d="M 366.148798 213.32 
L 370.758612 213.32 
L 370.758612 210.185439 
L 366.148798 210.185439 
z
" style="fill:#fbb4ae;"/>
   </g>
   <g id="patch_78">
    <path clip-path="url(#pb4c3c72514)" d="M 370.758612 213.32 
L 375.368425 213.32 
L 375.368425 208.226338 
L 370.758612 208.226338 
z
" style="fill:#fbb4ae;"/>
   </g>
   <g id="patch_79">
    <path clip-path="url(#pb4c3c72514)" d="M 375.368425 213.32 
L 379.978239 213.32 
L 379.978239 208.226338 
L 375.368425 208.226338 
z
" style="fill:#fbb4ae;"/>
   </g>
   <g id="patch_80">
    <path clip-path="url(#pb4c3c72514)" d="M 379.978239 213.32 
L 384.588053 213.32 
L 384.588053 208.226338 
L 379.978239 208.226338 
z
" style="fill:#fbb4ae;"/>
   </g>
   <g id="patch_81">
    <path clip-path="url(#pb4c3c72514)" d="M 384.588053 213.32 
L 389.197867 213.32 
L 389.197867 207.834518 
L 384.588053 207.834518 
z
" style="fill:#fbb4ae;"/>
   </g>
   <g id="patch_82">
    <path clip-path="url(#pb4c3c72514)" d="M 389.197867 213.32 
L 393.807681 213.32 
L 393.807681 209.009978 
L 389.197867 209.009978 
z
" style="fill:#fbb4ae;"/>
   </g>
   <g id="patch_83">
    <path clip-path="url(#pb4c3c72514)" d="M 52.828864 213.32 
L 52.828864 10.7 
L 161.170711 10.7 
L 161.170711 213.32 
z
" style="fill:#ffffff;opacity:0.5;stroke:#ffffff;stroke-linejoin:miter;"/>
   </g>
   <g id="matplotlib.axis_1">
    <g id="xtick_1">
     <g id="line2d_1">
      <defs>
       <path d="M 0 0 
L 0 3.5 
" id="m2b29ef7820" style="stroke:#ffffff;stroke-width:0.8;"/>
      </defs>
      <g>
       <use style="fill:#ffffff;stroke:#ffffff;stroke-width:0.8;" x="12.42" xlink:href="#m2b29ef7820" y="213.32"/>
      </g>
     </g>
     <g id="text_1">
      <!-- 0 -->
      <defs>
       <path d="M 55.09375 35.90625 
Q 55.09375 26.5 53.0625 19.59375 
Q 51.046875 12.703125 47.515625 8.171875 
Q 44 3.65625 39.21875 1.453125 
Q 34.453125 -0.75 28.953125 -0.75 
Q 23.453125 -0.75 18.703125 1.453125 
Q 13.953125 3.65625 10.421875 8.171875 
Q 6.90625 12.703125 4.90625 19.59375 
Q 2.90625 26.5 2.90625 35.90625 
Q 2.90625 45.296875 4.90625 52.1875 
Q 6.90625 59.09375 10.421875 63.625 
Q 13.953125 68.15625 18.703125 70.34375 
Q 23.453125 72.546875 28.953125 72.546875 
Q 34.453125 72.546875 39.21875 70.34375 
Q 44 68.15625 47.515625 63.625 
Q 51.046875 59.09375 53.0625 52.1875 
Q 55.09375 45.296875 55.09375 35.90625 
z
M 45.25 35.90625 
Q 45.25 44 43.890625 49.5 
Q 42.546875 55 40.296875 58.34375 
Q 38.046875 61.703125 35.09375 63.125 
Q 32.15625 64.546875 28.953125 64.546875 
Q 25.75 64.546875 22.796875 63.125 
Q 19.84375 61.703125 17.59375 58.34375 
Q 15.34375 55 14.015625 49.5 
Q 12.703125 44 12.703125 35.90625 
Q 12.703125 27.75 14.015625 22.25 
Q 15.34375 16.75 17.59375 13.421875 
Q 19.84375 10.09375 22.796875 8.671875 
Q 25.75 7.25 28.953125 7.25 
Q 32.15625 7.25 35.09375 8.671875 
Q 38.046875 10.09375 40.296875 13.421875 
Q 42.546875 16.75 43.890625 22.25 
Q 45.25 27.75 45.25 35.90625 
z
" id="Lato-Medium-30"/>
      </defs>
      <g style="fill:#ffffff;" transform="translate(7.2 233.595)scale(0.18 -0.18)">
       <use xlink:href="#Lato-Medium-30"/>
      </g>
     </g>
    </g>
    <g id="xtick_2">
     <g id="line2d_2">
      <g>
       <use style="fill:#ffffff;stroke:#ffffff;stroke-width:0.8;" x="86.586079" xlink:href="#m2b29ef7820" y="213.32"/>
      </g>
     </g>
     <g id="text_2">
      <!-- 20 -->
      <defs>
       <path d="M 29.59375 72.546875 
Q 34.25 72.546875 38.203125 71.171875 
Q 42.15625 69.796875 45.046875 67.21875 
Q 47.953125 64.65625 49.59375 60.921875 
Q 51.25 57.203125 51.25 52.5 
Q 51.25 48.5 50.078125 45.078125 
Q 48.90625 41.65625 46.875 38.546875 
Q 44.84375 35.453125 42.171875 32.5 
Q 39.5 29.546875 36.5 26.546875 
L 18.046875 7.75 
Q 20.09375 8.296875 22.1875 8.640625 
Q 24.296875 9 26.203125 9 
L 49.296875 9 
Q 50.84375 9 51.75 8.09375 
Q 52.65625 7.203125 52.65625 5.75 
L 52.65625 0 
L 4.546875 0 
L 4.546875 3.25 
Q 4.546875 4.25 4.96875 5.328125 
Q 5.40625 6.40625 6.296875 7.25 
L 29.046875 30.15625 
Q 31.90625 33.046875 34.203125 35.6875 
Q 36.5 38.34375 38.140625 41 
Q 39.796875 43.65625 40.671875 46.375 
Q 41.546875 49.09375 41.546875 52.203125 
Q 41.546875 55.25 40.59375 57.546875 
Q 39.65625 59.84375 37.96875 61.390625 
Q 36.296875 62.953125 34 63.703125 
Q 31.703125 64.453125 29.046875 64.453125 
Q 26.40625 64.453125 24.203125 63.671875 
Q 22 62.90625 20.265625 61.53125 
Q 18.546875 60.15625 17.375 58.28125 
Q 16.203125 56.40625 15.703125 54.15625 
Q 15.046875 52.296875 13.96875 51.671875 
Q 12.90625 51.046875 10.953125 51.34375 
L 5.953125 52.25 
Q 6.703125 57.203125 8.71875 61 
Q 10.75 64.796875 13.84375 67.375 
Q 16.953125 69.953125 20.953125 71.25 
Q 24.953125 72.546875 29.59375 72.546875 
z
" id="Lato-Medium-32"/>
      </defs>
      <g style="fill:#ffffff;" transform="translate(76.146079 233.595)scale(0.18 -0.18)">
       <use xlink:href="#Lato-Medium-32"/>
       <use x="58" xlink:href="#Lato-Medium-30"/>
      </g>
     </g>
    </g>
    <g id="xtick_3">
     <g id="line2d_3">
      <g>
       <use style="fill:#ffffff;stroke:#ffffff;stroke-width:0.8;" x="160.752158" xlink:href="#m2b29ef7820" y="213.32"/>
      </g>
     </g>
     <g id="text_3">
      <!-- 40 -->
      <defs>
       <path d="M 44.65625 26.09375 
L 55.203125 26.09375 
L 55.203125 20.59375 
Q 55.203125 19.75 54.671875 19.171875 
Q 54.15625 18.59375 53.15625 18.59375 
L 44.65625 18.59375 
L 44.65625 0 
L 36.34375 0 
L 36.34375 18.59375 
L 4.75 18.59375 
Q 3.703125 18.59375 2.953125 19.1875 
Q 2.203125 19.796875 2 20.75 
L 1.046875 25.59375 
L 35.796875 71.796875 
L 44.65625 71.796875 
z
M 36.34375 54.59375 
Q 36.34375 55.953125 36.4375 57.546875 
Q 36.546875 59.15625 36.796875 60.84375 
L 11.296875 26.09375 
L 36.34375 26.09375 
z
" id="Lato-Medium-34"/>
      </defs>
      <g style="fill:#ffffff;" transform="translate(150.312158 233.595)scale(0.18 -0.18)">
       <use xlink:href="#Lato-Medium-34"/>
       <use x="58" xlink:href="#Lato-Medium-30"/>
      </g>
     </g>
    </g>
    <g id="xtick_4">
     <g id="line2d_4">
      <g>
       <use style="fill:#ffffff;stroke:#ffffff;stroke-width:0.8;" x="234.918237" xlink:href="#m2b29ef7820" y="213.32"/>
      </g>
     </g>
     <g id="text_4">
      <!-- 60 -->
      <defs>
       <path d="M 24.09375 45 
Q 23.203125 43.84375 22.34375 42.796875 
Q 21.5 41.75 20.75 40.703125 
Q 23.203125 42.296875 26.171875 43.1875 
Q 29.15625 44.09375 32.59375 44.09375 
Q 36.90625 44.09375 40.75 42.6875 
Q 44.59375 41.296875 47.515625 38.5625 
Q 50.453125 35.84375 52.140625 31.84375 
Q 53.84375 27.84375 53.84375 22.703125 
Q 53.84375 17.75 52.046875 13.453125 
Q 50.25 9.15625 46.96875 6 
Q 43.703125 2.84375 39.140625 1.015625 
Q 34.59375 -0.796875 29.09375 -0.796875 
Q 23.59375 -0.796875 19.1875 0.953125 
Q 14.796875 2.703125 11.671875 5.921875 
Q 8.546875 9.15625 6.875 13.703125 
Q 5.203125 18.25 5.203125 23.84375 
Q 5.203125 28.59375 7.265625 33.921875 
Q 9.34375 39.25 13.84375 45.296875 
L 31.90625 69.453125 
Q 32.59375 70.453125 33.9375 71.09375 
Q 35.296875 71.75 36.953125 71.75 
L 45.40625 71.75 
z
M 14.296875 22.203125 
Q 14.296875 18.84375 15.265625 16.0625 
Q 16.25 13.296875 18.125 11.296875 
Q 20 9.296875 22.71875 8.1875 
Q 25.453125 7.09375 28.90625 7.09375 
Q 32.40625 7.09375 35.25 8.21875 
Q 38.09375 9.34375 40.125 11.34375 
Q 42.15625 13.34375 43.25 16.0625 
Q 44.34375 18.796875 44.34375 22 
Q 44.34375 25.453125 43.265625 28.21875 
Q 42.203125 31 40.21875 32.890625 
Q 38.25 34.796875 35.515625 35.8125 
Q 32.796875 36.84375 29.5 36.84375 
Q 26 36.84375 23.171875 35.671875 
Q 20.34375 34.5 18.375 32.46875 
Q 16.40625 30.453125 15.34375 27.796875 
Q 14.296875 25.15625 14.296875 22.203125 
z
" id="Lato-Medium-36"/>
      </defs>
      <g style="fill:#ffffff;" transform="translate(224.478237 233.595)scale(0.18 -0.18)">
       <use xlink:href="#Lato-Medium-36"/>
       <use x="58" xlink:href="#Lato-Medium-30"/>
      </g>
     </g>
    </g>
    <g id="xtick_5">
     <g id="line2d_5">
      <g>
       <use style="fill:#ffffff;stroke:#ffffff;stroke-width:0.8;" x="309.084316" xlink:href="#m2b29ef7820" y="213.32"/>
      </g>
     </g>
     <g id="text_5">
      <!-- 80 -->
      <defs>
       <path d="M 29 -0.796875 
Q 23.59375 -0.796875 19.125 0.640625 
Q 14.65625 2.09375 11.453125 4.765625 
Q 8.25 7.453125 6.46875 11.21875 
Q 4.703125 15 4.703125 19.703125 
Q 4.703125 26.546875 8.21875 31 
Q 11.75 35.453125 18.453125 37.40625 
Q 12.84375 39.5 10 43.671875 
Q 7.15625 47.84375 7.15625 53.65625 
Q 7.15625 57.65625 8.71875 61.09375 
Q 10.296875 64.546875 13.171875 67.09375 
Q 16.046875 69.65625 20.0625 71.09375 
Q 24.09375 72.546875 29 72.546875 
Q 33.90625 72.546875 37.921875 71.09375 
Q 41.953125 69.65625 44.828125 67.09375 
Q 47.703125 64.546875 49.265625 61.09375 
Q 50.84375 57.65625 50.84375 53.65625 
Q 50.84375 47.84375 47.96875 43.671875 
Q 45.09375 39.5 39.5 37.40625 
Q 46.203125 35.453125 49.75 31 
Q 53.296875 26.546875 53.296875 19.703125 
Q 53.296875 15 51.515625 11.21875 
Q 49.75 7.453125 46.546875 4.765625 
Q 43.34375 2.09375 38.875 0.640625 
Q 34.40625 -0.796875 29 -0.796875 
z
M 29 6.75 
Q 32.453125 6.75 35.140625 7.71875 
Q 37.84375 8.703125 39.71875 10.453125 
Q 41.59375 12.203125 42.5625 14.59375 
Q 43.546875 17 43.546875 19.90625 
Q 43.546875 23.453125 42.375 26 
Q 41.203125 28.546875 39.203125 30.171875 
Q 37.203125 31.796875 34.546875 32.5625 
Q 31.90625 33.34375 29 33.34375 
Q 26.046875 33.34375 23.421875 32.5625 
Q 20.796875 31.796875 18.796875 30.171875 
Q 16.796875 28.546875 15.625 26 
Q 14.453125 23.453125 14.453125 19.90625 
Q 14.453125 17 15.421875 14.59375 
Q 16.40625 12.203125 18.28125 10.453125 
Q 20.15625 8.703125 22.84375 7.71875 
Q 25.546875 6.75 29 6.75 
z
M 29 40.953125 
Q 32.453125 40.953125 34.828125 42 
Q 37.203125 43.046875 38.703125 44.796875 
Q 40.203125 46.546875 40.875 48.796875 
Q 41.546875 51.046875 41.546875 53.453125 
Q 41.546875 55.84375 40.765625 58 
Q 40 60.15625 38.421875 61.78125 
Q 36.84375 63.40625 34.5 64.328125 
Q 32.15625 65.25 29 65.25 
Q 25.84375 65.25 23.5 64.328125 
Q 21.15625 63.40625 19.578125 61.78125 
Q 18 60.15625 17.21875 58 
Q 16.453125 55.84375 16.453125 53.453125 
Q 16.453125 51.046875 17.125 48.796875 
Q 17.796875 46.546875 19.296875 44.796875 
Q 20.796875 43.046875 23.171875 42 
Q 25.546875 40.953125 29 40.953125 
z
" id="Lato-Medium-38"/>
      </defs>
      <g style="fill:#ffffff;" transform="translate(298.644316 233.595)scale(0.18 -0.18)">
       <use xlink:href="#Lato-Medium-38"/>
       <use x="58" xlink:href="#Lato-Medium-30"/>
      </g>
     </g>
    </g>
    <g id="xtick_6">
     <g id="line2d_6">
      <g>
       <use style="fill:#ffffff;stroke:#ffffff;stroke-width:0.8;" x="383.250395" xlink:href="#m2b29ef7820" y="213.32"/>
      </g>
     </g>
     <g id="text_6">
      <!-- 100 -->
      <defs>
       <path d="M 12.34375 7.25 
L 27.59375 7.25 
L 27.59375 54.90625 
Q 27.59375 57.09375 27.75 59.453125 
L 15.40625 48.90625 
Q 14.703125 48.34375 14.015625 48.1875 
Q 13.34375 48.046875 12.75 48.171875 
Q 12.15625 48.296875 11.65625 48.59375 
Q 11.15625 48.90625 10.90625 49.25 
L 7.953125 53.40625 
L 29.40625 71.90625 
L 37.09375 71.90625 
L 37.09375 7.25 
L 51.046875 7.25 
L 51.046875 0 
L 12.34375 0 
z
" id="Lato-Medium-31"/>
      </defs>
      <g style="fill:#ffffff;" transform="translate(367.590395 233.595)scale(0.18 -0.18)">
       <use xlink:href="#Lato-Medium-31"/>
       <use x="58" xlink:href="#Lato-Medium-30"/>
       <use x="116" xlink:href="#Lato-Medium-30"/>
      </g>
     </g>
    </g>
    <g id="text_7">
     <!-- $\kappa$ -->
     <defs>
      <path d="M 5.328125 1.703125 
Q 5.328125 2.296875 5.421875 2.59375 
L 14.984375 41.015625 
Q 15.375 42.4375 16.546875 43.3125 
Q 17.71875 44.1875 19.1875 44.1875 
Q 20.453125 44.1875 21.328125 43.421875 
Q 22.21875 42.671875 22.21875 41.40625 
Q 22.21875 41.109375 22.1875 40.9375 
Q 22.171875 40.765625 22.125 40.578125 
L 18.5 26.125 
Q 22.515625 27.4375 29.15625 32.984375 
Q 35.796875 38.53125 39.1875 40.8125 
Q 42.578125 43.109375 47.515625 43.109375 
Q 49.125 43.109375 50.21875 42.109375 
Q 51.3125 41.109375 51.3125 39.40625 
Q 51.3125 37.0625 49.625 35.421875 
Q 47.953125 33.796875 45.609375 33.796875 
Q 44 33.796875 42.890625 34.84375 
Q 41.796875 35.890625 41.796875 37.5 
Q 41.796875 38.625 42.1875 39.40625 
Q 39.796875 38.421875 37.28125 36.65625 
Q 34.765625 34.90625 32.71875 33.125 
Q 30.671875 31.34375 27.78125 28.953125 
Q 24.90625 26.5625 22.609375 25.296875 
Q 26.703125 25.296875 31 24.40625 
Q 35.296875 23.53125 38.453125 21.1875 
Q 41.609375 18.84375 41.609375 14.796875 
Q 41.609375 13.1875 41.21875 12.015625 
Q 40.28125 8.015625 40.28125 6 
Q 40.28125 1.515625 43.40625 1.515625 
Q 46.96875 1.515625 48.875 5.46875 
Q 50.78125 9.421875 52 14.703125 
Q 52.203125 15.28125 52.78125 15.28125 
L 54 15.28125 
Q 54.390625 15.28125 54.640625 15.015625 
Q 54.890625 14.75 54.890625 14.40625 
Q 54.890625 14.3125 54.78125 14.109375 
Q 51.125 -1.125 43.21875 -1.125 
Q 40.375 -1.125 38.203125 0.1875 
Q 36.03125 1.515625 34.859375 3.78125 
Q 33.6875 6.0625 33.6875 8.890625 
Q 33.6875 10.6875 34.078125 12.203125 
Q 34.421875 13.578125 34.421875 14.5 
Q 34.421875 17.71875 31.5625 19.578125 
Q 28.71875 21.4375 24.828125 22.109375 
Q 20.953125 22.796875 17.578125 22.796875 
L 12.5 2.203125 
Q 12.15625 0.828125 10.953125 -0.140625 
Q 9.765625 -1.125 8.296875 -1.125 
Q 7.078125 -1.125 6.203125 -0.34375 
Q 5.328125 0.4375 5.328125 1.703125 
z
" id="Cmmi10-2219"/>
     </defs>
     <g style="fill:#ffffff;" transform="translate(197.893841 253.623438)scale(0.18 -0.18)">
      <use transform="translate(0 0.8125)" xlink:href="#Cmmi10-2219"/>
     </g>
    </g>
   </g>
   <g id="matplotlib.axis_2"/>
   <g id="line2d_7">
    <path clip-path="url(#pb4c3c72514)" d="M 81.985556 213.32 
L 81.985556 10.7 
" style="fill:none;stroke:#ffffff;stroke-linecap:square;stroke-width:1.5;"/>
   </g>
   <g id="line2d_8">
    <path clip-path="url(#pb4c3c72514)" d="M 52.828864 213.32 
L 52.828864 10.7 
" style="fill:none;stroke:#ffffff;stroke-dasharray:5.55,2.4;stroke-dashoffset:0;stroke-width:1.5;"/>
   </g>
   <g id="line2d_9">
    <path clip-path="url(#pb4c3c72514)" d="M 161.170711 213.32 
L 161.170711 10.7 
" style="fill:none;stroke:#ffffff;stroke-dasharray:5.55,2.4;stroke-dashoffset:0;stroke-width:1.5;"/>
   </g>
   <g id="patch_84">
    <path d="M 12.42 213.32 
L 12.42 10.7 
" style="fill:none;stroke:#ffffff;stroke-linecap:square;stroke-linejoin:miter;stroke-width:0.8;"/>
   </g>
   <g id="patch_85">
    <path d="M 393.807681 213.32 
L 393.807681 10.7 
" style="fill:none;stroke:#ffffff;stroke-linecap:square;stroke-linejoin:miter;stroke-width:0.8;"/>
   </g>
   <g id="patch_86">
    <path d="M 12.42 213.32 
L 393.807681 213.32 
" style="fill:none;stroke:#ffffff;stroke-linecap:square;stroke-linejoin:miter;stroke-width:0.8;"/>
   </g>
   <g id="patch_87">
    <path d="M 12.42 10.7 
L 393.807681 10.7 
" style="fill:none;stroke:#ffffff;stroke-linecap:square;stroke-linejoin:miter;stroke-width:0.8;"/>
   </g>
  </g>
 </g>
 <defs>
  <clipPath id="pb4c3c72514">
   <rect height="202.62" width="381.387681" x="12.42" y="10.7"/>
  </clipPath>
 </defs>
</svg>
