<?xml version="1.0" encoding="UTF-8" standalone="no"?>
<!-- Generator: Adobe Illustrator 14.0.0, SVG Export Plug-In . SVG Version: 6.00 Build 43363)  -->

<svg
   xmlns:dc="http://purl.org/dc/elements/1.1/"
   xmlns:cc="http://creativecommons.org/ns#"
   xmlns:rdf="http://www.w3.org/1999/02/22-rdf-syntax-ns#"
   xmlns:svg="http://www.w3.org/2000/svg"
   xmlns="http://www.w3.org/2000/svg"
   xmlns:xlink="http://www.w3.org/1999/xlink"
   xmlns:sodipodi="http://sodipodi.sourceforge.net/DTD/sodipodi-0.dtd"
   xmlns:inkscape="http://www.inkscape.org/namespaces/inkscape"
   version="1.1"
   x="0px"
   y="0px"
   width="355.48276"
   height="344.06601"
   viewBox="0 0 355.48276 344.06602"
   enable-background="new 0 0 246 322.667"
   xml:space="preserve"
   id="svg4949"
   inkscape:version="0.91 r13725"
   sodipodi:docname="sphere-plane.svg"><metadata
     id="metadata5088"><rdf:RDF><cc:Work
         rdf:about=""><dc:format>image/svg+xml</dc:format><dc:type
           rdf:resource="http://purl.org/dc/dcmitype/StillImage" /><dc:title /></cc:Work></rdf:RDF></metadata><defs
     id="defs5086"><marker
       inkscape:stockid="Arrow1Mend"
       orient="auto"
       refY="0"
       refX="0"
       id="marker4466"
       style="overflow:visible"
       inkscape:isstock="true"><path
         id="path4468"
         d="M 0,0 5,-5 -12.5,0 5,5 0,0 Z"
         style="fill:#ffffff;fill-opacity:1;fill-rule:evenodd;stroke:#ffffff;stroke-width:1pt;stroke-opacity:1"
         transform="matrix(-0.4,0,0,-0.4,-4,0)"
         inkscape:connector-curvature="0" /></marker><marker
       inkscape:stockid="Arrow1Mend"
       orient="auto"
       refY="0"
       refX="0"
       id="marker4455"
       style="overflow:visible"
       inkscape:isstock="true"><path
         id="path4208"
         d="M 0,0 5,-5 -12.5,0 5,5 0,0 Z"
         style="fill:#ffffff;fill-opacity:1;fill-rule:evenodd;stroke:#ffffff;stroke-width:1pt;stroke-opacity:1"
         transform="matrix(-0.4,0,0,-0.4,-4,0)"
         inkscape:connector-curvature="0" /></marker><linearGradient
       id="linearGradient5445"
       inkscape:collect="always"><stop
         id="stop5447"
         offset="0"
         style="stop-color:#73b8ff;stop-opacity:0.49803922" /><stop
         id="stop5449"
         offset="1"
         style="stop-color:#0051a6;stop-opacity:0.49803922" /></linearGradient><marker
       inkscape:stockid="Arrow1Mend"
       orient="auto"
       refY="0"
       refX="0"
       id="Arrow1Mend"
       style="overflow:visible"
       inkscape:isstock="true"><path
         id="path5138"
         d="M 0,0 5,-5 -12.5,0 5,5 0,0 Z"
         style="fill:#ffffff;fill-opacity:1;fill-rule:evenodd;stroke:#ffffff;stroke-width:1pt;stroke-opacity:1"
         transform="matrix(-0.4,0,0,-0.4,-4,0)"
         inkscape:connector-curvature="0" /></marker><marker
       inkscape:stockid="Arrow1Lend"
       orient="auto"
       refY="0"
       refX="0"
       id="Arrow1Lend"
       style="overflow:visible"
       inkscape:isstock="true"><path
         id="path5132"
         d="M 0,0 5,-5 -12.5,0 5,5 0,0 Z"
         style="fill:#000000;fill-opacity:1;fill-rule:evenodd;stroke:#000000;stroke-width:1pt;stroke-opacity:1"
         transform="matrix(-0.8,0,0,-0.8,-10,0)"
         inkscape:connector-curvature="0" /></marker><radialGradient
       inkscape:collect="always"
       xlink:href="#linearGradient5445"
       id="radialGradient5443"
       cx="144.0435"
       cy="-10.764902"
       fx="144.0435"
       fy="-10.764902"
       r="42.088425"
       gradientUnits="userSpaceOnUse"
       gradientTransform="matrix(0.68334401,0,0,0.68334401,45.612237,112.65524)" /></defs><sodipodi:namedview
     pagecolor="#454545"
     bordercolor="#666666"
     borderopacity="1"
     objecttolerance="10"
     gridtolerance="10"
     guidetolerance="10"
     inkscape:pageopacity="1"
     inkscape:pageshadow="2"
     inkscape:window-width="1918"
     inkscape:window-height="1078"
     id="namedview5084"
     showgrid="false"
     inkscape:zoom="2.0161289"
     inkscape:cx="5.3735986"
     inkscape:cy="152.10059"
     inkscape:window-x="0"
     inkscape:window-y="0"
     inkscape:window-maximized="0"
     inkscape:current-layer="Ebene_1"
     inkscape:object-nodes="false"
     fit-margin-top="4"
     fit-margin-left="4"
     fit-margin-right="4"
     fit-margin-bottom="4"><inkscape:grid
       type="xygrid"
       id="grid5113"
       originx="56.198446"
       originy="-20.022405" /></sodipodi:namedview><g
     id="Ebene_2"
     transform="matrix(1.3029783,0,0,0.89829637,-6.4902978,26.043343)"
     style="opacity:0.95;fill:#ffffff;fill-opacity:0.225;stroke:none;stroke-width:1.00011253;stroke-miterlimit:4;stroke-dasharray:none" /><g
     id="Ebene_1"
     transform="translate(56.198448,41.421427)"><g
       id="g5033" /><circle
       style="color:#000000;clip-rule:nonzero;display:inline;overflow:visible;visibility:visible;opacity:1;isolation:auto;mix-blend-mode:normal;color-interpolation:sRGB;color-interpolation-filters:linearRGB;solid-color:#000000;solid-opacity:1;fill:url(#radialGradient5443);fill-opacity:1;fill-rule:nonzero;stroke:#ffffff;stroke-width:1;stroke-linecap:butt;stroke-linejoin:miter;stroke-miterlimit:4;stroke-dasharray:none;stroke-dashoffset:0;stroke-opacity:1;color-rendering:auto;image-rendering:auto;shape-rendering:auto;text-rendering:auto;enable-background:accumulate"
       id="path5395"
       cx="123.00001"
       cy="120.731"
       r="41.588425" /><path
       style="color:#000000;clip-rule:nonzero;display:inline;overflow:visible;visibility:visible;opacity:1;isolation:auto;mix-blend-mode:normal;color-interpolation:sRGB;color-interpolation-filters:linearRGB;solid-color:#000000;solid-opacity:1;fill:none;fill-opacity:1;fill-rule:nonzero;stroke:#ffffff;stroke-width:1;stroke-linecap:butt;stroke-linejoin:miter;stroke-miterlimit:4;stroke-dasharray:6,6;stroke-dashoffset:0;stroke-opacity:1;color-rendering:auto;image-rendering:auto;shape-rendering:auto;text-rendering:auto;enable-background:accumulate"
       id="path5395-5"
       sodipodi:type="arc"
       sodipodi:cx="123.00001"
       sodipodi:cy="120.73101"
       sodipodi:rx="41.588425"
       sodipodi:ry="11.332423"
       sodipodi:start="3.1415927"
       sodipodi:end="0"
       d="m 81.411583,120.73101 a 41.588425,11.332423 0 0 1 41.588427,-11.33242 41.588425,11.332423 0 0 1 41.58842,11.33242"
       sodipodi:open="true" /><path
       style="color:#000000;clip-rule:nonzero;display:inline;overflow:visible;visibility:visible;opacity:1;isolation:auto;mix-blend-mode:normal;color-interpolation:sRGB;color-interpolation-filters:linearRGB;solid-color:#000000;solid-opacity:1;fill:none;fill-opacity:1;fill-rule:nonzero;stroke:#ffffff;stroke-width:1;stroke-linecap:butt;stroke-linejoin:miter;stroke-miterlimit:4;stroke-dasharray:none;stroke-dashoffset:0;stroke-opacity:1;color-rendering:auto;image-rendering:auto;shape-rendering:auto;text-rendering:auto;enable-background:accumulate"
       id="path5395-5-3"
       sodipodi:type="arc"
       sodipodi:cx="123.00001"
       sodipodi:cy="120.731"
       sodipodi:rx="41.588425"
       sodipodi:ry="11.332423"
       sodipodi:start="0"
       sodipodi:end="3.1415927"
       d="m 164.58843,120.731 a 41.588425,11.332423 0 0 1 -20.79421,9.81417 41.588425,11.332423 0 0 1 -41.58843,0 41.588425,11.332423 0 0 1 -20.794207,-9.81417"
       sodipodi:open="true" /><path
       style="color:#000000;clip-rule:nonzero;display:inline;overflow:visible;visibility:visible;opacity:1;isolation:auto;mix-blend-mode:normal;color-interpolation:sRGB;color-interpolation-filters:linearRGB;solid-color:#000000;solid-opacity:1;fill:#ffffff;fill-opacity:0.49803922;fill-rule:evenodd;stroke:none;stroke-width:1;stroke-linecap:butt;stroke-linejoin:miter;stroke-miterlimit:4;stroke-dasharray:6, 6;stroke-dashoffset:0;stroke-opacity:1;color-rendering:auto;image-rendering:auto;shape-rendering:auto;text-rendering:auto;enable-background:accumulate"
       d="M 83.214844 137.23438 C 83.212322 137.23437 83.208942 137.23468 83.207031 137.23633 L 12.900391 197.74219 C 12.89848 197.74383 12.897869 197.74609 12.900391 197.74609 L 272.41797 197.74609 C 272.42049 197.74609 272.42387 197.74383 272.42578 197.74219 L 342.73242 137.23633 C 342.73242 137.23633 342.73047 137.23438 342.73047 137.23438 L 212.43164 137.23438 A 41.588425 41.588425 0 0 1 220.78711 162.15234 A 41.588425 11.332423 0 0 1 220.58008 163.2832 A 41.588425 11.332423 0 0 1 219.95703 164.4043 A 41.588425 11.332423 0 0 1 218.92969 165.50195 A 41.588425 11.332423 0 0 1 217.50391 166.56641 A 41.588425 11.332423 0 0 1 215.69531 167.58594 A 41.588425 11.332423 0 0 1 213.52344 168.55078 A 41.588425 11.332423 0 0 1 211.00781 169.45312 A 41.588425 11.332423 0 0 1 208.17383 170.28125 A 41.588425 11.332423 0 0 1 205.05078 171.0293 A 41.588425 11.332423 0 0 1 201.66797 171.6875 A 41.588425 11.332423 0 0 1 198.0625 172.25195 A 41.588425 11.332423 0 0 1 194.26758 172.71484 A 41.588425 11.332423 0 0 1 190.32422 173.07227 A 41.588425 11.332423 0 0 1 186.26758 173.32031 A 41.588425 11.332423 0 0 1 182.14062 173.45703 A 41.588425 11.332423 0 0 1 179.19922 173.48438 A 41.588425 11.332423 0 0 1 175.04688 173.42773 A 41.588425 11.332423 0 0 1 170.93555 173.25977 A 41.588425 11.332423 0 0 1 166.9082 172.97852 A 41.588425 11.332423 0 0 1 163.00391 172.58984 A 41.588425 11.332423 0 0 1 159.25977 172.09766 A 41.588425 11.332423 0 0 1 155.7168 171.50586 A 41.588425 11.332423 0 0 1 152.40625 170.82031 A 41.588425 11.332423 0 0 1 149.36523 170.04688 A 41.588425 11.332423 0 0 1 146.62109 169.19727 A 41.588425 11.332423 0 0 1 144.20312 168.27539 A 41.588425 11.332423 0 0 1 142.13477 167.29297 A 41.588425 11.332423 0 0 1 140.43555 166.25977 A 41.588425 11.332423 0 0 1 139.125 165.18359 A 41.588425 11.332423 0 0 1 138.21484 164.07812 A 41.588425 11.332423 0 0 1 137.71484 162.95312 A 41.588425 11.332423 0 0 1 137.60938 162.15234 A 41.588425 41.588425 0 0 1 145.95312 137.23438 L 83.214844 137.23438 z "
       transform="translate(-56.198448,-41.421427)"
       id="rect4233" /></g><g
     id="Ebene_3"
     transform="translate(56.198448,41.421427)" /></svg>